<svg xmlns="http://www.w3.org/2000/svg" width="744.785" height="578.828" viewBox="0 0 744.785 578.828">
    <defs>
        <style>
            .cls-1{fill:#1195ff}.cls-4{fill:#fff}.cls-5{fill:#ff8700}.cls-6{fill:#333232}
        </style>
    </defs>
    <g id="data-protection-illustration" transform="translate(-44.828 -88.787)">
        <g id="freepik--background-simple--inject-2" transform="translate(44.828 88.787)">
            <path id="Trazado_5703" d="M627.14 167.422s-75.246-82.442-194.377-78.5S212.014 172.749 128 235.249 21.469 394.825 70.306 470.613 196.969 514.5 296.045 563.69s117.9 77.134 228.262 65.172 194.377-134.307 181.855-264.633-79.022-196.807-79.022-196.807z" class="cls-1" transform="translate(-44.828 -88.787)"/>
            <path id="Trazado_5704" fill="#fff" d="M627.14 167.422s-75.246-82.442-194.377-78.5S212.014 172.749 128 235.249 21.469 394.825 70.306 470.613 196.969 514.5 296.045 563.69s117.9 77.134 228.262 65.172 194.377-134.307 181.855-264.633-79.022-196.807-79.022-196.807z" transform="translate(-44.828 -88.787)" style="isolation:isolate" opacity="0.7"/>
        </g>
        <g id="freepik--Plants--inject-2" transform="translate(522.905 303.89)">
            <path id="Trazado_5705" d="M374.943 239.011c-.112 0 1.29-6.971 1.439-7.476 1.607-4.972 7.663-13.644 13.513-13.625a6.927 6.927 0 0 1 6.672 7.868c-.43 4.131-4.131 7.626-7.476 9.663-3.925 2.449-14.148 3.57-14.148 3.57z" class="cls-1" transform="translate(-236.038 -191.681)"/>
            <path id="Trazado_5706" d="M384.122 204.276c5.514 1.981 8.261 12.186 8.074 17.419 0 .449-1.047 7.476-1.14 7.476h-.112c.43 1.607.9 3.346 1.364 5.233.822 3.514 1.72 7.476 2.411 11.887a122.783 122.783 0 0 1 1.57 14.3 90.4 90.4 0 0 1-.542 16.073.525.525 0 0 0 0 .187c.729-1.551 2.878-5.85 3.084-6.168 2.878-4.373 10.99-11.214 16.653-9.569a6.933 6.933 0 0 1 4.583 8.668 6.648 6.648 0 0 1-.247.677c-1.5 3.85-5.981 6.261-9.738 7.327-4.243 1.215-13.7-.224-14.447-.336a121.468 121.468 0 0 1-3.476 16q-1.309 4.6-2.841 9.2c.654-1.327 1.271-2.5 1.364-2.673 2.878-4.373 10.99-11.214 16.653-9.588a6.912 6.912 0 0 1 4.336 9.345c-1.5 3.869-5.981 6.261-9.738 7.345s-11.906 0-14.036-.28c-.393 1.159-.785 2.336-1.2 3.5-1.869 5.607-3.888 11.214-5.607 16.709-.617 1.869-1.159 3.888-1.7 5.831.6-1.177 1.1-2.168 1.2-2.3 2.86-4.374 10.99-11.214 16.634-9.588a6.953 6.953 0 0 1 4.592 8.695c-.069.221-.148.437-.237.65-1.5 3.85-6 6.261-9.756 7.326s-11.1.131-13.644-.224c-.5 2.019-.991 4.018-1.383 5.981-.243 1.346-.561 2.635-.729 4s-.374 2.691-.561 4c-.262 2.56-.561 5.214-.748 7.719-.149 1.738-.262 3.4-.374 5.065.579-1.869 1.869-5.719 1.962-6.037a27.093 27.093 0 0 1 8.971-10.2 7.09 7.09 0 0 1 .766-1.327 6.934 6.934 0 0 1 9.592-2.039 6.677 6.677 0 0 1 .594.432c4.448 3.738 3.327 14.354 1.29 19.176-.112.28-1.776 3.215-2.841 5.046.8-.972 1.551-1.869 2.392-2.953 1.626-1.981 3.308-3.925 5.1-6.018l2.747-2.972c.9-1.028 1.981-1.981 2.972-2.972 2.336-2.262 4.822-4.448 7.383-6.6-1.757-1.42-7.869-6.6-9.625-10.111s-3.009-8.429-1.177-12.13a6.934 6.934 0 0 1 9.171-3.473 7.282 7.282 0 0 1 .678.351c4.953 3.1 5.458 13.662 4.168 18.69 0 .318-1.42 3.85-2.187 5.775 1.551-1.271 3.084-2.561 4.691-3.738 4.635-3.588 9.439-7.065 14.2-10.56l4.355-3.233c-.617-.5-8.018-6.485-10-10.41-1.738-3.5-3.009-8.429-1.177-12.149a6.953 6.953 0 0 1 9.2-3.456c.221.1.435.213.645.335 4.953 3.121 5.458 13.681 4.168 18.69-.093.392-2.019 5.476-2.579 6.747 3.2-2.392 6.355-4.785 9.345-7.27a120.868 120.868 0 0 0 11.588-10.8c-.28-.224-8.037-6.429-10.055-10.466-1.757-3.5-3.009-8.429-1.177-12.13a6.914 6.914 0 0 1 9.139-3.478 6.365 6.365 0 0 1 .692.357c4.971 3.1 5.476 13.662 4.187 18.69-.093.318-1.551 4.205-2.3 6.037l.3.168a89.428 89.428 0 0 0 9.513-12.784c1.551-2.467 2.916-4.916 4.187-7.345-1.57-1.009-8.654-5.607-10.878-9.121s-3.906-8.037-2.5-11.924a6.934 6.934 0 0 1 8.758-4.411c.2.067.394.14.587.224 5.289 2.542 6.934 12.99 6.205 18.167 0 .28-.748 3.1-1.29 5.158.542-1.1 1.14-2.224 1.645-3.289 1.869-4 3.458-7.775 4.766-11.214.748-1.869 1.364-3.738 1.869-5.289-1.028-1.869-5.028-9.065-5.42-13.083s.243-8.953 3.289-11.756a6.931 6.931 0 0 1 10.3.654c3.514 4.691.168 14.709-2.86 18.989-.262.355-5.028 5.607-5.084 5.607v-.112c-.523 1.589-1.084 3.289-1.757 5.121-1.234 3.383-2.691 7.214-4.523 11.214a124.75 124.75 0 0 1-6.6 12.784 90.619 90.619 0 0 1-9.345 13.083l-.131.15c1.458-.916 5.607-3.289 5.962-3.439 4.822-2.056 15.326-3.233 19.176 1.2a6.955 6.955 0 0 1-.964 9.786c-.183.15-.372.288-.568.419-3.383 2.392-8.467 1.869-12.186.729-4.205-1.327-11.214-7.738-11.868-8.242a121.142 121.142 0 0 1-11.719 11.42c-2.43 2.093-4.915 4.112-7.476 6.093 1.29-.729 2.448-1.383 2.617-1.458 4.8-2.056 15.307-3.233 19.157 1.2a6.931 6.931 0 0 1-1.533 10.2c-3.364 2.392-8.448 1.869-12.167.729s-9.943-6.523-11.55-7.962l-2.934 2.261c-4.71 3.607-9.345 7.177-13.924 10.822-1.589 1.29-3.1 2.617-4.635 3.925 1.159-.654 2.112-1.2 2.28-1.252 4.8-2.075 15.307-3.233 19.157 1.177a6.918 6.918 0 0 1-1.533 10.2c-3.383 2.392-8.448 1.869-12.167.748s-9.345-6.018-11.214-7.719c-1.514 1.4-3.047 2.785-4.448 4.224-.953.991-1.869 1.869-2.8 2.934s-1.869 2.019-2.691 3.028c-1.626 1.981-3.327 4.037-4.878 6.018-1.084 1.364-2.093 2.691-3.1 4.018 1.551-1.29 4.691-3.738 4.972-3.944 4.43-2.766 14.634-5.514 19.12-1.738a6.953 6.953 0 0 1 .516 9.82 6.721 6.721 0 0 1-.516.516c-2.972 2.86-8.055 3.177-11.906 2.579-4.261-.673-11.962-5.607-12.915-6.317-1.682 2.205-3.289 4.373-4.785 6.448-5.177 7.158-9.214 13.307-11.98 17.662l-.28.43-3.589-1.738c.187-.28.374-.542.561-.841 2.9-4.336 7.121-10.466 12.5-17.587 1.7-2.243 3.551-4.616 5.476-7.046a74.637 74.637 0 0 1-5.607-6.878c-4.13 1.607-12.709 1.682-13.812 1.682-.168 2.766-.318 5.458-.43 8-.374 8.84-.336 16.2-.243 21.344v.617l-3.944-1.869c0-5.1.206-12.036.729-20.2.168-2.822.411-5.831.692-8.9-1.1-.28-10.018-2.579-13.382-5.271-3.046-2.43-6.261-6.392-6.149-10.523a6.922 6.922 0 0 1 7.626-6.953c5.813.748 10.672 10.13 11.644 15.27 0 .3.3 3.738.411 5.794.131-1.271.224-2.486.355-3.738.262-2.561.6-5.121.953-7.869.206-1.308.43-2.635.635-3.981s.561-2.729.841-4.112c.71-3.177 1.57-6.373 2.523-9.569-2.243-.243-10.186-1.177-13.606-3.121s-7.158-5.383-7.663-9.476a6.916 6.916 0 0 1 5.693-7.953 7.026 7.026 0 0 1 .792-.084c5.85-.15 12.093 8.392 13.812 13.326.112.318.953 4 1.364 6.037.6-1.869 1.159-3.85 1.869-5.757 1.869-5.607 3.981-11.1 6.037-16.653.635-1.7 1.234-3.4 1.869-5.084-.8 0-10.28-.991-14.092-3.177-3.383-1.869-7.158-5.383-7.682-9.476a6.952 6.952 0 0 1 5.771-7.96 7.063 7.063 0 0 1 .714-.077c5.869-.15 12.111 8.392 13.831 13.326.131.374 1.327 5.607 1.57 7.046 1.346-3.738 2.673-7.476 3.738-11.214a121.071 121.071 0 0 0 3.738-15.4c-.374 0-10.28-.934-14.167-3.177-3.4-1.869-7.177-5.383-7.682-9.476a6.952 6.952 0 0 1 5.772-7.96 7.061 7.061 0 0 1 .714-.077c5.85-.131 12.092 8.392 13.812 13.326.112.336 1.028 4.373 1.42 6.3h.336a89.311 89.311 0 0 0 .9-15.905 81.489 81.489 0 0 0-.561-8.448c-1.869 0-10.354 0-14.092-1.607s-7.719-4.56-8.691-8.579a6.934 6.934 0 0 1 4.844-8.526 7.007 7.007 0 0 1 .763-.164c5.813-.785 12.952 7.009 15.214 11.737.112.262 1.084 3.009 1.738 5.009-.131-1.215-.262-2.486-.43-3.645-.579-4.392-1.4-8.392-2.149-11.906-.449-2-.878-3.738-1.308-5.476-1.869-.935-9.2-4.785-11.719-7.906s-4.729-7.588-3.738-11.607a6.936 6.936 0 0 1 9.083-5.028z" class="cls-1" transform="translate(-256.563 -203.876)"/>
            <path id="Trazado_5707" d="M431.937 259.58c-4.579-.187-13.737-4.878-13.737-4.9s4.915-5.084 5.271-5.364c4.093-3.271 13.924-7.158 18.8-3.925a6.952 6.952 0 0 1 1.663 9.691 6.6 6.6 0 0 1-.449.57c-2.614 3.148-7.642 4.078-11.548 3.928z" class="cls-1" transform="translate(-198.442 -168.852)"/>
            <g id="Grupo_1539" opacity="0.5" transform="translate(94.756)">
                <path id="Trazado_5708" d="M374.943 239.011c-.112 0 1.29-6.971 1.439-7.476 1.607-4.972 7.663-13.644 13.513-13.625a6.927 6.927 0 0 1 6.672 7.868c-.43 4.131-4.131 7.626-7.476 9.663-3.925 2.449-14.148 3.57-14.148 3.57z" class="cls-4" transform="translate(-330.794 -191.681)"/>
                <path id="Trazado_5709" d="M384.122 204.276c5.514 1.981 8.261 12.186 8.074 17.419 0 .449-1.047 7.476-1.14 7.476h-.112c.43 1.607.9 3.346 1.364 5.233.822 3.514 1.72 7.476 2.411 11.887a122.783 122.783 0 0 1 1.57 14.3 90.4 90.4 0 0 1-.542 16.073.525.525 0 0 0 0 .187c.729-1.551 2.878-5.85 3.084-6.168 2.878-4.373 10.99-11.214 16.653-9.569a6.933 6.933 0 0 1 4.583 8.668 6.648 6.648 0 0 1-.247.677c-1.5 3.85-5.981 6.261-9.738 7.327-4.243 1.215-13.7-.224-14.447-.336a121.468 121.468 0 0 1-3.476 16q-1.309 4.6-2.841 9.2c.654-1.327 1.271-2.5 1.364-2.673 2.878-4.373 10.99-11.214 16.653-9.588a6.912 6.912 0 0 1 4.336 9.345c-1.5 3.869-5.981 6.261-9.738 7.345s-11.906 0-14.036-.28c-.393 1.159-.785 2.336-1.2 3.5-1.869 5.607-3.888 11.214-5.607 16.709-.617 1.869-1.159 3.888-1.7 5.831.6-1.177 1.1-2.168 1.2-2.3 2.86-4.374 10.99-11.214 16.634-9.588a6.953 6.953 0 0 1 4.592 8.695c-.069.221-.148.437-.237.65-1.5 3.85-6 6.261-9.756 7.326s-11.1.131-13.644-.224c-.5 2.019-.991 4.018-1.383 5.981-.243 1.346-.561 2.635-.729 4s-.374 2.691-.561 4c-.262 2.56-.561 5.214-.748 7.719-.149 1.738-.262 3.4-.374 5.065.579-1.869 1.869-5.719 1.962-6.037a27.093 27.093 0 0 1 8.971-10.2 7.09 7.09 0 0 1 .766-1.327 6.934 6.934 0 0 1 9.592-2.039 6.677 6.677 0 0 1 .594.432c4.448 3.738 3.327 14.354 1.29 19.176-.112.28-1.776 3.215-2.841 5.046.8-.972 1.551-1.869 2.392-2.953 1.626-1.981 3.308-3.925 5.1-6.018l2.747-2.972c.9-1.028 1.981-1.981 2.972-2.972 2.336-2.262 4.822-4.448 7.383-6.6-1.757-1.42-7.869-6.6-9.625-10.111s-3.009-8.429-1.177-12.13a6.934 6.934 0 0 1 9.171-3.473 7.282 7.282 0 0 1 .678.351c4.953 3.1 5.458 13.662 4.168 18.69 0 .318-1.42 3.85-2.187 5.775 1.551-1.271 3.084-2.561 4.691-3.738 4.635-3.588 9.439-7.065 14.2-10.56l4.355-3.233c-.617-.5-8.018-6.485-10-10.41-1.738-3.5-3.009-8.429-1.177-12.149a6.953 6.953 0 0 1 9.2-3.456c.221.1.435.213.645.335 4.953 3.121 5.458 13.681 4.168 18.69-.093.392-2.019 5.476-2.579 6.747 3.2-2.392 6.355-4.785 9.345-7.27a120.868 120.868 0 0 0 11.588-10.8c-.28-.224-8.037-6.429-10.055-10.466-1.757-3.5-3.009-8.429-1.177-12.13a6.914 6.914 0 0 1 9.139-3.478 6.365 6.365 0 0 1 .692.357c4.971 3.1 5.476 13.662 4.187 18.69-.093.318-1.551 4.205-2.3 6.037l.3.168a89.428 89.428 0 0 0 9.513-12.784c1.551-2.467 2.916-4.916 4.187-7.345-1.57-1.009-8.654-5.607-10.878-9.121s-3.906-8.037-2.5-11.924a6.934 6.934 0 0 1 8.758-4.411c.2.067.394.14.587.224 5.289 2.542 6.934 12.99 6.205 18.167 0 .28-.748 3.1-1.29 5.158.542-1.1 1.14-2.224 1.645-3.289 1.869-4 3.458-7.775 4.766-11.214.748-1.869 1.364-3.738 1.869-5.289-1.028-1.869-5.028-9.065-5.42-13.083s.243-8.953 3.289-11.756a6.931 6.931 0 0 1 10.3.654c3.514 4.691.168 14.709-2.86 18.989-.262.355-5.028 5.607-5.084 5.607v-.112c-.523 1.589-1.084 3.289-1.757 5.121-1.234 3.383-2.691 7.214-4.523 11.214a124.75 124.75 0 0 1-6.6 12.784 90.619 90.619 0 0 1-9.345 13.083l-.131.15c1.458-.916 5.607-3.289 5.962-3.439 4.822-2.056 15.326-3.233 19.176 1.2a6.955 6.955 0 0 1-.964 9.786c-.183.15-.372.288-.568.419-3.383 2.392-8.467 1.869-12.186.729-4.205-1.327-11.214-7.738-11.868-8.242a121.142 121.142 0 0 1-11.719 11.42c-2.43 2.093-4.915 4.112-7.476 6.093 1.29-.729 2.448-1.383 2.617-1.458 4.8-2.056 15.307-3.233 19.157 1.2a6.931 6.931 0 0 1-1.533 10.2c-3.364 2.392-8.448 1.869-12.167.729s-9.943-6.523-11.55-7.962l-2.934 2.261c-4.71 3.607-9.345 7.177-13.924 10.822-1.589 1.29-3.1 2.617-4.635 3.925 1.159-.654 2.112-1.2 2.28-1.252 4.8-2.075 15.307-3.233 19.157 1.177a6.918 6.918 0 0 1-1.533 10.2c-3.383 2.392-8.448 1.869-12.167.748s-9.345-6.018-11.214-7.719c-1.514 1.4-3.047 2.785-4.448 4.224-.953.991-1.869 1.869-2.8 2.934s-1.869 2.019-2.691 3.028c-1.626 1.981-3.327 4.037-4.878 6.018-1.084 1.364-2.093 2.691-3.1 4.018 1.551-1.29 4.691-3.738 4.972-3.944 4.43-2.766 14.634-5.514 19.12-1.738a6.953 6.953 0 0 1 .516 9.82 6.721 6.721 0 0 1-.516.516c-2.972 2.86-8.055 3.177-11.906 2.579-4.261-.673-11.962-5.607-12.915-6.317-1.682 2.205-3.289 4.373-4.785 6.448-5.177 7.158-9.214 13.307-11.98 17.662l-.28.43-3.589-1.738c.187-.28.374-.542.561-.841 2.9-4.336 7.121-10.466 12.5-17.587 1.7-2.243 3.551-4.616 5.476-7.046a74.637 74.637 0 0 1-5.607-6.878c-4.13 1.607-12.709 1.682-13.812 1.682-.168 2.766-.318 5.458-.43 8-.374 8.84-.336 16.2-.243 21.344v.617l-3.944-1.869c0-5.1.206-12.036.729-20.2.168-2.822.411-5.831.692-8.9-1.1-.28-10.018-2.579-13.382-5.271-3.046-2.43-6.261-6.392-6.149-10.523a6.922 6.922 0 0 1 7.626-6.953c5.813.748 10.672 10.13 11.644 15.27 0 .3.3 3.738.411 5.794.131-1.271.224-2.486.355-3.738.262-2.561.6-5.121.953-7.869.206-1.308.43-2.635.635-3.981s.561-2.729.841-4.112c.71-3.177 1.57-6.373 2.523-9.569-2.243-.243-10.186-1.177-13.606-3.121s-7.158-5.383-7.663-9.476a6.916 6.916 0 0 1 5.693-7.953 7.026 7.026 0 0 1 .792-.084c5.85-.15 12.093 8.392 13.812 13.326.112.318.953 4 1.364 6.037.6-1.869 1.159-3.85 1.869-5.757 1.869-5.607 3.981-11.1 6.037-16.653.635-1.7 1.234-3.4 1.869-5.084-.8 0-10.28-.991-14.092-3.177-3.383-1.869-7.158-5.383-7.682-9.476a6.952 6.952 0 0 1 5.771-7.96 7.063 7.063 0 0 1 .714-.077c5.869-.15 12.111 8.392 13.831 13.326.131.374 1.327 5.607 1.57 7.046 1.346-3.738 2.673-7.476 3.738-11.214a121.071 121.071 0 0 0 3.738-15.4c-.374 0-10.28-.934-14.167-3.177-3.4-1.869-7.177-5.383-7.682-9.476a6.952 6.952 0 0 1 5.772-7.96 7.061 7.061 0 0 1 .714-.077c5.85-.131 12.092 8.392 13.812 13.326.112.336 1.028 4.373 1.42 6.3h.336a89.311 89.311 0 0 0 .9-15.905 81.489 81.489 0 0 0-.561-8.448c-1.869 0-10.354 0-14.092-1.607s-7.719-4.56-8.691-8.579a6.934 6.934 0 0 1 4.844-8.526 7.007 7.007 0 0 1 .763-.164c5.813-.785 12.952 7.009 15.214 11.737.112.262 1.084 3.009 1.738 5.009-.131-1.215-.262-2.486-.43-3.645-.579-4.392-1.4-8.392-2.149-11.906-.449-2-.878-3.738-1.308-5.476-1.869-.935-9.2-4.785-11.719-7.906s-4.729-7.588-3.738-11.607a6.936 6.936 0 0 1 9.083-5.028z" class="cls-4" transform="translate(-351.318 -203.876)"/>
                <path id="Trazado_5710" d="M431.937 259.58c-4.579-.187-13.737-4.878-13.737-4.9s4.915-5.084 5.271-5.364c4.093-3.271 13.924-7.158 18.8-3.925a6.952 6.952 0 0 1 1.663 9.691 6.6 6.6 0 0 1-.449.57c-2.614 3.148-7.642 4.078-11.548 3.928z" class="cls-4" transform="translate(-293.198 -168.852)"/>
            </g>
            <path id="Trazado_5711" d="M480.643 343.621s-27.792-67-43.342-64.088 26.633 106.8 26.633 106.8-48.893-92.236-82.236-92.236 12.223 101.954 54.444 135.933c0 0-66.668-71.845-105.562-56.313s77.788 88.348 77.788 88.348-67.789-21.365-60.014-4.865 28.895 19.419 28.895 19.419l-76.629 3.888h266.708l-60.014-5.831S569.552 443.613 552.88 431s-53.342 14.56-53.342 14.56 63.341-69.9 51.117-96.123-66.686 47.585-66.686 47.585 44.464-94.179 35.511-110.683-38.837 57.282-38.837 57.282z" class="cls-5" transform="translate(-300.62 -138.21)"/>
            <path id="Trazado_5712" d="M389.57 440.389c-.348 0-.536-.006-.561-.006a.937.937 0 0 1-.9-.935c0-.512.282-52.1 24.516-123.654a.934.934 0 0 1 1.77.6c-22.348 65.984-24.245 114.866-24.4 122.125 5.123-.058 30.969-1.368 57.4-20.938a.935.935 0 0 1 1.114 1.5c-27.646 20.47-54.736 21.308-58.939 21.308z" class="cls-6" transform="translate(-224.59 -107.169)"/>
            <path id="Trazado_5713" d="M404.9 367.308a.937.937 0 0 1-.91-.721 434.956 434.956 0 0 0-19.974-63.223.935.935 0 1 1 1.734-.7 437.11 437.11 0 0 1 20.06 63.5.935.935 0 0 1-.7 1.123.915.915 0 0 1-.21.021z" class="cls-6" transform="translate(-228.206 -118.536)"/>
            <path id="Trazado_5714" d="M419.164 407.485a1.021 1.021 0 0 1-.131-.007.931.931 0 0 1-.643-.4l-62.219-92.238a.933.933 0 1 1 1.548-1.043l61.636 91.37c5.874-4.992 42.612-36.5 55.74-54.725a.933.933 0 1 1 1.514 1.091c-14.348 19.92-56.42 55.381-56.844 55.736a.93.93 0 0 1-.601.216z" class="cls-6" transform="translate(-252.486 -108.717)"/>
            <path id="Trazado_5715" d="M432.53 399.206a.958.958 0 0 1-.4-.09c-.654-.312-65.929-31.349-92.35-48.9a.934.934 0 1 1 1.034-1.555c26.308 17.479 91.464 48.46 92.12 48.77a.935.935 0 0 1-.4 1.779z" class="cls-6" transform="translate(-266.954 -78.196)"/>
        </g>
        <g id="freepik--Device--inject-2" transform="translate(396.916 125.631)">
            <g id="Grupo_1540" transform="translate(17.288)">
                <rect id="Rectángulo_853" width="229.29" height="519.622" class="cls-4" rx="7.92" transform="translate(.935 .935)"/>
                <path id="Trazado_5716" d="M457.882 629.991H258.2a15.756 15.756 0 0 1-15.737-15.737V124.237A15.754 15.754 0 0 1 258.2 108.5h199.682a15.756 15.756 0 0 1 15.737 15.737v490.017a15.757 15.757 0 0 1-15.737 15.737zM258.2 110.369a13.885 13.885 0 0 0-13.868 13.868v490.017a13.885 13.885 0 0 0 13.868 13.868h199.682a13.883 13.883 0 0 0 13.868-13.868V124.237a13.884 13.884 0 0 0-13.868-13.868z" class="cls-6" transform="translate(-242.46 -108.5)"/>
            </g>
            <path id="Trazado_5717" d="M362.956 179.388a3.047 3.047 0 0 1-3.046-3.047V135.5a3.065 3.065 0 0 1 6.112 0v40.763a3.065 3.065 0 0 1-3.009 3.121z" class="cls-6" transform="translate(-123.107 -87.489)"/>
            <path id="Trazado_5718" d="M362.956 191.251a3.047 3.047 0 0 1-3.046-3.046v-22.821a3.065 3.065 0 0 1 6.112 0V188.2a3.065 3.065 0 0 1-3.066 3.051z" class="cls-6" transform="translate(-123.107 -61.523)"/>
            <g id="Grupo_1541">
                <rect id="Rectángulo_854" width="229.29" height="519.622" class="cls-6" rx="7.92" transform="translate(.935 .935)"/>
                <path id="Trazado_5719" d="M448.632 629.991H248.947a15.756 15.756 0 0 1-15.737-15.737V124.237a15.754 15.754 0 0 1 15.737-15.737h199.685a15.756 15.756 0 0 1 15.737 15.737v490.017a15.757 15.757 0 0 1-15.737 15.737zM248.947 110.369a13.885 13.885 0 0 0-13.868 13.868v490.017a13.885 13.885 0 0 0 13.868 13.868h199.685a13.883 13.883 0 0 0 13.868-13.868V124.237a13.884 13.884 0 0 0-13.868-13.868z" class="cls-6" transform="translate(-233.21 -108.5)"/>
            </g>
            <path id="Rectángulo_855" d="M0 0H198.75V445.684H0z" class="cls-1" transform="translate(16.204 35.53)"/>
            <path id="Trazado_5720" d="M333.475 124h-52.911a2.8 2.8 0 1 1 0-5.607h52.912a2.8 2.8 0 1 1 0 5.607z" class="cls-4" transform="translate(-194.496 -99.905)"/>
            <path id="Trazado_5721" d="M295.976 377.486c0 3.645-2.28 6.6-5.1 6.6s-5.084-2.953-5.084-6.6 2.28-6.616 5.084-6.616 5.1 2.953 5.1 6.616z" class="cls-4" transform="translate(-187.517 119.502)"/>
            <ellipse id="Elipse_675" cx="34.465" cy="40.184" class="cls-4" rx="34.465" ry="40.184" transform="translate(81.115 66.069)"/>
            <g id="Grupo_1542" transform="translate(101.562 74.274)">
                <ellipse id="Elipse_676" cx="13.083" cy="15.27" class="cls-6" rx="13.083" ry="15.27" transform="translate(.935 .935)"/>
                <path id="Trazado_5722" d="M301.568 180.649c-7.73 0-14.018-7.269-14.018-16.2s6.287-16.2 14.018-16.2 14.018 7.269 14.018 16.2-6.286 16.2-14.018 16.2zm0-30.54c-6.7 0-12.149 6.431-12.149 14.335s5.45 14.335 12.149 14.335 12.149-6.431 12.149-14.335-5.451-14.335-12.149-14.335z" class="cls-6" transform="translate(-287.55 -148.24)"/>
            </g>
            <g id="Grupo_1543" transform="translate(90.853 108.87)">
                <path id="Trazado_5723" d="M306.112 167.25c-13.083 0-23.792 10.037-23.792 22.428a20.807 20.807 0 0 0 .318 3.439 30.913 30.913 0 0 0 46.949 0 23.031 23.031 0 0 0 .3-3.439c-.001-12.391-10.654-22.428-23.775-22.428z" class="cls-6" transform="translate(-281.385 -166.315)"/>
                <path id="Trazado_5724" d="M306.6 205.287q-1.245 0-2.5-.1a31.64 31.64 0 0 1-21.737-11.033.962.962 0 0 1-.209-.445 21.658 21.658 0 0 1-.333-3.594c0-12.891 11.093-23.37 24.727-23.37s24.708 10.48 24.708 23.363a24.051 24.051 0 0 1-.31 3.589.94.94 0 0 1-.213.46 32.211 32.211 0 0 1-3.463 3.461 31.605 31.605 0 0 1-20.67 7.669zm-22.647-12.149a29.975 29.975 0 0 0 42.1 3.063 30.218 30.218 0 0 0 3.089-3.06 22.223 22.223 0 0 0 .245-3.039c0-11.842-10.246-21.484-22.839-21.484s-22.858 9.642-22.858 21.494a19.563 19.563 0 0 0 .261 3.027zm46.071.413z" class="cls-6" transform="translate(-281.82 -166.75)"/>
            </g>
            <path id="Trazado_5725" d="M360.176 312.236H276.37a8.374 8.374 0 0 1-8.037-8.691V251.81c0-29.811 22.428-54.07 49.94-54.07s49.921 24.3 49.921 54.07v51.7a8.374 8.374 0 0 1-8 8.728zm-75.788-17.382h67.752v-42.987c0-20.223-15.2-36.689-33.867-36.689s-33.885 16.466-33.885 36.689z" class="cls-6" transform="translate(-202.693 -30.95)"/>
            <path id="Rectángulo_856" d="M0 0H116.365V110.085H0z" class="cls-5" transform="translate(57.397 245.98)"/>
            <g id="Grupo_1544" transform="translate(98.833 272.745)">
                <path id="Trazado_5726" d="M319.354 303.02l-8.635-20.765a15.3 15.3 0 0 0 6.074-12.373c0-8.28-6.186-14.952-13.831-14.952s-13.812 6.691-13.812 14.952a15.289 15.289 0 0 0 6.056 12.373l-8.616 20.765z" class="cls-4" transform="translate(-285.655 -253.995)"/>
                <path id="Trazado_5727" d="M319.788 304.389h-32.763a.934.934 0 0 1-.863-1.292l8.347-20.114a16.3 16.3 0 0 1-5.857-12.677c0-8.749 6.614-15.875 14.747-15.875s14.765 7.127 14.765 15.887a16.31 16.31 0 0 1-5.876 12.666l8.366 20.112a.934.934 0 0 1-.864 1.293zm-31.364-1.869h29.964l-8.1-19.471a.937.937 0 0 1 .3-1.1 14.432 14.432 0 0 0 5.7-11.618c0-7.74-5.786-14.027-12.9-14.027s-12.878 6.287-12.878 14.018a14.417 14.417 0 0 0 5.686 11.627.934.934 0 0 1 .3 1.1z" class="cls-6" transform="translate(-286.09 -254.43)"/>
            </g>
            <path id="Trazado_5728" d="M276.254 438.015a1.062 1.062 0 0 0 .617.206.973.973 0 0 0 .8-.43l133.41-181.462v-3.439L276.1 436.595a1.011 1.011 0 0 0 .148 1.42z" class="cls-4" transform="translate(-196.13 16.976)"/>
            <path id="Trazado_5729" d="M333.952 179.427a1.01 1.01 0 0 0 .211 1.411l.013.009a1.029 1.029 0 0 0 1.42-.224l25.194-34.259V143z" class="cls-4" transform="translate(-145.836 -78.519)"/>
            <path id="Trazado_5730" d="M241.88 394.344l164.7-223.963a1.017 1.017 0 1 0-1.645-1.2l-162.98 221.724z" class="cls-4" transform="translate(-225.676 -56.128)"/>
            <path id="Trazado_5731" d="M268.277 370.574a1.068 1.068 0 0 0 .822-.411l9.345-12.635a1.01 1.01 0 0 0-.211-1.411l-.013-.009a1.029 1.029 0 0 0-1.42.224l-9.345 12.616a1.008 1.008 0 0 0 .2 1.413l.009.007a.956.956 0 0 0 .613.206z" class="cls-4" transform="translate(-203.628 106.509)"/>
            <path id="Trazado_5732" d="M399.235 274.17L289.711 423.149a1.009 1.009 0 0 0 .822 1.607.992.992 0 0 0 .822-.411l107.88-146.755z" class="cls-4" transform="translate(-184.281 35.469)"/>
        </g>
        <g id="freepik--Character--inject-2" transform="translate(82.161 197.121)">
            <g id="Grupo_1545">
                <path id="Trazado_5733" d="M209.422 175.08a29.7 29.7 0 0 0 2.617-13.08c0-8.354-10.111-13.2-22-14.522s-17.157 3.514-15.4 6.6a28.78 28.78 0 0 0 6.6 6.6s-11.887-6.6-19.812-1.308 3.532 3.084 1.327 8.354-14.522 3.084-17.606 17.158 5.719 28.166-2.205 34.334S111.168 217 104.216 232.4s2.916 22.241-13.793 31.923-28.895 19.139-24.054 42.894 20.69 32.072 51.94 23.68 29.044-27.288 39.249-46.725 25.979-15.4 30.82-26.409-1.327-24.2-.878-34.334 10.56-12.317 14.522-24.3 7.4-24.049 7.4-24.049z" class="cls-6" transform="translate(-64.374 -146.316)"/>
                <path id="Trazado_5734" d="M97.851 335.454c-7.205 0-13.162-1.488-17.985-4.471-7.137-4.41-11.71-11.983-13.985-23.145-5.005-24.559 8.136-34.4 24.5-43.886 9.853-5.712 10.042-10.265 10.3-16.565.17-4.153.364-8.861 3.108-14.935 4.523-10.023 15.539-10.491 25.258-10.9 5.628-.237 10.943-.464 13.745-2.645 4.065-3.162 3.246-8.747 2.211-15.816-.8-5.493-1.716-11.721-.344-17.98 2.05-9.364 8.13-11.954 12.571-13.846 2.469-1.052 4.42-1.882 5.086-3.473.6-1.437-.045-1.9-1.9-2.757-1.1-.508-2.232-1.034-2.323-2.209-.088-1.108.852-2.211 3.241-3.805 4.91-3.275 11.1-2.334 15.449-.957a29.709 29.709 0 0 1-2.475-3.011 3.644 3.644 0 0 1 .2-3.973c1.665-2.533 6.87-5.121 16.062-4.1 14.081 1.572 22.828 7.493 22.828 15.451a30.8 30.8 0 0 1-2.671 13.406c-.28.979-3.622 12.616-7.394 24.024-1.936 5.854-5.3 9.457-8.27 12.636-3.211 3.439-5.985 6.409-6.205 11.408a57.387 57.387 0 0 0 1.277 11.825c1.334 7.661 2.716 15.584-.479 22.843-2.25 5.119-6.605 7.14-11.648 9.478-6.37 2.953-13.588 6.3-19.2 16.989a115.53 115.53 0 0 0-5.919 14.01c-5.312 14.346-9.9 26.734-33.915 33.184a82.647 82.647 0 0 1-21.123 3.22zm71.394-176.771a12.2 12.2 0 0 0-6.872 1.89c-2.25 1.5-2.405 2.071-2.417 2.131a9.8 9.8 0 0 0 1.247.632c1.465.678 4.194 1.942 2.841 5.175-.959 2.291-3.331 3.3-6.078 4.471-4.289 1.83-9.631 4.1-11.478 12.526-1.3 5.927-.411 11.973.37 17.309 1.078 7.368 2.009 13.73-2.914 17.563-3.273 2.546-8.878 2.785-14.812 3.037-9.181.389-19.585.83-23.635 9.8a34.771 34.771 0 0 0-2.944 14.242c-.275 6.637-.49 11.879-11.233 18.105-16.29 9.439-28.372 18.514-23.607 41.9 2.166 10.631 6.463 17.8 13.135 21.929 8.457 5.228 20.77 5.566 37.646 1.035 23.084-6.2 27.516-18.169 32.648-32.027a117.236 117.236 0 0 1 6.016-14.231c5.906-11.25 13.758-14.889 20.068-17.815 4.893-2.269 8.758-4.061 10.724-8.534 2.966-6.743 1.633-14.382.348-21.77a58.6 58.6 0 0 1-1.3-12.229c.25-5.689 3.387-9.048 6.706-12.6 2.977-3.189 6.054-6.484 7.863-11.949 3.908-11.823 7.355-23.9 7.388-24.017a.743.743 0 0 1 .049-.127 28.953 28.953 0 0 0 2.533-12.672c0-8.308-10.936-12.479-21.168-13.621-7.811-.88-12.808 1.011-14.292 3.265a1.817 1.817 0 0 0-.192 1.94 27.763 27.763 0 0 0 6.332 6.3.935.935 0 0 1-1 1.577c-.085-.042-5.95-3.235-11.972-3.235z" class="cls-6" transform="translate(-64.803 -146.75)"/>
            </g>
            <path id="Trazado_5735" d="M67.388 238.611a.466.466 0 0 1-.467-.462 12.21 12.21 0 0 1 1.263-5.54.467.467 0 0 1 .837.415 11.279 11.279 0 0 0-1.166 5.114.467.467 0 0 1-.462.473z" class="cls-4" transform="translate(-62.964 -72.363)"/>
            <path id="Trazado_5736" d="M69.837 296.3a.468.468 0 0 1-.308-.819c4.078-3.588 10.384-6.128 17.686-9.07a143.378 143.378 0 0 0 19.374-9c11.6-6.807 9.175-17.141 7.035-26.258-1.4-5.973-2.725-11.616.032-15.567 3.645-5.224 10.891-6.375 17.9-7.489 6.158-.978 11.975-1.9 14.294-5.575 2.155-3.418 1.164-7.414.116-11.644-1.325-5.345-2.83-11.4 2.032-17.227 5.889-7.093 14.457-9.039 22.742-10.921 5.035-1.144 10.242-2.325 14.784-4.654 4.231-2.181 13.879-11.059 13.285-16.909-.217-2.133-1.854-3.641-4.863-4.484-4.611-1.292-5.607-.645-5.82-.307-.428.673.635 2.28 1.217 2.953a.467.467 0 0 1-.706.611c-.228-.265-2.209-2.628-1.3-4.065.74-1.164 2.921-1.194 6.863-.093 3.417.959 5.28 2.738 5.54 5.291.645 6.342-9.259 15.5-13.786 17.834-4.648 2.381-9.913 3.577-15 4.734-8.508 1.933-16.544 3.759-22.232 10.607-4.557 5.461-3.177 11.023-1.843 16.4 1.1 4.428 2.136 8.612-.234 12.365-2.544 4.033-8.564 4.988-14.937 6-6.814 1.082-13.861 2.2-17.277 7.1-2.518 3.609-1.239 9.053.112 14.819 2.213 9.431 4.721 20.12-7.472 27.276a144.449 144.449 0 0 1-19.5 9.059c-7.22 2.91-13.459 5.422-17.417 8.9a.462.462 0 0 1-.317.133z" class="cls-4" transform="translate(-60.834 -139.599)"/>
            <path id="Trazado_5737" d="M77.852 306.319a.461.461 0 0 1-.443-.331c-.056-.185-1.254-4.622 7.768-12.358 3.846-3.3 8.981-5.011 14.416-6.827 7.194-2.4 14.632-4.887 19.417-11.319 5.358-7.2 5.2-20.056 5.071-30.386-.073-5.942-.136-11.072.779-14.318 1.514-5.36 7.4-7.487 13.627-9.738 4.663-1.686 9.485-3.428 13.208-6.62 6.413-5.495 2.686-14.341-.306-21.447a45.185 45.185 0 0 1-2.389-6.482 15.726 15.726 0 0 1 1.035-8.868.467.467 0 1 1 .86.366 14.748 14.748 0 0 0-.978 8.317 44.8 44.8 0 0 0 2.329 6.3c3.112 7.388 6.984 16.582.054 22.522-3.852 3.3-8.756 5.074-13.5 6.788-6.257 2.262-11.661 4.215-13.044 9.113-.88 3.116-.819 8.184-.746 14.051.129 10.47.292 23.5-5.254 30.956-4.962 6.669-12.541 9.2-19.871 11.65-5.347 1.785-10.4 3.473-14.1 6.65-8.476 7.265-7.493 11.345-7.482 11.386a.468.468 0 0 1-.321.574.453.453 0 0 1-.13.021z" class="cls-4" transform="translate(-53.919 -120.167)"/>
            <path id="Trazado_5738" d="M117.937 177.177a.451.451 0 0 1-.226-.06.467.467 0 0 1-.181-.635 37.951 37.951 0 0 1 2.157-3.426.467.467 0 0 1 .763.54 37.349 37.349 0 0 0-2.1 3.342.463.463 0 0 1-.413.239z" class="cls-4" transform="translate(-19.035 -124.06)"/>
            <g id="Grupo_1546" transform="translate(133.698 158.559)">
                <path id="Trazado_5739" d="M152.97 232.37l2.149 16.821s11.214 11.214 19.456 18.148 29.362 21.606 29.362 21.606l-10.709 3.047s-35.007-20.746-41.922-22.428-12.092-11.663-14.242-14.69 10.28-25.532 15.906-22.504z" class="cls-4" transform="translate(-135.92 -231.148)"/>
                <path id="Trazado_5740" d="M193.646 293.364a.922.922 0 0 1-.477-.133c-.348-.206-34.964-20.692-41.666-22.323-6.142-1.491-10.751-8.758-13.505-13.1-.5-.792-.931-1.467-1.278-1.957-1.99-2.8 4.2-14.561 9.055-20.062 3.233-3.661 5.945-4.936 8.055-3.8a.932.932 0 0 1 .484.7l2.108 16.5c1.628 1.619 11.694 11.579 19.172 17.868 8.115 6.828 29.082 21.408 29.293 21.555a.932.932 0 0 1-.277 1.663l-10.71 3.052a.857.857 0 0 1-.254.037zm-41.395-59.9c-1.164 0-2.835 1.112-4.736 3.181-5.751 6.263-10.16 16.759-9.27 18.122.361.508.807 1.211 1.331 2.037 2.433 3.833 6.96 10.969 12.369 12.283 6.68 1.626 37.963 20.041 41.832 22.329l8.431-2.4c-5.108-3.577-20.968-14.767-27.816-20.527-8.179-6.882-19.4-18.09-19.516-18.2a.933.933 0 0 1-.265-.542l-2.078-16.259a1.69 1.69 0 0 0-.282-.02z" class="cls-6" transform="translate(-136.337 -231.586)"/>
            </g>
            <g id="Grupo_1547" transform="translate(155.194 430.432)">
                <path id="Trazado_5741" d="M164.349 379.643s10.579 8.934 14.952 11.924 9.476 4.336 8.672 5.962-2.99 3.252-13.289 1.869-13.27-4.878-15.176-5.42-6.5.822-10.018-1.346 2.056-15.083 2.056-15.083a10.057 10.057 0 0 0 12.803 2.094z" class="cls-4" transform="translate(-147.413 -376.615)"/>
                <path id="Trazado_5742" d="M181.749 401.293a51.34 51.34 0 0 1-6.762-.535c-7.8-1.045-11.5-3.273-13.707-4.6a8.523 8.523 0 0 0-1.6-.845 10.047 10.047 0 0 0-2.445-.069c-2.217.08-5.248.2-7.809-1.377-4-2.467.7-13.969 1.69-16.249a.935.935 0 0 1 1.568-.237 9.1 9.1 0 0 0 11.612 1.9.935.935 0 0 1 1.084.088c.1.09 10.592 8.938 14.875 11.866a42.908 42.908 0 0 0 4.839 2.744c2.822 1.435 5.052 2.568 4.144 4.405-.77 1.55-2.318 2.909-7.489 2.909zm-23.239-7.954a6.255 6.255 0 0 1 1.68.176 9.206 9.206 0 0 1 2.054 1.039c2.088 1.256 5.579 3.359 12.991 4.355 9.8 1.314 11.726-.144 12.326-1.357a17.787 17.787 0 0 0-3.316-1.912 44.238 44.238 0 0 1-5.046-2.865c-3.873-2.648-12.371-9.749-14.533-11.567a10.957 10.957 0 0 1-12.366-1.558c-1.929 4.884-3.652 11.534-1.888 12.621 2.075 1.28 4.671 1.183 6.755 1.1.472-.015.922-.032 1.343-.032z" class="cls-6" transform="translate(-147.838 -377.05)"/>
            </g>
            <g id="Grupo_1548" transform="translate(154.819 442.188)">
                <path id="Trazado_5743" d="M188.1 392.064a1.528 1.528 0 0 0 0-.262 48.2 48.2 0 0 1-17.681-1.663c-6.654-1.57-8.616-5.1-14.952-5.1a21.7 21.7 0 0 1-7.308-1.2 3.852 3.852 0 0 0 1.327 3.346c3.514 2.168 8.13.8 10.018 1.346s4.878 4.074 15.176 5.42 12.599-.261 13.42-1.887z" class="cls-4" transform="translate(-147.203 -382.905)"/>
                <path id="Trazado_5744" d="M181.641 395.818a51.929 51.929 0 0 1-6.646-.5c-7.82-1.022-11.524-3.269-13.737-4.613a8.415 8.415 0 0 0-1.576-.837 9.928 9.928 0 0 0-2.433-.069c-2.217.082-5.259.2-7.818-1.377a4.817 4.817 0 0 1-1.764-4.243.933.933 0 0 1 1.234-.783 21.25 21.25 0 0 0 6.994 1.144c3.841 0 6.188 1.226 8.674 2.523a25.975 25.975 0 0 0 6.5 2.607 47.183 47.183 0 0 0 17.38 1.641.935.935 0 0 1 1.017.843 2.445 2.445 0 0 1 0 .437.909.909 0 0 1-.1.335c-.75 1.484-2.348 2.892-7.725 2.892zm-23.12-7.928a6.2 6.2 0 0 1 1.677.178 9.056 9.056 0 0 1 2.028 1.035c2.09 1.267 5.583 3.387 13.012 4.357 6.45.847 9.5.467 10.986-.129a48.835 48.835 0 0 1-15.627-1.86 27.815 27.815 0 0 1-6.895-2.755 15.679 15.679 0 0 0-8.016-2.31 22.541 22.541 0 0 1-6.041-.824 2.89 2.89 0 0 0 .884 1.329c1.957 1.194 4.56 1.093 6.648 1.017.477-.02.923-.039 1.344-.039z" class="cls-6" transform="translate(-147.638 -383.34)"/>
            </g>
            <g id="Grupo_1549" transform="translate(32.253 71.302)">
                <path id="Trazado_5745" d="M166.123 185.4s2.037 13.719-.579 19.251-10.8 6.13-17.793 7.308-23.045 7.289-21.307 23.041 21.886 49.884 21.886 59.509-6.13 14.578-12.84 33.25-5.831 53.4-3.738 75.863a237.224 237.224 0 0 0 8.747 43.753s-16.821 27.138-24.3 38.8-33.639 62.448-33.639 62.448 0 1.738 4.074 2.916a25.572 25.572 0 0 0 8.766.579s50.164-60.388 59.509-70.592S173 453.491 174.16 445.342s-.28-58.051-.28-58.051 10.485 25.082 18.69 37.922a269.244 269.244 0 0 1 13.681 24.3 146.811 146.811 0 0 0 0 31.773c2.037 14.578.318 61.416 2.355 65.21s9.943 2.205 11.7.467 2.579-13.083 2.579-13.083 3.5-35.511 5.607-52.22 5.607-30.932 4.392-34.726-8.467-44.352-14.018-63.546-22.428-55.136-26.166-64.462-5.85-17.812-5.252-20.727 11.962-20.41 14.952-25.082a23.058 23.058 0 0 0 .579-20.709c-3.5-7.588 0-17.812-.579-23.923s-9.625-8.766-14.3-11.083-6.429-7.588-6.429-11.962a33.654 33.654 0 0 1 2.635-10.691s-14.388-9.349-18.183-9.349z" class="cls-4" transform="translate(-81.625 -184.465)"/>
                <path id="Trazado_5746" d="M93.11 553.633a26.386 26.386 0 0 1-6.261-.753c-4.559-1.316-4.788-3.415-4.788-3.822a.923.923 0 0 1 .1-.428c.262-.508 26.271-50.953 33.685-62.518 6.923-10.8 22.056-35.19 24.069-38.432a238.776 238.776 0 0 1-8.663-43.522c-2.351-25.241-2.59-58.524 3.788-76.276a147.888 147.888 0 0 1 7.9-17.972c2.94-5.826 4.884-9.676 4.884-14.961 0-4.359-4.557-14.5-9.381-25.228-5.422-12.064-11.567-25.74-12.5-34.179-1.744-15.8 13.681-22.652 22.08-24.069.819-.138 1.654-.267 2.493-.4 6.151-.957 12.511-1.946 14.61-6.386 2.467-5.215.52-18.58.5-18.714a.936.936 0 0 1 .925-1.071c3.957 0 17.2 8.523 18.694 9.495a.932.932 0 0 1 .349 1.153 32.728 32.728 0 0 0-2.562 10.4c0 3.888 1.555 8.891 5.914 11.051.83.411 1.8.834 2.833 1.284 4.833 2.1 11.453 4.988 11.98 10.549a40.935 40.935 0 0 1-.417 7.844c-.585 5.2-1.247 11.083.914 15.776a24.1 24.1 0 0 1-.6 21.542l-1.006 1.572c-3.3 5.136-13.345 20.767-13.855 23.256-.486 2.368 1.146 10.063 5.205 20.191.977 2.443 2.854 6.7 5.228 12.089 6.715 15.236 16.86 38.264 20.968 52.461 3.669 12.691 8.078 34.683 11 49.237 1.462 7.287 2.615 13.042 3.013 14.285.826 2.579-.236 8.938-1.706 17.739-.869 5.2-1.852 11.1-2.648 17.389-2.086 16.5-5.57 51.839-5.6 52.192-.14 1.931-.944 11.767-2.854 13.657-1.377 1.366-5.426 2.516-8.775 2.015a5.641 5.641 0 0 1-4.4-2.7c-1.082-2.013-1.2-12.453-1.291-29.321-.077-13.606-.164-29.029-1.166-36.2a147.975 147.975 0 0 1-.032-31.73 269.883 269.883 0 0 0-13.513-23.968c-6.057-9.478-13.41-25.738-16.836-33.579.331 12.823 1.093 46.636.14 53.34-1.2 8.433-9.973 26.291-19.486 36.683-9.224 10.07-58.978 69.953-59.479 70.559a.931.931 0 0 1-.621.331 26.493 26.493 0 0 1-2.832.139zm-9.123-4.459c.174.312.85 1.183 3.342 1.9a24.538 24.538 0 0 0 8.033.587c3.818-4.594 50.375-60.6 59.292-70.333 9.143-9.982 17.877-27.684 19.015-35.683 1.134-7.977-.275-57.4-.29-57.893a.934.934 0 0 1 1.8-.387c.1.249 10.549 25.155 18.615 37.776a271.85 271.85 0 0 1 13.732 24.385.936.936 0 0 1 .092.518 146.141 146.141 0 0 0 0 31.571c1.017 7.267 1.1 22.755 1.181 36.421.071 12.534.151 26.74 1.067 28.446a4 4 0 0 0 3.035 1.74c2.811.413 6.3-.617 7.185-1.5.931-.919 1.921-7.2 2.306-12.487.035-.379 3.521-35.739 5.611-52.267.8-6.325 1.789-12.242 2.66-17.464 1.318-7.9 2.458-14.715 1.77-16.862-.43-1.342-1.536-6.856-3.065-14.487-2.912-14.522-7.312-36.468-10.96-49.084-4.071-14.077-14.188-37.036-20.882-52.228-2.381-5.405-4.263-9.674-5.254-12.149-3.822-9.538-5.953-18.081-5.3-21.262.512-2.493 7.422-13.476 14.113-23.89l.968-1.506a22.21 22.21 0 0 0 .521-19.81c-2.383-5.17-1.69-11.334-1.078-16.772a40.025 40.025 0 0 0 .415-7.457c-.424-4.463-6.214-6.986-10.866-9.012-1.067-.465-2.063-.9-2.918-1.323-5.125-2.542-6.949-8.278-6.949-12.8a34.577 34.577 0 0 1 2.407-10.33c-5.074-3.254-12.556-7.618-15.931-8.581.441 3.585 1.43 13.756-.826 18.526-2.523 5.336-9.381 6.4-16.012 7.435-.832.129-1.66.258-2.471.394-7.8 1.314-22.123 7.609-20.533 22.021.9 8.147 6.981 21.679 12.349 33.618 5.119 11.393 9.543 21.234 9.543 25.994 0 5.732-2.133 9.956-5.084 15.8a146.1 146.1 0 0 0-7.811 17.763c-6.276 17.464-6.02 50.431-3.688 75.459a236.733 236.733 0 0 0 8.711 43.574.933.933 0 0 1-.1.761c-.168.271-16.911 27.276-24.3 38.812-7.07 11.027-31.232 57.769-33.445 62.066z" class="cls-6" transform="translate(-82.06 -184.9)"/>
            </g>
            <path id="Trazado_5747" d="M148.406 225.729a.933.933 0 0 1-.869-.592 97.391 97.391 0 0 1-3.869-12.1.934.934 0 0 1 1.813-.452 95.733 95.733 0 0 0 3.794 11.864.934.934 0 0 1-.527 1.211.918.918 0 0 1-.342.069z" class="cls-6" transform="translate(3.707 -90.151)"/>
            <path id="Trazado_5748" d="M127.829 239.559a8.29 8.29 0 0 1-1.677-.131.934.934 0 0 1 .4-1.826c.082.019 5.207.964 15.219-4.033a.934.934 0 0 1 .834 1.671c-7.461 3.723-12.387 4.319-14.776 4.319z" class="cls-6" transform="translate(-12.126 -71.39)"/>
            <g id="Grupo_1550" transform="translate(32.253 202.637)">
                <path id="Trazado_5749" d="M218.923 322.132c-5.289-18.391-20.97-51.977-25.662-63.06-22.428 8.411-43.4 1.234-53.248-3.4-1.42 3.1-2.953 6.691-4.523 11.027-6.71 18.69-5.831 53.4-3.738 75.863a237.224 237.224 0 0 0 8.747 43.753s-16.821 27.138-24.3 38.8-33.639 62.443-33.639 62.443 0 1.738 4.074 2.916a25.575 25.575 0 0 0 8.766.579s50.164-60.388 59.509-70.592S173 392.425 174.16 384.277s-.28-58.051-.28-58.051 10.485 25.082 18.69 37.922a269.244 269.244 0 0 1 13.681 24.3 146.811 146.811 0 0 0 0 31.773c2.037 14.578.318 61.416 2.355 65.21s9.943 2.205 11.7.467 2.579-13.083 2.579-13.083 3.5-35.511 5.607-52.22 5.607-30.932 4.392-34.726-8.41-44.486-13.961-63.737z" class="cls-6" transform="translate(-81.625 -254.735)"/>
                <path id="Trazado_5750" d="M93.11 492.568a26.386 26.386 0 0 1-6.261-.753c-4.559-1.316-4.788-3.415-4.788-3.822a.923.923 0 0 1 .1-.428c.262-.508 26.271-50.953 33.685-62.518 6.923-10.8 22.054-35.186 24.069-38.432a238.776 238.776 0 0 1-8.663-43.522c-2.349-25.23-2.589-58.509 3.788-76.276 1.366-3.77 2.813-7.3 4.553-11.1a.932.932 0 0 1 1.248-.456c10.186 4.794 30.556 11.607 52.521 3.372a.928.928 0 0 1 1.189.51c1.019 2.407 2.559 5.878 4.4 10.023 6.828 15.406 17.146 38.69 21.3 53.143 3.671 12.726 8.055 34.784 10.956 49.379 1.452 7.31 2.6 13.085 3 14.328.826 2.579-.236 8.938-1.706 17.739-.869 5.2-1.852 11.1-2.648 17.389-2.086 16.5-5.57 51.839-5.6 52.192-.14 1.931-.942 11.767-2.852 13.657-1.379 1.366-5.428 2.527-8.777 2.013a5.639 5.639 0 0 1-4.4-2.7c-1.082-2.013-1.2-12.453-1.291-29.321-.077-13.606-.164-29.029-1.166-36.2a147.975 147.975 0 0 1-.032-31.73 269.883 269.883 0 0 0-13.513-23.968c-6.056-9.478-13.41-25.738-16.836-33.579.331 12.82 1.093 46.634.14 53.34-1.2 8.433-9.973 26.291-19.486 36.683-9.224 10.07-58.978 69.953-59.479 70.559a.931.931 0 0 1-.621.331 26.493 26.493 0 0 1-2.83.147zm-9.123-4.459c.174.312.85 1.183 3.342 1.9a24.459 24.459 0 0 0 8.033.587C99.18 486 145.737 430 154.654 420.263c9.143-9.982 17.877-27.684 19.015-35.683 1.134-7.977-.275-57.4-.29-57.893a.934.934 0 0 1 1.8-.387c.1.249 10.549 25.155 18.615 37.776a271.85 271.85 0 0 1 13.732 24.385.936.936 0 0 1 .092.518 146.141 146.141 0 0 0 0 31.571c1.017 7.267 1.1 22.755 1.181 36.421.071 12.534.151 26.74 1.067 28.446a4 4 0 0 0 3.035 1.74c2.811.413 6.3-.617 7.186-1.5.929-.919 1.919-7.2 2.3-12.487.035-.379 3.521-35.739 5.611-52.267.8-6.325 1.789-12.242 2.66-17.464 1.318-7.9 2.458-14.715 1.77-16.862-.43-1.342-1.531-6.874-3.052-14.531-2.9-14.565-7.269-36.575-10.917-49.226-4.123-14.332-14.823-38.477-21.219-52.9-1.643-3.708-3.048-6.878-4.058-9.233-21.679 7.781-41.7 1.482-52.274-3.342-1.548 3.433-2.861 6.667-4.106 10.1-6.272 17.477-6.018 50.439-3.686 75.458a236.733 236.733 0 0 0 8.711 43.574.933.933 0 0 1-.1.761c-.168.271-16.911 27.276-24.3 38.812-7.065 11.02-31.227 57.762-33.44 62.059z" class="cls-6" transform="translate(-82.06 -255.17)"/>
            </g>
            <g id="Grupo_1551" transform="translate(248.124 216.823)">
                <path id="Trazado_5751" d="M232.824 297.014V293.2h3.2v-29.94h-37.945v29.94h3.2v3.813h-3.219v6.953h12.317v-2.336h13.345v2.336h12.317v-6.953z" class="cls-1" transform="translate(-197.126 -262.326)"/>
                <path id="Trazado_5752" d="M236.473 305.336h-12.317a.935.935 0 0 1-.934-.935V303h-11.476v1.4a.935.935 0 0 1-.935.935h-12.316a.935.935 0 0 1-.935-.935v-6.953a.935.935 0 0 1 .935-.935h2.28v-1.944h-2.261a.932.932 0 0 1-.935-.935v-29.938a.932.932 0 0 1 .935-.935h37.941a.934.934 0 0 1 .935.935v29.942a.934.934 0 0 1-.935.935h-2.261v1.944h2.28a.935.935 0 0 1 .935.935v6.949a.935.935 0 0 1-.936.936zm-11.382-1.869h10.448v-5.084h-2.28a.934.934 0 0 1-.935-.934v-3.813a.935.935 0 0 1 .935-.935h2.261v-28.072h-36.072V292.7h2.261a.935.935 0 0 1 .935.935v3.813a.934.934 0 0 1-.935.934h-2.28v5.084h10.448v-1.4a.935.935 0 0 1 .934-.935h13.345a.935.935 0 0 1 .935.935z" class="cls-6" transform="translate(-197.56 -262.76)"/>
            </g>
            <g id="Grupo_1552" transform="translate(78.979 207.852)">
                <path id="Trazado_5753" d="M107.56 258.479h220.095a3.327 3.327 0 0 1 3.327 3.327v6.694a3.327 3.327 0 0 1-3.327 3.327H107.56v-13.348z" class="cls-1" transform="translate(-106.625 -257.525)"/>
                <path id="Trazado_5754" d="M328.089 273.192H107.994a.934.934 0 0 1-.935-.935v-13.362a.954.954 0 0 1 1.12-.916h219.91a4.265 4.265 0 0 1 4.261 4.261v6.691a4.265 4.265 0 0 1-4.261 4.261zm-219.16-1.869h219.16a2.4 2.4 0 0 0 2.392-2.392v-6.691a2.4 2.4 0 0 0-2.392-2.392h-219.16z" class="cls-6" transform="translate(-107.06 -257.96)"/>
            </g>
            <g id="Grupo_1553" transform="translate(221.696 205.871)">
                <rect id="Rectángulo_857" width="17.101" height="17.363" class="cls-1" rx=".99" transform="translate(.935 .935)"/>
                <path id="Trazado_5755" d="M199.606 276.132H186.2a2.788 2.788 0 0 1-2.785-2.785v-13.662a2.787 2.787 0 0 1 2.785-2.785h13.4a2.788 2.788 0 0 1 2.785 2.785v13.662a2.789 2.789 0 0 1-2.779 2.785zm-13.4-17.363a.917.917 0 0 0-.916.916v13.662a.916.916 0 0 0 .916.916h13.4a.916.916 0 0 0 .916-.916v-13.662a.917.917 0 0 0-.916-.916z" class="cls-6" transform="translate(-183.42 -256.9)"/>
            </g>
            <g id="Grupo_1554" transform="translate(16.824 179.804)">
                <circle id="Elipse_677" cx="34.745" cy="34.745" r="34.745" class="cls-1" transform="translate(.942 .943)"/>
                <path id="Trazado_5756" d="M109.511 314.325a35.683 35.683 0 0 1-35.229-41.449l.921.151-.921-.151a35.679 35.679 0 1 1 35.229 41.449zm-.092-69.5a33.826 33.826 0 0 0-33.293 28.355 33.81 33.81 0 1 0 38.829-27.9 34.239 34.239 0 0 0-5.536-.456z" class="cls-6" transform="translate(-73.805 -242.953)"/>
            </g>
            <g id="Grupo_1555" transform="translate(37.543 191.498)">
                <path id="Trazado_5757" d="M106.566 272.68a12.148 12.148 0 0 0 6.9-10.616c0-6.822-6.28-12.354-14.036-12.354s-14.04 5.607-14.04 12.354a12.113 12.113 0 0 0 6.9 10.616 12.168 12.168 0 0 0-6.9 10.635c0 6.822 6.28 12.354 14.036 12.354s14.036-5.607 14.036-12.354a12.2 12.2 0 0 0-6.896-10.635z" class="cls-4" transform="translate(-84.456 -248.776)"/>
                <path id="Trazado_5758" d="M99.861 297.038c-8.255 0-14.971-5.962-14.971-13.289a13.059 13.059 0 0 1 5.925-10.633 12.976 12.976 0 0 1-5.925-10.594c0-7.353 6.715-13.313 14.971-13.313s14.971 5.96 14.971 13.289a13.038 13.038 0 0 1-5.93 10.62 13.092 13.092 0 0 1 5.93 10.6c0 7.358-6.716 13.32-14.971 13.32zm0-45.959c-7.224 0-13.1 5.123-13.1 11.42a11.12 11.12 0 0 0 6.364 9.773.934.934 0 0 1 0 1.686 11.187 11.187 0 0 0-6.366 9.818c0 6.272 5.878 11.393 13.1 11.393s13.1-5.121 13.1-11.42a11.228 11.228 0 0 0-6.368-9.794.934.934 0 0 1 0-1.684 11.167 11.167 0 0 0 6.366-9.8c.006-6.271-5.873-11.392-13.096-11.392z" class="cls-6" transform="translate(-84.89 -249.21)"/>
            </g>
            <g id="Grupo_1556" transform="translate(193.922 211.806)">
                <path id="Trazado_5759" d="M169.06 270.29s10.878 4.6 14.242 4.6 7.252-3.383 9.177-7.476 1.869-6.037.729-5.065l-2.411 1.869s1.869-4.093-.243-3.607a5.912 5.912 0 0 0-3.383 2.9s-.243-3.626-2.168-1.869a22.082 22.082 0 0 0-3.383 3.869s-.243-4.579-1.458-3.383-5.775 7.719-5.775 7.719z" class="cls-4" transform="translate(-168.125 -259.647)"/>
                <path id="Trazado_5760" d="M183.737 276.251c-3.454 0-13.474-4.194-14.606-4.673a.935.935 0 0 1 .286-1.792l4.891-.409c1.039-1.478 4.519-6.394 5.633-7.491a1.368 1.368 0 0 1 1.5-.381c.247.1.873.338 1.26 2.052a23.07 23.07 0 0 1 2.112-2.183 2 2 0 0 1 2.176-.607 2.07 2.07 0 0 1 1.035 1.032 6.833 6.833 0 0 1 2.673-1.648 1.7 1.7 0 0 1 1.843.467 2.184 2.184 0 0 1 .383 1.536l.151-.118a1.339 1.339 0 0 1 1.772-.2c.351.267 1.419 1.084-1.084 6.4-2.187 4.647-6.401 8.015-10.025 8.015zm-10.24-4.93c3.65 1.407 8.386 3.061 10.24 3.061 2.841 0 6.5-3.046 8.33-6.938a20.212 20.212 0 0 0 1.252-3.237l-1.516 1.176a.935.935 0 0 1-1.422-1.125 8.237 8.237 0 0 0 .678-2.239 4.883 4.883 0 0 0-2.624 2.344.935.935 0 0 1-1.762-.364 3.907 3.907 0 0 0-.366-1.449c-.035.039-.123.1-.239.206a21.375 21.375 0 0 0-3.243 3.708.924.924 0 0 1-1.022.37.936.936 0 0 1-.682-.85 13.093 13.093 0 0 0-.316-2.263c-1.318 1.579-4.116 5.514-5.216 7.085a.931.931 0 0 1-.688.4z" class="cls-6" transform="translate(-168.56 -260.075)"/>
            </g>
            <g id="Grupo_1557" transform="translate(202.146 216.697)">
                <path id="Trazado_5761" d="M177.8 263.19s-.729 5.794-4.336 6.766" class="cls-4" transform="translate(-172.525 -262.26)"/>
                <path id="Trazado_5762" d="M173.893 271.323a.935.935 0 0 1-.241-1.837c2.955-.8 3.645-5.928 3.652-5.979a.956.956 0 0 1 1.045-.811.937.937 0 0 1 .809 1.045c-.034.262-.854 6.428-5.02 7.549a.931.931 0 0 1-.245.033z" class="cls-6" transform="translate(-172.96 -262.692)"/>
            </g>
            <g id="Grupo_1558" transform="translate(207.211 214.768)">
                <path id="Trazado_5763" d="M180.992 262.16s-1.869 9.158-4.822 10.616" class="cls-4" transform="translate(-175.235 -261.226)"/>
                <path id="Trazado_5764" d="M176.6 274.145a.934.934 0 0 1-.413-1.772c1.848-.916 3.631-6.6 4.319-9.964a.935.935 0 1 1 1.832.372c-.2.983-2.054 9.653-5.325 11.266a.93.93 0 0 1-.413.098z" class="cls-6" transform="translate(-175.67 -261.66)"/>
            </g>
            <g id="Grupo_1559" transform="translate(211.791 215.476)">
                <path id="Trazado_5765" d="M182.489 262.54a52.129 52.129 0 0 1-3.869 9.663" class="cls-4" transform="translate(-177.686 -261.604)"/>
                <path id="Trazado_5766" d="M179.054 273.573a.945.945 0 0 1-.432-.106.933.933 0 0 1-.4-1.26 51.176 51.176 0 0 0 3.8-9.491.935.935 0 0 1 1.8.52 53.077 53.077 0 0 1-3.938 9.835.933.933 0 0 1-.83.502z" class="cls-6" transform="translate(-178.12 -262.039)"/>
            </g>
            <g id="Grupo_1560" transform="translate(111.349 71.302)">
                <path id="Trazado_5767" d="M150.635 216.837a13.27 13.27 0 0 1-5.831-11.588 33.608 33.608 0 0 1 2.729-10.5s-14.3-9.345-18.092-9.345c0 0 2.037 13.719-.579 19.251a8.787 8.787 0 0 1-3.981 3.962 111.4 111.4 0 0 0 13.919 26.162c5.256 6.598 7.817-7.308 11.835-17.942z" class="cls-4" transform="translate(-123.945 -184.465)"/>
                <path id="Trazado_5768" d="M141.831 237.856c-1.118 0-2.233-.691-3.323-2.061a112.429 112.429 0 0 1-14.07-26.422.935.935 0 0 1 .464-1.164 7.894 7.894 0 0 0 3.557-3.54c2.458-5.194.512-18.563.492-18.7a.934.934 0 0 1 .925-1.071c3.959 0 17.116 8.525 18.6 9.5a.936.936 0 0 1 .346 1.161 32.587 32.587 0 0 0-2.654 10.212 12.4 12.4 0 0 0 5.424 10.728.934.934 0 0 1 .351 1.1c-.845 2.235-1.628 4.626-2.385 6.938-2.329 7.108-4.166 12.72-7.241 13.274a2.688 2.688 0 0 1-.486.045zm-15.358-28.381A110.49 110.49 0 0 0 140 234.668c.514.645 1.3 1.439 1.989 1.306 1.977-.357 4.007-6.551 5.8-12.016.69-2.1 1.4-4.271 2.162-6.343a14.3 14.3 0 0 1-5.639-11.973 34.524 34.524 0 0 1 2.493-10.108c-5.039-3.252-12.468-7.612-15.832-8.573.441 3.585 1.43 13.754-.826 18.524a9.81 9.81 0 0 1-3.674 3.991z" class="cls-6" transform="translate(-124.38 -184.9)"/>
            </g>
            <g id="Grupo_1561" transform="translate(47.373 99.749)">
                <path id="Trazado_5769" d="M136.306 200.62a23.344 23.344 0 0 0-16.821 12.317c-5.757 11.1-30.913 61.49-28.764 64.5 12.223 17.195 56.687 29.568 61.21 34.091a102.77 102.77 0 0 0 14.821 12.8c4.523 2.878 13.55 1.645 15.2.822s2.878-4.523 0-4.523a4.805 4.805 0 0 1-4.747-3.738c-.411-1.645 4.523 1.645 6.99.411s-5.514-5.738-7.981-7.794-4.523-4.915-7.812-4.915h-9.476s-15.139-10.971-24.3-19.139a139.04 139.04 0 0 0-23.194-16.933l27.755-45.66" class="cls-4" transform="translate(-89.767 -199.686)"/>
                <path id="Trazado_5770" d="M175.274 327.485c-3.041 0-6.343-.471-8.642-1.934a103.962 103.962 0 0 1-14.993-12.943c-1.3-1.3-7.117-3.665-13.859-6.409-15.513-6.314-38.956-15.857-47.439-27.787-2.91-4.074 28.379-64.86 28.7-65.471a24.4 24.4 0 0 1 17.494-12.808.935.935 0 0 1 .314 1.843A22.524 22.524 0 0 0 120.7 213.8c-10.242 19.757-29.684 60.122-28.777 63.636 8.111 11.382 31.252 20.8 46.565 27.033 7.5 3.05 12.913 5.256 14.49 6.831a102.184 102.184 0 0 0 14.7 12.7c4.147 2.639 12.825 1.46 14.238.751a2.668 2.668 0 0 0 1.183-2.368c-.032-.14-.129-.389-.839-.385a5.765 5.765 0 0 1-5.586-4.467 1.242 1.242 0 0 1 .323-1.265c.645-.607 1.574-.316 2.977.123 1.3.409 3.069.968 4.074.561-.5-.976-3.686-3.175-5.265-4.267-1.091-.755-2.121-1.467-2.787-2.022-.578-.482-1.136-1.006-1.691-1.531-1.727-1.63-3.357-3.168-5.523-3.168H159.3a.936.936 0 0 1-.549-.178c-.151-.11-15.281-11.093-24.37-19.2a138.254 138.254 0 0 0-23.041-16.823.936.936 0 0 1-.329-1.293l27.755-45.66a.934.934 0 0 1 1.6.972L113.1 268.63a140.08 140.08 0 0 1 22.533 16.57c8.381 7.474 21.987 17.449 23.974 18.9h9.173c2.908 0 4.889 1.869 6.807 3.678.527.5 1.054 1 1.6 1.454.6.5 1.6 1.191 2.654 1.919 3.889 2.69 6.241 4.439 6.127 6.065a1.631 1.631 0 0 1-.979 1.362c-1.662.826-3.927.118-5.579-.4l-.6-.183a3.858 3.858 0 0 0 3.51 2.14 2.439 2.439 0 0 1 2.6 1.826 4.449 4.449 0 0 1-2.168 4.467 22.284 22.284 0 0 1-7.478 1.057z" class="cls-6" transform="translate(-90.15 -200.12)"/>
            </g>
            <g id="Grupo_1562" transform="translate(47.202 144.017)">
                <path id="Trazado_5771" d="M176.229 288.94c-2.467-2.056-4.523-4.915-7.812-4.915h-9.477s-15.139-10.971-24.3-19.139a139.041 139.041 0 0 0-23.194-16.933l11.1-18.279a37.139 37.139 0 0 0-18.8-5.364c-7.473 15.59-14.183 30.99-13.081 32.614 12.223 17.195 56.687 29.568 61.21 34.091a102.772 102.772 0 0 0 14.821 12.8c4.523 2.878 13.55 1.645 15.2.822s2.878-4.523 0-4.523a4.805 4.805 0 0 1-4.747-3.738c-.411-1.645 4.523 1.645 6.99.411s-5.439-5.772-7.91-7.847z" class="cls-4" transform="translate(-89.634 -223.367)"/>
                <path id="Trazado_5772" d="M175.261 306.977c-3.039 0-6.343-.471-8.642-1.934a103.9 103.9 0 0 1-14.994-12.943c-1.3-1.3-7.117-3.665-13.859-6.409-15.513-6.314-38.958-15.857-47.439-27.788-.5-.742-1.813-2.671 13-33.558a.836.836 0 0 1 .854-.531 38.113 38.113 0 0 1 19.275 5.5.934.934 0 0 1 .314 1.286l-10.609 17.468a140.225 140.225 0 0 1 22.529 16.565c8.381 7.474 21.987 17.447 23.976 18.9h9.171c2.908 0 4.889 1.869 6.805 3.678.527.5 1.056 1 1.605 1.454.594.5 1.572 1.187 2.607 1.914 3.876 2.719 6.22 4.491 6.1 6.125a1.64 1.64 0 0 1-.983 1.362c-1.656.828-3.923.12-5.581-.4-.185-.058-.4-.123-.6-.183a4.009 4.009 0 0 0 3.51 2.14 2.436 2.436 0 0 1 2.6 1.826 4.446 4.446 0 0 1-2.166 4.467 22.285 22.285 0 0 1-7.473 1.061zm-70.5-81.283c-9.364 19.563-13.2 29.788-12.84 31.248 8.1 11.367 31.242 20.785 46.555 27.018 7.5 3.05 12.913 5.256 14.489 6.831a102.143 102.143 0 0 0 14.7 12.7c4.149 2.641 12.821 1.462 14.236.751a2.665 2.665 0 0 0 1.185-2.368c-.032-.14-.15-.376-.839-.385a5.762 5.762 0 0 1-5.585-4.465 1.241 1.241 0 0 1 .321-1.267c.643-.606 1.572-.314 2.975.123 1.308.411 3.084.963 4.086.557-.477-.977-3.673-3.222-5.252-4.33-1.071-.753-2.08-1.462-2.738-2.015-.578-.48-1.134-1.006-1.688-1.529-1.727-1.628-3.357-3.166-5.523-3.166h-9.476a.93.93 0 0 1-.548-.178c-.151-.112-15.283-11.093-24.372-19.2A138.359 138.359 0 0 0 111.4 249.2a.936.936 0 0 1-.329-1.293l10.608-17.468a36.234 36.234 0 0 0-16.923-4.745z" class="cls-6" transform="translate(-90.058 -223.805)"/>
            </g>
            <g id="Grupo_1563" transform="translate(103.891 27.81)">
                <path id="Trazado_5773" d="M164.906 185.493c-1.458-2.916-1.458-5.252-.878-9.345s-2.916-14.018-2.916-14.018c-3.57 6.168-13.887 9.831-18.447 11.214-5.028 1.533 2.318 5.009 1.533 9.663s-10.822 7.345-10.822 7.345-2.934-6.037-7.009-6.037-6.971 9.345-4.654 14.3a6.615 6.615 0 0 0 7.308 3.831s-.28 8.766 5.252 11.382a102.78 102.78 0 0 0 18.391 6.71c3.5.579 6.99-1.159 8.448-6.411a119.883 119.883 0 0 0 2.336-16.055 37.641 37.641 0 0 0 6.71-5.607c1.402-2.02-3.794-4.057-5.252-6.972z" class="cls-4" transform="translate(-119.954 -161.194)"/>
                <path id="Trazado_5774" d="M154.418 222.018a8.959 8.959 0 0 1-1.473-.125A103.986 103.986 0 0 1 134.3 215.1c-4.854-2.3-5.648-8.622-5.766-11.177a7.506 7.506 0 0 1-7.244-4.5c-1.781-3.8-.712-9.588 1.3-12.758 1.187-1.865 2.641-2.85 4.205-2.85 3.747 0 6.506 4.166 7.474 5.865 2.992-.92 8.919-3.334 9.435-6.394.288-1.71-.843-3.346-1.843-4.788-.923-1.334-1.8-2.592-1.363-3.837a3.158 3.158 0 0 1 2.321-1.776c4.256-1.291 14.517-4.923 17.913-10.79a.934.934 0 0 1 1.69.159c.146.415 3.562 10.19 2.959 14.459-.551 3.889-.566 6.084.789 8.8a11.221 11.221 0 0 0 2.83 2.979c1.714 1.439 3.658 3.071 2.361 4.94a38.428 38.428 0 0 1-6.581 5.6 121.8 121.8 0 0 1-2.319 15.726c-1.292 4.651-4.238 7.26-8.043 7.26zm-24.962-20.073a.938.938 0 0 1 .935.964c0 .08-.189 8.188 4.717 10.508a102.123 102.123 0 0 0 18.227 6.65c3.432.568 6.136-1.523 7.312-5.757a119.8 119.8 0 0 0 2.306-15.877.935.935 0 0 1 .419-.71 36.514 36.514 0 0 0 6.543-5.467c.236-.359-1.013-1.407-2.116-2.333a12.526 12.526 0 0 1-3.293-3.577c-1.57-3.14-1.562-5.693-.968-9.895.372-2.633-1.2-8.39-2.286-11.816-4.211 5.259-12.827 8.506-17.881 10.037-.968.3-1.088.572-1.1.6-.121.348.6 1.4 1.133 2.161 1.142 1.65 2.564 3.7 2.149 6.162-.86 5.1-10.414 7.8-11.5 8.093a.935.935 0 0 1-1.082-.493c-.748-1.533-3.316-5.512-6.168-5.512-1.187 0-2.155 1.245-2.628 1.985-1.757 2.764-2.652 7.837-1.179 10.982a5.659 5.659 0 0 0 6.285 3.31.916.916 0 0 1 .175-.015z" class="cls-6" transform="translate(-120.389 -161.629)"/>
            </g>
            <path id="Trazado_5775" d="M142.478 176.047c0 1.607-.523 2.9-1.159 2.9s-1.159-1.29-1.159-2.9.523-2.9 1.159-2.9 1.159 1.293 1.159 2.9z" class="cls-6" transform="translate(.683 -123.808)"/>
            <path id="Trazado_5776" d="M139.144 174.8a.934.934 0 0 1-.7-1.555c.361-.406 3.6-3.931 6.42-2.975a.936.936 0 0 1-.6 1.772c-1.3-.443-3.54 1.456-4.422 2.447a.932.932 0 0 1-.698.311z" class="cls-6" transform="translate(-1.011 -126.452)"/>
            <path id="Trazado_5777" d="M143.412 187.533a9.386 9.386 0 0 1-6.351-2.471.935.935 0 0 1 1.267-1.376 7.515 7.515 0 0 0 7.226 1.662.934.934 0 1 1 .54 1.789 9.212 9.212 0 0 1-2.682.396z" class="cls-6" transform="translate(-2.272 -114.866)"/>
            <g id="Grupo_1564" transform="translate(25.673 434.527)">
                <path id="Trazado_5778" d="M85.753 379.74s-6.971 13.98-6.71 15.887 14.093 11.924 20.557 15.438 18.167 4.074 17.344-.8-11.924-8.13-14.634-15.457a118.489 118.489 0 0 1-3.738-11.569 23.957 23.957 0 0 1-12.819-3.499z" class="cls-4" transform="translate(-78.107 -378.807)"/>
                <path id="Trazado_5779" d="M111.3 415.182a26.7 26.7 0 0 1-11.713-2.863c-4.835-2.628-20.662-13.4-21.038-16.13-.273-1.981 4.663-12.15 6.8-16.43a.93.93 0 0 1 .576-.482.94.94 0 0 1 .746.1 23.06 23.06 0 0 0 12.322 3.359.872.872 0 0 1 .916.693 117.493 117.493 0 0 0 3.71 11.478c1.334 3.611 5 6.269 8.239 8.612 3.215 2.333 5.99 4.344 6.442 7.022a3.255 3.255 0 0 1-1.4 3.327 9.941 9.941 0 0 1-5.6 1.314zm-24.723-33.7c-3.149 6.381-6.228 13.324-6.175 14.466.669 1.71 13.44 11.121 20.079 14.728 4.876 2.65 12.758 3.508 15.333 1.667a1.391 1.391 0 0 0 .643-1.5c-.325-1.925-2.934-3.817-5.7-5.818-3.452-2.5-7.364-5.334-8.893-9.468-1.361-3.572-2.562-7.255-3.577-10.96a24.87 24.87 0 0 1-11.71-3.113z" class="cls-6" transform="translate(-78.539 -379.241)"/>
            </g>
            <g id="Grupo_1565" transform="translate(25.655 447.271)">
                <path id="Trazado_5780" d="M116.99 404.409a27.3 27.3 0 0 1-14.634-2.075C92.319 397.98 82.6 389.083 79.927 386.56a10.018 10.018 0 0 0-.9 3.2c.28 1.869 14.092 11.924 20.559 15.438s18.076 3.996 17.404-.789z" class="cls-4" transform="translate(-78.095 -385.624)"/>
                <path id="Trazado_5781" d="M111.243 409.281a26.6 26.6 0 0 1-11.666-2.83c-5.519-3-20.641-13.5-21.038-16.122a.93.93 0 0 1 0-.239 10.933 10.933 0 0 1 .979-3.493.941.941 0 0 1 .673-.521.931.931 0 0 1 .815.239c3.523 3.329 12.737 11.509 22.159 15.6a26.4 26.4 0 0 0 14.137 2.007.924.924 0 0 1 1.05.8 3.28 3.28 0 0 1-1.48 3.269 10.2 10.2 0 0 1-5.629 1.29zm-30.827-19.172c.888 1.719 13.2 10.979 20.054 14.7 4.822 2.618 12.706 3.459 15.333 1.641a1.817 1.817 0 0 0 .536-.542 28.224 28.224 0 0 1-13.928-2.282c-8.882-3.854-17.529-11.2-21.679-15.006a8.909 8.909 0 0 0-.316 1.489z" class="cls-6" transform="translate(-78.53 -386.059)"/>
            </g>
        </g>
    </g>
</svg>
