<svg width="1363" height="297" viewBox="0 0 1363 297" fill="none" xmlns="http://www.w3.org/2000/svg">
<path d="M0 15C0 6.71573 6.71573 0 15 0H37V297H15C6.71573 297 0 290.284 0 282V15Z" fill="#4C68AF"/>
<path d="M37 0H1066V297H37V0Z" fill="#F0F0F0"/>
<path d="M116.309 61.6055V62.8184C116.309 64.7637 116.045 66.5098 115.518 68.0566C114.99 69.6035 114.246 70.9219 113.285 72.0117C112.324 73.0898 111.176 73.916 109.84 74.4902C108.516 75.0645 107.045 75.3516 105.428 75.3516C103.822 75.3516 102.352 75.0645 101.016 74.4902C99.6914 73.916 98.543 73.0898 97.5703 72.0117C96.5977 70.9219 95.8418 69.6035 95.3027 68.0566C94.7754 66.5098 94.5117 64.7637 94.5117 62.8184V61.6055C94.5117 59.6484 94.7754 57.9023 95.3027 56.3672C95.8301 54.8203 96.5742 53.502 97.5352 52.4121C98.5078 51.3223 99.6562 50.4902 100.98 49.916C102.316 49.3418 103.787 49.0547 105.393 49.0547C107.01 49.0547 108.48 49.3418 109.805 49.916C111.141 50.4902 112.289 51.3223 113.25 52.4121C114.223 53.502 114.973 54.8203 115.5 56.3672C116.039 57.9023 116.309 59.6484 116.309 61.6055ZM110.982 62.8184V61.5703C110.982 60.2109 110.859 59.0156 110.613 57.9844C110.367 56.9531 110.004 56.0859 109.523 55.3828C109.043 54.6797 108.457 54.1523 107.766 53.8008C107.074 53.4375 106.283 53.2559 105.393 53.2559C104.502 53.2559 103.711 53.4375 103.02 53.8008C102.34 54.1523 101.76 54.6797 101.279 55.3828C100.811 56.0859 100.453 56.9531 100.207 57.9844C99.9609 59.0156 99.8379 60.2109 99.8379 61.5703V62.8184C99.8379 64.166 99.9609 65.3613 100.207 66.4043C100.453 67.4355 100.816 68.3086 101.297 69.0234C101.777 69.7266 102.363 70.2598 103.055 70.623C103.746 70.9863 104.537 71.168 105.428 71.168C106.318 71.168 107.109 70.9863 107.801 70.623C108.492 70.2598 109.072 69.7266 109.541 69.0234C110.01 68.3086 110.367 67.4355 110.613 66.4043C110.859 65.3613 110.982 64.166 110.982 62.8184ZM124.852 59.918V75H119.771V55.9805H124.535L124.852 59.918ZM124.148 64.8223H122.742C122.742 63.498 122.9 62.2793 123.217 61.166C123.545 60.041 124.02 59.0684 124.641 58.248C125.273 57.416 126.053 56.7715 126.979 56.3145C127.904 55.8574 128.977 55.6289 130.195 55.6289C131.039 55.6289 131.812 55.7578 132.516 56.0156C133.219 56.2617 133.822 56.6543 134.326 57.1934C134.842 57.7207 135.24 58.4121 135.521 59.2676C135.803 60.1113 135.943 61.125 135.943 62.3086V75H130.881V62.8711C130.881 62.0039 130.764 61.3359 130.529 60.8672C130.295 60.3984 129.961 60.0703 129.527 59.8828C129.105 59.6953 128.596 59.6016 127.998 59.6016C127.342 59.6016 126.768 59.7363 126.275 60.0059C125.795 60.2754 125.396 60.6504 125.08 61.1309C124.764 61.5996 124.529 62.1504 124.377 62.7832C124.225 63.416 124.148 64.0957 124.148 64.8223ZM135.469 64.2422L133.658 64.4707C133.658 63.2285 133.811 62.0742 134.115 61.0078C134.432 59.9414 134.895 59.0039 135.504 58.1953C136.125 57.3867 136.893 56.7598 137.807 56.3145C138.721 55.8574 139.775 55.6289 140.971 55.6289C141.885 55.6289 142.717 55.7637 143.467 56.0332C144.217 56.291 144.855 56.707 145.383 57.2812C145.922 57.8438 146.332 58.582 146.613 59.4961C146.906 60.4102 147.053 61.5293 147.053 62.8535V75H141.973V62.8535C141.973 61.9746 141.855 61.3066 141.621 60.8496C141.398 60.3809 141.07 60.0586 140.637 59.8828C140.215 59.6953 139.711 59.6016 139.125 59.6016C138.516 59.6016 137.982 59.7246 137.525 59.9707C137.068 60.2051 136.688 60.5332 136.383 60.9551C136.078 61.377 135.85 61.8691 135.697 62.4316C135.545 62.9824 135.469 63.5859 135.469 64.2422ZM161.238 70.7109V62.2383C161.238 61.6289 161.139 61.1074 160.939 60.6738C160.74 60.2285 160.43 59.8828 160.008 59.6367C159.598 59.3906 159.064 59.2676 158.408 59.2676C157.846 59.2676 157.359 59.3672 156.949 59.5664C156.539 59.7539 156.223 60.0293 156 60.3926C155.777 60.7441 155.666 61.1602 155.666 61.6406H150.604C150.604 60.832 150.791 60.0645 151.166 59.3379C151.541 58.6113 152.086 57.9727 152.801 57.4219C153.516 56.8594 154.365 56.4199 155.35 56.1035C156.346 55.7871 157.459 55.6289 158.689 55.6289C160.166 55.6289 161.479 55.875 162.627 56.3672C163.775 56.8594 164.678 57.5977 165.334 58.582C166.002 59.5664 166.336 60.7969 166.336 62.2734V70.4121C166.336 71.4551 166.4 72.3105 166.529 72.9785C166.658 73.6348 166.846 74.209 167.092 74.7012V75H161.977C161.73 74.4844 161.543 73.8398 161.414 73.0664C161.297 72.2812 161.238 71.4961 161.238 70.7109ZM161.906 63.416L161.941 66.2812H159.111C158.443 66.2812 157.863 66.3574 157.371 66.5098C156.879 66.6621 156.475 66.8789 156.158 67.1602C155.842 67.4297 155.607 67.7461 155.455 68.1094C155.314 68.4727 155.244 68.8711 155.244 69.3047C155.244 69.7383 155.344 70.1309 155.543 70.4824C155.742 70.8223 156.029 71.0918 156.404 71.291C156.779 71.4785 157.219 71.5723 157.723 71.5723C158.484 71.5723 159.146 71.4199 159.709 71.1152C160.271 70.8105 160.705 70.4355 161.01 69.9902C161.326 69.5449 161.49 69.123 161.502 68.7246L162.838 70.8691C162.65 71.3496 162.393 71.8477 162.064 72.3633C161.748 72.8789 161.344 73.3652 160.852 73.8223C160.359 74.2676 159.768 74.6367 159.076 74.9297C158.385 75.2109 157.564 75.3516 156.615 75.3516C155.408 75.3516 154.312 75.1113 153.328 74.6309C152.355 74.1387 151.582 73.4648 151.008 72.6094C150.445 71.7422 150.164 70.7578 150.164 69.6562C150.164 68.6602 150.352 67.7754 150.727 67.002C151.102 66.2285 151.652 65.5781 152.379 65.0508C153.117 64.5117 154.037 64.1074 155.139 63.8379C156.24 63.5566 157.518 63.416 158.971 63.416H161.906ZM175.301 60.1289V75H170.238V55.9805H175.002L175.301 60.1289ZM181.031 55.8574L180.943 60.5508C180.697 60.5156 180.398 60.4863 180.047 60.4629C179.707 60.4277 179.396 60.4102 179.115 60.4102C178.4 60.4102 177.779 60.5039 177.252 60.6914C176.736 60.8672 176.303 61.1309 175.951 61.4824C175.611 61.834 175.354 62.2617 175.178 62.7656C175.014 63.2695 174.92 63.8438 174.896 64.4883L173.877 64.1719C173.877 62.9414 174 61.8105 174.246 60.7793C174.492 59.7363 174.85 58.8281 175.318 58.0547C175.799 57.2812 176.385 56.6836 177.076 56.2617C177.768 55.8398 178.559 55.6289 179.449 55.6289C179.73 55.6289 180.018 55.6523 180.311 55.6992C180.604 55.7344 180.844 55.7871 181.031 55.8574ZM203.109 53.7832L196.148 75H190.541L200.051 49.4062H203.619L203.109 53.7832ZM208.893 75L201.914 53.7832L201.352 49.4062H204.955L214.518 75H208.893ZM208.576 65.4727V69.6035H195.059V65.4727H208.576ZM221.637 60.1289V75H216.574V55.9805H221.338L221.637 60.1289ZM227.367 55.8574L227.279 60.5508C227.033 60.5156 226.734 60.4863 226.383 60.4629C226.043 60.4277 225.732 60.4102 225.451 60.4102C224.736 60.4102 224.115 60.5039 223.588 60.6914C223.072 60.8672 222.639 61.1309 222.287 61.4824C221.947 61.834 221.689 62.2617 221.514 62.7656C221.35 63.2695 221.256 63.8438 221.232 64.4883L220.213 64.1719C220.213 62.9414 220.336 61.8105 220.582 60.7793C220.828 59.7363 221.186 58.8281 221.654 58.0547C222.135 57.2812 222.721 56.6836 223.412 56.2617C224.104 55.8398 224.895 55.6289 225.785 55.6289C226.066 55.6289 226.354 55.6523 226.646 55.6992C226.939 55.7344 227.18 55.7871 227.367 55.8574ZM230.039 55.9805H235.119V76.1426C235.119 77.5488 234.861 78.7383 234.346 79.7109C233.83 80.6836 233.086 81.4219 232.113 81.9258C231.141 82.4297 229.963 82.6816 228.58 82.6816C228.146 82.6816 227.725 82.6582 227.314 82.6113C226.893 82.5645 226.459 82.4883 226.014 82.3828L226.031 78.498C226.312 78.5449 226.588 78.5801 226.857 78.6035C227.115 78.6387 227.379 78.6562 227.648 78.6562C228.176 78.6562 228.615 78.5684 228.967 78.3926C229.318 78.2168 229.582 77.9414 229.758 77.5664C229.945 77.2031 230.039 76.7285 230.039 76.1426V55.9805ZM229.635 51.0234C229.635 50.2852 229.893 49.6758 230.408 49.1953C230.936 48.7148 231.627 48.4746 232.482 48.4746C233.35 48.4746 234.041 48.7148 234.557 49.1953C235.072 49.6758 235.33 50.2852 235.33 51.0234C235.33 51.7617 235.072 52.3711 234.557 52.8516C234.041 53.332 233.35 53.5723 232.482 53.5723C231.627 53.5723 230.936 53.332 230.408 52.8516C229.893 52.3711 229.635 51.7617 229.635 51.0234ZM249.41 70.7109V62.2383C249.41 61.6289 249.311 61.1074 249.111 60.6738C248.912 60.2285 248.602 59.8828 248.18 59.6367C247.77 59.3906 247.236 59.2676 246.58 59.2676C246.018 59.2676 245.531 59.3672 245.121 59.5664C244.711 59.7539 244.395 60.0293 244.172 60.3926C243.949 60.7441 243.838 61.1602 243.838 61.6406H238.775C238.775 60.832 238.963 60.0645 239.338 59.3379C239.713 58.6113 240.258 57.9727 240.973 57.4219C241.688 56.8594 242.537 56.4199 243.521 56.1035C244.518 55.7871 245.631 55.6289 246.861 55.6289C248.338 55.6289 249.65 55.875 250.799 56.3672C251.947 56.8594 252.85 57.5977 253.506 58.582C254.174 59.5664 254.508 60.7969 254.508 62.2734V70.4121C254.508 71.4551 254.572 72.3105 254.701 72.9785C254.83 73.6348 255.018 74.209 255.264 74.7012V75H250.148C249.902 74.4844 249.715 73.8398 249.586 73.0664C249.469 72.2812 249.41 71.4961 249.41 70.7109ZM250.078 63.416L250.113 66.2812H247.283C246.615 66.2812 246.035 66.3574 245.543 66.5098C245.051 66.6621 244.646 66.8789 244.33 67.1602C244.014 67.4297 243.779 67.7461 243.627 68.1094C243.486 68.4727 243.416 68.8711 243.416 69.3047C243.416 69.7383 243.516 70.1309 243.715 70.4824C243.914 70.8223 244.201 71.0918 244.576 71.291C244.951 71.4785 245.391 71.5723 245.895 71.5723C246.656 71.5723 247.318 71.4199 247.881 71.1152C248.443 70.8105 248.877 70.4355 249.182 69.9902C249.498 69.5449 249.662 69.123 249.674 68.7246L251.01 70.8691C250.822 71.3496 250.564 71.8477 250.236 72.3633C249.92 72.8789 249.516 73.3652 249.023 73.8223C248.531 74.2676 247.939 74.6367 247.248 74.9297C246.557 75.2109 245.736 75.3516 244.787 75.3516C243.58 75.3516 242.484 75.1113 241.5 74.6309C240.527 74.1387 239.754 73.4648 239.18 72.6094C238.617 71.7422 238.336 70.7578 238.336 69.6562C238.336 68.6602 238.523 67.7754 238.898 67.002C239.273 66.2285 239.824 65.5781 240.551 65.0508C241.289 64.5117 242.209 64.1074 243.311 63.8379C244.412 63.5566 245.689 63.416 247.143 63.416H250.078Z" fill="#888888"/>
<path d="M106.234 100.188V140H96.6641V100.188H106.234ZM121.602 116.73V140H112.387V110.414H121.027L121.602 116.73ZM120.508 124.195L118.348 124.25C118.348 121.99 118.621 119.975 119.168 118.207C119.715 116.421 120.49 114.908 121.492 113.668C122.495 112.428 123.689 111.49 125.074 110.852C126.478 110.195 128.036 109.867 129.75 109.867C131.117 109.867 132.366 110.068 133.496 110.469C134.645 110.87 135.629 111.517 136.449 112.41C137.288 113.303 137.926 114.488 138.363 115.965C138.819 117.423 139.047 119.228 139.047 121.379V140H129.777V121.352C129.777 120.167 129.613 119.264 129.285 118.645C128.957 118.007 128.483 117.569 127.863 117.332C127.243 117.095 126.487 116.977 125.594 116.977C124.646 116.977 123.844 117.159 123.188 117.523C122.531 117.888 122.003 118.398 121.602 119.055C121.219 119.693 120.936 120.449 120.754 121.324C120.59 122.199 120.508 123.156 120.508 124.195ZM154.824 133.684L160.648 110.414H170.355L160.676 140H154.934L154.824 133.684ZM151.379 110.414L157.121 133.684L157.066 140H151.297L141.645 110.414H151.379ZM187.035 140.547C184.629 140.547 182.478 140.173 180.582 139.426C178.686 138.66 177.082 137.612 175.77 136.281C174.475 134.951 173.482 133.419 172.789 131.688C172.115 129.956 171.777 128.124 171.777 126.191V125.152C171.777 122.983 172.078 120.978 172.68 119.137C173.281 117.277 174.174 115.655 175.359 114.27C176.544 112.884 178.03 111.809 179.816 111.043C181.603 110.259 183.681 109.867 186.051 109.867C188.147 109.867 190.025 110.204 191.684 110.879C193.342 111.553 194.746 112.52 195.895 113.777C197.061 115.035 197.945 116.557 198.547 118.344C199.167 120.13 199.477 122.135 199.477 124.359V128.105H175.305V122.336H190.48V121.625C190.499 120.641 190.326 119.802 189.961 119.109C189.615 118.417 189.104 117.888 188.43 117.523C187.755 117.159 186.935 116.977 185.969 116.977C184.966 116.977 184.137 117.195 183.48 117.633C182.842 118.07 182.341 118.672 181.977 119.438C181.63 120.185 181.384 121.051 181.238 122.035C181.092 123.02 181.02 124.059 181.02 125.152V126.191C181.02 127.285 181.165 128.279 181.457 129.172C181.767 130.065 182.204 130.831 182.77 131.469C183.353 132.089 184.046 132.572 184.848 132.918C185.668 133.264 186.598 133.438 187.637 133.438C188.895 133.438 190.134 133.201 191.355 132.727C192.577 132.253 193.625 131.469 194.5 130.375L198.684 135.352C198.082 136.208 197.225 137.038 196.113 137.84C195.02 138.642 193.707 139.298 192.176 139.809C190.645 140.301 188.931 140.547 187.035 140.547ZM218.727 131.688C218.727 131.177 218.553 130.74 218.207 130.375C217.879 129.992 217.296 129.646 216.457 129.336C215.618 129.008 214.443 128.68 212.93 128.352C211.49 128.042 210.132 127.632 208.855 127.121C207.598 126.611 206.495 125.991 205.547 125.262C204.599 124.533 203.852 123.667 203.305 122.664C202.776 121.661 202.512 120.513 202.512 119.219C202.512 117.961 202.776 116.776 203.305 115.664C203.852 114.534 204.645 113.54 205.684 112.684C206.741 111.809 208.026 111.125 209.539 110.633C211.052 110.122 212.775 109.867 214.707 109.867C217.368 109.867 219.665 110.277 221.598 111.098C223.53 111.9 225.016 113.03 226.055 114.488C227.112 115.928 227.641 117.596 227.641 119.492H218.426C218.426 118.745 218.298 118.107 218.043 117.578C217.806 117.049 217.414 116.648 216.867 116.375C216.32 116.083 215.591 115.938 214.68 115.938C214.042 115.938 213.458 116.056 212.93 116.293C212.419 116.53 212.009 116.858 211.699 117.277C211.389 117.697 211.234 118.189 211.234 118.754C211.234 119.155 211.326 119.52 211.508 119.848C211.708 120.158 212.009 120.449 212.41 120.723C212.811 120.978 213.322 121.215 213.941 121.434C214.561 121.634 215.309 121.816 216.184 121.98C218.171 122.345 220.03 122.865 221.762 123.539C223.493 124.214 224.897 125.171 225.973 126.41C227.066 127.65 227.613 129.318 227.613 131.414C227.613 132.727 227.312 133.939 226.711 135.051C226.109 136.145 225.243 137.111 224.113 137.949C222.983 138.77 221.625 139.408 220.039 139.863C218.453 140.319 216.667 140.547 214.68 140.547C211.854 140.547 209.466 140.046 207.516 139.043C205.565 138.022 204.089 136.746 203.086 135.215C202.102 133.665 201.609 132.098 201.609 130.512H210.195C210.232 131.423 210.451 132.171 210.852 132.754C211.271 133.337 211.827 133.766 212.52 134.039C213.212 134.312 214.014 134.449 214.926 134.449C215.764 134.449 216.457 134.331 217.004 134.094C217.569 133.857 217.997 133.538 218.289 133.137C218.581 132.717 218.727 132.234 218.727 131.688ZM247.52 110.414V116.812H229.691V110.414H247.52ZM233.438 103.059H242.652V130.348C242.652 131.132 242.743 131.742 242.926 132.18C243.108 132.599 243.418 132.9 243.855 133.082C244.311 133.246 244.913 133.328 245.66 133.328C246.189 133.328 246.626 133.319 246.973 133.301C247.319 133.264 247.647 133.219 247.957 133.164V139.754C247.173 140.009 246.353 140.201 245.496 140.328C244.639 140.474 243.728 140.547 242.762 140.547C240.793 140.547 239.107 140.237 237.703 139.617C236.318 138.997 235.26 138.022 234.531 136.691C233.802 135.361 233.438 133.629 233.438 131.496V103.059ZM249.215 125.508V124.934C249.215 122.764 249.525 120.768 250.145 118.945C250.764 117.104 251.676 115.509 252.879 114.16C254.082 112.811 255.568 111.763 257.336 111.016C259.104 110.25 261.146 109.867 263.461 109.867C265.794 109.867 267.845 110.25 269.613 111.016C271.4 111.763 272.895 112.811 274.098 114.16C275.301 115.509 276.212 117.104 276.832 118.945C277.452 120.768 277.762 122.764 277.762 124.934V125.508C277.762 127.659 277.452 129.655 276.832 131.496C276.212 133.319 275.301 134.914 274.098 136.281C272.895 137.63 271.409 138.678 269.641 139.426C267.872 140.173 265.831 140.547 263.516 140.547C261.201 140.547 259.15 140.173 257.363 139.426C255.577 138.678 254.082 137.63 252.879 136.281C251.676 134.914 250.764 133.319 250.145 131.496C249.525 129.655 249.215 127.659 249.215 125.508ZM258.43 124.934V125.508C258.43 126.62 258.512 127.659 258.676 128.625C258.84 129.591 259.113 130.439 259.496 131.168C259.879 131.879 260.398 132.435 261.055 132.836C261.711 133.237 262.531 133.438 263.516 133.438C264.482 133.438 265.284 133.237 265.922 132.836C266.578 132.435 267.098 131.879 267.48 131.168C267.863 130.439 268.137 129.591 268.301 128.625C268.465 127.659 268.547 126.62 268.547 125.508V124.934C268.547 123.858 268.465 122.846 268.301 121.898C268.137 120.932 267.863 120.085 267.48 119.355C267.098 118.608 266.578 118.025 265.922 117.605C265.266 117.186 264.445 116.977 263.461 116.977C262.495 116.977 261.684 117.186 261.027 117.605C260.389 118.025 259.879 118.608 259.496 119.355C259.113 120.085 258.84 120.932 258.676 121.898C258.512 122.846 258.43 123.858 258.43 124.934ZM291.16 117.742V140H281.945V110.414H290.559L291.16 117.742ZM299.91 110.195L299.746 118.754C299.382 118.717 298.889 118.672 298.27 118.617C297.65 118.562 297.13 118.535 296.711 118.535C295.635 118.535 294.706 118.663 293.922 118.918C293.156 119.155 292.518 119.52 292.008 120.012C291.516 120.486 291.151 121.087 290.914 121.816C290.695 122.546 290.595 123.393 290.613 124.359L288.945 123.266C288.945 121.279 289.137 119.474 289.52 117.852C289.921 116.211 290.486 114.798 291.215 113.613C291.944 112.41 292.828 111.49 293.867 110.852C294.906 110.195 296.073 109.867 297.367 109.867C297.823 109.867 298.27 109.895 298.707 109.949C299.163 110.004 299.564 110.086 299.91 110.195ZM326.16 126.52H335.73C335.603 129.29 334.855 131.733 333.488 133.848C332.121 135.962 330.225 137.612 327.801 138.797C325.395 139.964 322.551 140.547 319.27 140.547C316.608 140.547 314.229 140.1 312.133 139.207C310.055 138.314 308.286 137.029 306.828 135.352C305.388 133.674 304.285 131.642 303.52 129.254C302.772 126.866 302.398 124.177 302.398 121.188V119.027C302.398 116.038 302.79 113.349 303.574 110.961C304.376 108.555 305.507 106.513 306.965 104.836C308.441 103.141 310.21 101.846 312.27 100.953C314.329 100.06 316.617 99.6133 319.133 99.6133C322.596 99.6133 325.522 100.233 327.91 101.473C330.298 102.712 332.148 104.417 333.461 106.586C334.773 108.737 335.548 111.189 335.785 113.941H326.215C326.178 112.447 325.923 111.198 325.449 110.195C324.975 109.174 324.228 108.409 323.207 107.898C322.186 107.388 320.828 107.133 319.133 107.133C317.948 107.133 316.918 107.352 316.043 107.789C315.168 108.227 314.439 108.919 313.855 109.867C313.272 110.815 312.835 112.046 312.543 113.559C312.27 115.053 312.133 116.858 312.133 118.973V121.188C312.133 123.302 312.26 125.107 312.516 126.602C312.771 128.096 313.181 129.318 313.746 130.266C314.311 131.214 315.04 131.915 315.934 132.371C316.845 132.809 317.957 133.027 319.27 133.027C320.728 133.027 321.958 132.799 322.961 132.344C323.964 131.87 324.738 131.159 325.285 130.211C325.832 129.245 326.124 128.014 326.16 126.52ZM338.684 125.508V124.934C338.684 122.764 338.993 120.768 339.613 118.945C340.233 117.104 341.145 115.509 342.348 114.16C343.551 112.811 345.036 111.763 346.805 111.016C348.573 110.25 350.615 109.867 352.93 109.867C355.263 109.867 357.314 110.25 359.082 111.016C360.868 111.763 362.363 112.811 363.566 114.16C364.77 115.509 365.681 117.104 366.301 118.945C366.921 120.768 367.23 122.764 367.23 124.934V125.508C367.23 127.659 366.921 129.655 366.301 131.496C365.681 133.319 364.77 134.914 363.566 136.281C362.363 137.63 360.878 138.678 359.109 139.426C357.341 140.173 355.299 140.547 352.984 140.547C350.669 140.547 348.618 140.173 346.832 139.426C345.046 138.678 343.551 137.63 342.348 136.281C341.145 134.914 340.233 133.319 339.613 131.496C338.993 129.655 338.684 127.659 338.684 125.508ZM347.898 124.934V125.508C347.898 126.62 347.98 127.659 348.145 128.625C348.309 129.591 348.582 130.439 348.965 131.168C349.348 131.879 349.867 132.435 350.523 132.836C351.18 133.237 352 133.438 352.984 133.438C353.951 133.438 354.753 133.237 355.391 132.836C356.047 132.435 356.566 131.879 356.949 131.168C357.332 130.439 357.605 129.591 357.77 128.625C357.934 127.659 358.016 126.62 358.016 125.508V124.934C358.016 123.858 357.934 122.846 357.77 121.898C357.605 120.932 357.332 120.085 356.949 119.355C356.566 118.608 356.047 118.025 355.391 117.605C354.734 117.186 353.914 116.977 352.93 116.977C351.964 116.977 351.152 117.186 350.496 117.605C349.858 118.025 349.348 118.608 348.965 119.355C348.582 120.085 348.309 120.932 348.145 121.898C347.98 122.846 347.898 123.858 347.898 124.934ZM380.383 116.73V140H371.168V110.414H379.809L380.383 116.73ZM379.289 124.195L377.129 124.25C377.129 121.99 377.402 119.975 377.949 118.207C378.496 116.421 379.271 114.908 380.273 113.668C381.276 112.428 382.47 111.49 383.855 110.852C385.259 110.195 386.818 109.867 388.531 109.867C389.898 109.867 391.147 110.068 392.277 110.469C393.426 110.87 394.41 111.517 395.23 112.41C396.069 113.303 396.707 114.488 397.145 115.965C397.6 117.423 397.828 119.228 397.828 121.379V140H388.559V121.352C388.559 120.167 388.395 119.264 388.066 118.645C387.738 118.007 387.264 117.569 386.645 117.332C386.025 117.095 385.268 116.977 384.375 116.977C383.427 116.977 382.625 117.159 381.969 117.523C381.312 117.888 380.784 118.398 380.383 119.055C380 119.693 379.717 120.449 379.535 121.324C379.371 122.199 379.289 123.156 379.289 124.195ZM411.992 116.73V140H402.777V110.414H411.418L411.992 116.73ZM410.898 124.195L408.738 124.25C408.738 121.99 409.012 119.975 409.559 118.207C410.105 116.421 410.88 114.908 411.883 113.668C412.885 112.428 414.079 111.49 415.465 110.852C416.868 110.195 418.427 109.867 420.141 109.867C421.508 109.867 422.757 110.068 423.887 110.469C425.035 110.87 426.02 111.517 426.84 112.41C427.678 113.303 428.316 114.488 428.754 115.965C429.21 117.423 429.438 119.228 429.438 121.379V140H420.168V121.352C420.168 120.167 420.004 119.264 419.676 118.645C419.348 118.007 418.874 117.569 418.254 117.332C417.634 117.095 416.878 116.977 415.984 116.977C415.036 116.977 414.234 117.159 413.578 117.523C412.922 117.888 412.393 118.398 411.992 119.055C411.609 119.693 411.327 120.449 411.145 121.324C410.98 122.199 410.898 123.156 410.898 124.195ZM448.879 140.547C446.473 140.547 444.322 140.173 442.426 139.426C440.53 138.66 438.926 137.612 437.613 136.281C436.319 134.951 435.326 133.419 434.633 131.688C433.958 129.956 433.621 128.124 433.621 126.191V125.152C433.621 122.983 433.922 120.978 434.523 119.137C435.125 117.277 436.018 115.655 437.203 114.27C438.388 112.884 439.874 111.809 441.66 111.043C443.447 110.259 445.525 109.867 447.895 109.867C449.991 109.867 451.868 110.204 453.527 110.879C455.186 111.553 456.59 112.52 457.738 113.777C458.905 115.035 459.789 116.557 460.391 118.344C461.01 120.13 461.32 122.135 461.32 124.359V128.105H437.148V122.336H452.324V121.625C452.342 120.641 452.169 119.802 451.805 119.109C451.458 118.417 450.948 117.888 450.273 117.523C449.599 117.159 448.779 116.977 447.812 116.977C446.81 116.977 445.98 117.195 445.324 117.633C444.686 118.07 444.185 118.672 443.82 119.438C443.474 120.185 443.228 121.051 443.082 122.035C442.936 123.02 442.863 124.059 442.863 125.152V126.191C442.863 127.285 443.009 128.279 443.301 129.172C443.611 130.065 444.048 130.831 444.613 131.469C445.197 132.089 445.889 132.572 446.691 132.918C447.512 133.264 448.441 133.438 449.48 133.438C450.738 133.438 451.978 133.201 453.199 132.727C454.421 132.253 455.469 131.469 456.344 130.375L460.527 135.352C459.926 136.208 459.069 137.038 457.957 137.84C456.863 138.642 455.551 139.298 454.02 139.809C452.488 140.301 450.775 140.547 448.879 140.547ZM477.562 133.438C478.419 133.438 479.148 133.283 479.75 132.973C480.37 132.645 480.835 132.189 481.145 131.605C481.473 131.004 481.628 130.284 481.609 129.445H490.277C490.296 131.669 489.749 133.62 488.637 135.297C487.543 136.956 486.048 138.25 484.152 139.18C482.275 140.091 480.151 140.547 477.781 140.547C475.466 140.547 473.443 140.173 471.711 139.426C469.979 138.66 468.53 137.603 467.363 136.254C466.215 134.887 465.349 133.292 464.766 131.469C464.201 129.646 463.918 127.668 463.918 125.535V124.906C463.918 122.773 464.201 120.796 464.766 118.973C465.349 117.132 466.215 115.536 467.363 114.188C468.53 112.82 469.97 111.763 471.684 111.016C473.415 110.25 475.43 109.867 477.727 109.867C480.188 109.867 482.357 110.332 484.234 111.262C486.13 112.191 487.616 113.54 488.691 115.309C489.767 117.077 490.296 119.219 490.277 121.734H481.609C481.628 120.841 481.491 120.039 481.199 119.328C480.908 118.617 480.452 118.052 479.832 117.633C479.23 117.195 478.456 116.977 477.508 116.977C476.56 116.977 475.794 117.186 475.211 117.605C474.628 118.025 474.181 118.608 473.871 119.355C473.579 120.085 473.379 120.923 473.27 121.871C473.178 122.819 473.133 123.831 473.133 124.906V125.535C473.133 126.629 473.178 127.659 473.27 128.625C473.379 129.573 473.589 130.411 473.898 131.141C474.208 131.852 474.655 132.417 475.238 132.836C475.822 133.237 476.596 133.438 477.562 133.438ZM509.801 110.414V116.812H491.973V110.414H509.801ZM495.719 103.059H504.934V130.348C504.934 131.132 505.025 131.742 505.207 132.18C505.389 132.599 505.699 132.9 506.137 133.082C506.592 133.246 507.194 133.328 507.941 133.328C508.47 133.328 508.908 133.319 509.254 133.301C509.6 133.264 509.928 133.219 510.238 133.164V139.754C509.454 140.009 508.634 140.201 507.777 140.328C506.921 140.474 506.009 140.547 505.043 140.547C503.074 140.547 501.388 140.237 499.984 139.617C498.599 138.997 497.542 138.022 496.812 136.691C496.083 135.361 495.719 133.629 495.719 131.496V103.059Z" fill="black"/>
<rect x="93" y="178" width="917" height="77" rx="10" fill="#D3D3D3"/>
<rect x="111" y="196" width="98" height="41" rx="3" fill="#424242"/>
<path d="M137.078 210.203V223H133.993V210.203H137.078ZM142.053 215.529V217.902H136.199V215.529H142.053ZM142.554 210.203V212.585H136.199V210.203H142.554ZM146.825 209.5V223H143.854V209.5H146.825ZM154.208 220.688V213.49H157.179V223H154.401L154.208 220.688ZM154.489 218.755L155.263 218.737C155.263 219.376 155.187 219.968 155.034 220.513C154.882 221.052 154.656 221.521 154.357 221.919C154.064 222.317 153.701 222.628 153.268 222.851C152.84 223.067 152.345 223.176 151.782 223.176C151.313 223.176 150.883 223.111 150.49 222.982C150.104 222.848 149.77 222.64 149.488 222.358C149.207 222.071 148.987 221.705 148.829 221.26C148.677 220.809 148.601 220.27 148.601 219.643V213.49H151.562V219.66C151.562 219.871 151.589 220.053 151.642 220.205C151.694 220.357 151.771 220.486 151.87 220.592C151.97 220.691 152.093 220.768 152.239 220.82C152.392 220.867 152.564 220.891 152.758 220.891C153.203 220.891 153.552 220.797 153.804 220.609C154.056 220.422 154.231 220.167 154.331 219.845C154.437 219.522 154.489 219.159 154.489 218.755ZM163.823 213.49V215.547H158.093V213.49H163.823ZM159.297 211.126H162.259V219.897C162.259 220.149 162.288 220.346 162.347 220.486C162.405 220.621 162.505 220.718 162.646 220.776C162.792 220.829 162.985 220.855 163.226 220.855C163.396 220.855 163.536 220.853 163.647 220.847C163.759 220.835 163.864 220.82 163.964 220.803V222.921C163.712 223.003 163.448 223.064 163.173 223.105C162.897 223.152 162.604 223.176 162.294 223.176C161.661 223.176 161.119 223.076 160.668 222.877C160.223 222.678 159.883 222.364 159.648 221.937C159.414 221.509 159.297 220.952 159.297 220.267V211.126ZM170.011 213.49V215.547H164.28V213.49H170.011ZM165.484 211.126H168.446V219.897C168.446 220.149 168.476 220.346 168.534 220.486C168.593 220.621 168.692 220.718 168.833 220.776C168.979 220.829 169.173 220.855 169.413 220.855C169.583 220.855 169.724 220.853 169.835 220.847C169.946 220.835 170.052 220.82 170.151 220.803V222.921C169.899 223.003 169.636 223.064 169.36 223.105C169.085 223.152 168.792 223.176 168.481 223.176C167.849 223.176 167.307 223.076 166.855 222.877C166.41 222.678 166.07 222.364 165.836 221.937C165.602 221.509 165.484 220.952 165.484 220.267V211.126ZM175.794 223.176C175.021 223.176 174.329 223.056 173.72 222.815C173.11 222.569 172.595 222.232 172.173 221.805C171.757 221.377 171.438 220.885 171.215 220.328C170.998 219.771 170.89 219.183 170.89 218.562V218.228C170.89 217.53 170.986 216.886 171.18 216.294C171.373 215.696 171.66 215.175 172.041 214.729C172.422 214.284 172.899 213.938 173.474 213.692C174.048 213.44 174.716 213.314 175.478 213.314C176.151 213.314 176.755 213.423 177.288 213.64C177.821 213.856 178.272 214.167 178.642 214.571C179.017 214.976 179.301 215.465 179.494 216.039C179.693 216.613 179.793 217.258 179.793 217.973V219.177H172.023V217.322H176.901V217.094C176.907 216.777 176.852 216.508 176.734 216.285C176.623 216.062 176.459 215.893 176.242 215.775C176.025 215.658 175.762 215.6 175.451 215.6C175.129 215.6 174.862 215.67 174.651 215.811C174.446 215.951 174.285 216.145 174.168 216.391C174.057 216.631 173.978 216.909 173.931 217.226C173.884 217.542 173.86 217.876 173.86 218.228V218.562C173.86 218.913 173.907 219.232 174.001 219.52C174.101 219.807 174.241 220.053 174.423 220.258C174.61 220.457 174.833 220.612 175.091 220.724C175.354 220.835 175.653 220.891 175.987 220.891C176.392 220.891 176.79 220.814 177.183 220.662C177.575 220.51 177.912 220.258 178.193 219.906L179.538 221.506C179.345 221.781 179.069 222.048 178.712 222.306C178.36 222.563 177.938 222.774 177.446 222.938C176.954 223.097 176.403 223.176 175.794 223.176ZM183.985 215.846V223H181.023V213.49H183.792L183.985 215.846ZM186.798 213.42L186.745 216.171C186.628 216.159 186.47 216.145 186.271 216.127C186.071 216.109 185.904 216.101 185.77 216.101C185.424 216.101 185.125 216.142 184.873 216.224C184.627 216.3 184.422 216.417 184.258 216.575C184.1 216.728 183.982 216.921 183.906 217.155C183.836 217.39 183.804 217.662 183.81 217.973L183.273 217.621C183.273 216.982 183.335 216.402 183.458 215.881C183.587 215.354 183.769 214.899 184.003 214.519C184.237 214.132 184.521 213.836 184.855 213.631C185.189 213.42 185.564 213.314 185.98 213.314C186.127 213.314 186.271 213.323 186.411 213.341C186.558 213.358 186.687 213.385 186.798 213.42Z" fill="white"/>
<rect x="111" y="196" width="98" height="41" rx="3" stroke="#424242" stroke-width="4"/>
<rect x="229" y="196" width="108" height="41" rx="3" fill="#424242"/>
<path d="M257.459 212.893L254.339 223H251.025L255.728 210.203H257.828L257.459 212.893ZM260.043 223L256.914 212.893L256.51 210.203H258.637L263.365 223H260.043ZM259.92 218.228V220.609H253.354V218.228H259.92ZM266.652 215.521V223H263.69V213.49H266.468L266.652 215.521ZM266.301 217.92L265.606 217.938C265.606 217.211 265.694 216.563 265.87 215.995C266.046 215.421 266.295 214.935 266.617 214.536C266.939 214.138 267.323 213.836 267.769 213.631C268.22 213.42 268.721 213.314 269.271 213.314C269.711 213.314 270.112 213.379 270.476 213.508C270.845 213.637 271.161 213.845 271.425 214.132C271.694 214.419 271.899 214.8 272.04 215.274C272.187 215.743 272.26 216.323 272.26 217.015V223H269.28V217.006C269.28 216.625 269.228 216.335 269.122 216.136C269.017 215.931 268.864 215.79 268.665 215.714C268.466 215.638 268.223 215.6 267.936 215.6C267.631 215.6 267.373 215.658 267.162 215.775C266.951 215.893 266.781 216.057 266.652 216.268C266.529 216.473 266.438 216.716 266.38 216.997C266.327 217.278 266.301 217.586 266.301 217.92ZM279.88 213.49H282.569V222.631C282.569 223.51 282.367 224.254 281.963 224.863C281.559 225.479 280.993 225.944 280.267 226.261C279.546 226.583 278.702 226.744 277.735 226.744C277.308 226.744 276.871 226.688 276.426 226.577C275.98 226.472 275.564 226.313 275.178 226.103C274.791 225.892 274.466 225.631 274.202 225.32L275.441 223.58C275.682 223.85 275.983 224.078 276.347 224.266C276.71 224.459 277.138 224.556 277.63 224.556C278.058 224.556 278.415 224.479 278.702 224.327C278.995 224.175 279.218 223.952 279.37 223.659C279.522 223.372 279.599 223.023 279.599 222.613V215.74L279.88 213.49ZM273.561 218.359V218.175C273.561 217.454 273.648 216.798 273.824 216.206C274.006 215.608 274.264 215.096 274.598 214.668C274.938 214.234 275.348 213.9 275.828 213.666C276.309 213.432 276.851 213.314 277.454 213.314C278.104 213.314 278.638 213.44 279.054 213.692C279.476 213.938 279.812 214.284 280.064 214.729C280.322 215.175 280.521 215.696 280.662 216.294C280.809 216.886 280.932 217.524 281.031 218.21V218.43C280.932 219.074 280.794 219.684 280.618 220.258C280.448 220.826 280.226 221.33 279.95 221.77C279.675 222.209 279.329 222.555 278.913 222.807C278.503 223.053 278.011 223.176 277.437 223.176C276.839 223.176 276.3 223.056 275.819 222.815C275.345 222.575 274.938 222.238 274.598 221.805C274.264 221.371 274.006 220.861 273.824 220.275C273.648 219.689 273.561 219.051 273.561 218.359ZM276.522 218.175V218.359C276.522 218.717 276.555 219.048 276.619 219.353C276.689 219.657 276.795 219.927 276.936 220.161C277.076 220.39 277.249 220.568 277.454 220.697C277.665 220.826 277.911 220.891 278.192 220.891C278.62 220.891 278.966 220.8 279.229 220.618C279.493 220.437 279.684 220.179 279.801 219.845C279.918 219.511 279.968 219.118 279.95 218.667V217.973C279.962 217.586 279.936 217.246 279.871 216.953C279.807 216.654 279.704 216.405 279.563 216.206C279.429 216.007 279.247 215.857 279.019 215.758C278.796 215.652 278.526 215.6 278.21 215.6C277.935 215.6 277.691 215.664 277.48 215.793C277.27 215.922 277.094 216.104 276.953 216.338C276.812 216.566 276.704 216.839 276.628 217.155C276.558 217.466 276.522 217.806 276.522 218.175ZM289.829 220.688V213.49H292.8V223H290.022L289.829 220.688ZM290.11 218.755L290.884 218.737C290.884 219.376 290.808 219.968 290.655 220.513C290.503 221.052 290.277 221.521 289.979 221.919C289.686 222.317 289.322 222.628 288.889 222.851C288.461 223.067 287.966 223.176 287.403 223.176C286.935 223.176 286.504 223.111 286.111 222.982C285.725 222.848 285.391 222.64 285.109 222.358C284.828 222.071 284.608 221.705 284.45 221.26C284.298 220.809 284.222 220.27 284.222 219.643V213.49H287.184V219.66C287.184 219.871 287.21 220.053 287.263 220.205C287.315 220.357 287.392 220.486 287.491 220.592C287.591 220.691 287.714 220.768 287.86 220.82C288.013 220.867 288.186 220.891 288.379 220.891C288.824 220.891 289.173 220.797 289.425 220.609C289.677 220.422 289.853 220.167 289.952 219.845C290.058 219.522 290.11 219.159 290.11 218.755ZM297.563 209.5V223H294.593V209.5H297.563ZM304.331 220.609V216.689C304.331 216.42 304.293 216.188 304.217 215.995C304.141 215.802 304.021 215.652 303.856 215.547C303.692 215.436 303.473 215.38 303.197 215.38C302.975 215.38 302.784 215.418 302.626 215.494C302.468 215.57 302.348 215.685 302.266 215.837C302.184 215.989 302.143 216.183 302.143 216.417H299.181C299.181 215.978 299.277 215.57 299.471 215.195C299.67 214.814 299.951 214.483 300.314 214.202C300.684 213.921 301.123 213.704 301.633 213.552C302.148 213.394 302.723 213.314 303.355 213.314C304.111 213.314 304.785 213.44 305.377 213.692C305.975 213.944 306.446 214.322 306.792 214.826C307.138 215.324 307.311 215.951 307.311 216.707V220.601C307.311 221.222 307.346 221.693 307.416 222.016C307.486 222.332 307.586 222.61 307.715 222.851V223H304.744C304.604 222.707 304.498 222.35 304.428 221.928C304.363 221.5 304.331 221.061 304.331 220.609ZM304.691 217.19L304.709 218.772H303.399C303.124 218.772 302.89 218.811 302.696 218.887C302.509 218.963 302.356 219.068 302.239 219.203C302.128 219.332 302.046 219.479 301.993 219.643C301.946 219.807 301.923 219.979 301.923 220.161C301.923 220.337 301.964 220.495 302.046 220.636C302.134 220.771 302.251 220.876 302.397 220.952C302.544 221.028 302.708 221.066 302.89 221.066C303.218 221.066 303.496 221.005 303.725 220.882C303.959 220.753 304.138 220.598 304.261 220.416C304.384 220.234 304.445 220.064 304.445 219.906L305.096 221.119C304.979 221.354 304.844 221.591 304.691 221.831C304.545 222.071 304.36 222.294 304.138 222.499C303.921 222.698 303.654 222.862 303.338 222.991C303.021 223.114 302.638 223.176 302.187 223.176C301.601 223.176 301.062 223.056 300.569 222.815C300.083 222.575 299.693 222.241 299.4 221.813C299.107 221.38 298.961 220.882 298.961 220.319C298.961 219.827 299.049 219.388 299.225 219.001C299.406 218.614 299.679 218.286 300.042 218.017C300.405 217.747 300.868 217.542 301.431 217.401C301.993 217.261 302.655 217.19 303.417 217.19H304.691ZM311.942 215.846V223H308.98V213.49H311.749L311.942 215.846ZM314.755 213.42L314.702 216.171C314.585 216.159 314.427 216.145 314.228 216.127C314.028 216.109 313.861 216.101 313.727 216.101C313.381 216.101 313.082 216.142 312.83 216.224C312.584 216.3 312.379 216.417 312.215 216.575C312.057 216.728 311.939 216.921 311.863 217.155C311.793 217.39 311.761 217.662 311.767 217.973L311.23 217.621C311.23 216.982 311.292 216.402 311.415 215.881C311.544 215.354 311.726 214.899 311.96 214.519C312.194 214.132 312.479 213.836 312.812 213.631C313.146 213.42 313.521 213.314 313.938 213.314C314.084 213.314 314.228 213.323 314.368 213.341C314.515 213.358 314.644 213.385 314.755 213.42Z" fill="white"/>
<rect x="229" y="196" width="108" height="41" rx="3" stroke="#424242" stroke-width="4"/>
<rect x="357" y="196" width="104" height="41" rx="3" fill="#424242"/>
<path d="M388.812 220.627V223H382.343V220.627H388.812ZM383.441 210.203V223H380.356V210.203H383.441ZM394.911 220.609V216.689C394.911 216.42 394.873 216.188 394.797 215.995C394.721 215.802 394.601 215.652 394.437 215.547C394.272 215.436 394.053 215.38 393.777 215.38C393.555 215.38 393.364 215.418 393.206 215.494C393.048 215.57 392.928 215.685 392.846 215.837C392.764 215.989 392.723 216.183 392.723 216.417H389.761C389.761 215.978 389.857 215.57 390.051 215.195C390.25 214.814 390.531 214.483 390.895 214.202C391.264 213.921 391.703 213.704 392.213 213.552C392.729 213.394 393.303 213.314 393.936 213.314C394.691 213.314 395.365 213.44 395.957 213.692C396.555 213.944 397.026 214.322 397.372 214.826C397.718 215.324 397.891 215.951 397.891 216.707V220.601C397.891 221.222 397.926 221.693 397.996 222.016C398.066 222.332 398.166 222.61 398.295 222.851V223H395.324C395.184 222.707 395.078 222.35 395.008 221.928C394.943 221.5 394.911 221.061 394.911 220.609ZM395.271 217.19L395.289 218.772H393.979C393.704 218.772 393.47 218.811 393.276 218.887C393.089 218.963 392.937 219.068 392.819 219.203C392.708 219.332 392.626 219.479 392.573 219.643C392.526 219.807 392.503 219.979 392.503 220.161C392.503 220.337 392.544 220.495 392.626 220.636C392.714 220.771 392.831 220.876 392.978 220.952C393.124 221.028 393.288 221.066 393.47 221.066C393.798 221.066 394.076 221.005 394.305 220.882C394.539 220.753 394.718 220.598 394.841 220.416C394.964 220.234 395.025 220.064 395.025 219.906L395.676 221.119C395.559 221.354 395.424 221.591 395.271 221.831C395.125 222.071 394.94 222.294 394.718 222.499C394.501 222.698 394.234 222.862 393.918 222.991C393.602 223.114 393.218 223.176 392.767 223.176C392.181 223.176 391.642 223.056 391.149 222.815C390.663 222.575 390.273 222.241 389.98 221.813C389.688 221.38 389.541 220.882 389.541 220.319C389.541 219.827 389.629 219.388 389.805 219.001C389.986 218.614 390.259 218.286 390.622 218.017C390.985 217.747 391.448 217.542 392.011 217.401C392.573 217.261 393.235 217.19 393.997 217.19H395.271ZM402.522 215.846V223H399.561V213.49H402.329L402.522 215.846ZM405.335 213.42L405.282 216.171C405.165 216.159 405.007 216.145 404.808 216.127C404.608 216.109 404.441 216.101 404.307 216.101C403.961 216.101 403.662 216.142 403.41 216.224C403.164 216.3 402.959 216.417 402.795 216.575C402.637 216.728 402.52 216.921 402.443 217.155C402.373 217.39 402.341 217.662 402.347 217.973L401.811 217.621C401.811 216.982 401.872 216.402 401.995 215.881C402.124 215.354 402.306 214.899 402.54 214.519C402.774 214.132 403.059 213.836 403.393 213.631C403.727 213.42 404.102 213.314 404.518 213.314C404.664 213.314 404.808 213.323 404.948 213.341C405.095 213.358 405.224 213.385 405.335 213.42ZM411.03 220.609V216.689C411.03 216.42 410.992 216.188 410.916 215.995C410.84 215.802 410.72 215.652 410.556 215.547C410.392 215.436 410.172 215.38 409.896 215.38C409.674 215.38 409.483 215.418 409.325 215.494C409.167 215.57 409.047 215.685 408.965 215.837C408.883 215.989 408.842 216.183 408.842 216.417H405.88C405.88 215.978 405.977 215.57 406.17 215.195C406.369 214.814 406.65 214.483 407.014 214.202C407.383 213.921 407.822 213.704 408.332 213.552C408.848 213.394 409.422 213.314 410.055 213.314C410.811 213.314 411.484 213.44 412.076 213.692C412.674 213.944 413.146 214.322 413.491 214.826C413.837 215.324 414.01 215.951 414.01 216.707V220.601C414.01 221.222 414.045 221.693 414.115 222.016C414.186 222.332 414.285 222.61 414.414 222.851V223H411.443C411.303 222.707 411.197 222.35 411.127 221.928C411.062 221.5 411.03 221.061 411.03 220.609ZM411.391 217.19L411.408 218.772H410.099C409.823 218.772 409.589 218.811 409.396 218.887C409.208 218.963 409.056 219.068 408.938 219.203C408.827 219.332 408.745 219.479 408.692 219.643C408.646 219.807 408.622 219.979 408.622 220.161C408.622 220.337 408.663 220.495 408.745 220.636C408.833 220.771 408.95 220.876 409.097 220.952C409.243 221.028 409.407 221.066 409.589 221.066C409.917 221.066 410.195 221.005 410.424 220.882C410.658 220.753 410.837 220.598 410.96 220.416C411.083 220.234 411.145 220.064 411.145 219.906L411.795 221.119C411.678 221.354 411.543 221.591 411.391 221.831C411.244 222.071 411.06 222.294 410.837 222.499C410.62 222.698 410.354 222.862 410.037 222.991C409.721 223.114 409.337 223.176 408.886 223.176C408.3 223.176 407.761 223.056 407.269 222.815C406.782 222.575 406.393 222.241 406.1 221.813C405.807 221.38 405.66 220.882 405.66 220.319C405.66 219.827 405.748 219.388 405.924 219.001C406.105 218.614 406.378 218.286 406.741 218.017C407.104 217.747 407.567 217.542 408.13 217.401C408.692 217.261 409.354 217.19 410.116 217.19H411.391ZM418.94 220.97L420.812 213.49H423.933L420.821 223H418.976L418.94 220.97ZM417.833 213.49L419.679 220.97L419.661 223H417.807L414.704 213.49H417.833ZM429.294 223.176C428.521 223.176 427.829 223.056 427.22 222.815C426.61 222.569 426.095 222.232 425.673 221.805C425.257 221.377 424.938 220.885 424.715 220.328C424.498 219.771 424.39 219.183 424.39 218.562V218.228C424.39 217.53 424.486 216.886 424.68 216.294C424.873 215.696 425.16 215.175 425.541 214.729C425.922 214.284 426.399 213.938 426.974 213.692C427.548 213.44 428.216 213.314 428.978 213.314C429.651 213.314 430.255 213.423 430.788 213.64C431.321 213.856 431.772 214.167 432.142 214.571C432.517 214.976 432.801 215.465 432.994 216.039C433.193 216.613 433.293 217.258 433.293 217.973V219.177H425.523V217.322H430.401V217.094C430.407 216.777 430.352 216.508 430.234 216.285C430.123 216.062 429.959 215.893 429.742 215.775C429.525 215.658 429.262 215.6 428.951 215.6C428.629 215.6 428.362 215.67 428.151 215.811C427.946 215.951 427.785 216.145 427.668 216.391C427.557 216.631 427.478 216.909 427.431 217.226C427.384 217.542 427.36 217.876 427.36 218.228V218.562C427.36 218.913 427.407 219.232 427.501 219.52C427.601 219.807 427.741 220.053 427.923 220.258C428.11 220.457 428.333 220.612 428.591 220.724C428.854 220.835 429.153 220.891 429.487 220.891C429.892 220.891 430.29 220.814 430.683 220.662C431.075 220.51 431.412 220.258 431.693 219.906L433.038 221.506C432.845 221.781 432.569 222.048 432.212 222.306C431.86 222.563 431.438 222.774 430.946 222.938C430.454 223.097 429.903 223.176 429.294 223.176ZM437.626 209.5V223H434.655V209.5H437.626Z" fill="white"/>
<rect x="357" y="196" width="104" height="41" rx="3" stroke="#424242" stroke-width="4"/>
<rect x="481" y="196" width="104" height="41" rx="3" fill="#424242"/>
<path d="M514.921 216.347V216.865C514.921 217.844 514.783 218.723 514.508 219.502C514.238 220.275 513.854 220.938 513.356 221.488C512.858 222.033 512.27 222.452 511.59 222.745C510.91 223.032 510.16 223.176 509.34 223.176C508.514 223.176 507.758 223.032 507.072 222.745C506.393 222.452 505.801 222.033 505.297 221.488C504.799 220.938 504.412 220.275 504.137 219.502C503.867 218.723 503.732 217.844 503.732 216.865V216.347C503.732 215.368 503.867 214.489 504.137 213.71C504.412 212.931 504.796 212.269 505.288 211.724C505.786 211.173 506.375 210.754 507.055 210.467C507.74 210.174 508.496 210.027 509.322 210.027C510.143 210.027 510.893 210.174 511.572 210.467C512.258 210.754 512.85 211.173 513.348 211.724C513.846 212.269 514.232 212.931 514.508 213.71C514.783 214.489 514.921 215.368 514.921 216.347ZM511.792 216.865V216.329C511.792 215.696 511.736 215.14 511.625 214.659C511.52 214.173 511.361 213.766 511.15 213.438C510.939 213.109 510.679 212.863 510.368 212.699C510.063 212.529 509.715 212.444 509.322 212.444C508.912 212.444 508.555 212.529 508.25 212.699C507.945 212.863 507.69 213.109 507.485 213.438C507.28 213.766 507.125 214.173 507.02 214.659C506.92 215.14 506.87 215.696 506.87 216.329V216.865C506.87 217.492 506.92 218.049 507.02 218.535C507.125 219.016 507.28 219.423 507.485 219.757C507.696 220.091 507.954 220.343 508.259 220.513C508.569 220.683 508.93 220.768 509.34 220.768C509.732 220.768 510.081 220.683 510.386 220.513C510.69 220.343 510.945 220.091 511.15 219.757C511.361 219.423 511.52 219.016 511.625 218.535C511.736 218.049 511.792 217.492 511.792 216.865ZM519.368 215.318V226.656H516.406V213.49H519.166L519.368 215.318ZM525.204 218.131V218.315C525.204 219.007 525.125 219.648 524.967 220.24C524.809 220.832 524.574 221.348 524.264 221.787C523.953 222.227 523.566 222.569 523.104 222.815C522.646 223.056 522.116 223.176 521.513 223.176C520.944 223.176 520.455 223.05 520.045 222.798C519.635 222.546 519.292 222.197 519.017 221.752C518.741 221.307 518.519 220.797 518.349 220.223C518.179 219.648 518.044 219.042 517.944 218.403V218.166C518.044 217.48 518.179 216.845 518.349 216.259C518.519 215.667 518.741 215.151 519.017 214.712C519.292 214.272 519.632 213.93 520.036 213.684C520.446 213.438 520.936 213.314 521.504 213.314C522.107 213.314 522.638 213.429 523.095 213.657C523.558 213.886 523.944 214.214 524.255 214.642C524.571 215.063 524.809 215.57 524.967 216.162C525.125 216.754 525.204 217.41 525.204 218.131ZM522.242 218.315V218.131C522.242 217.762 522.216 217.425 522.163 217.12C522.11 216.81 522.025 216.54 521.908 216.312C521.797 216.083 521.647 215.907 521.46 215.784C521.272 215.661 521.041 215.6 520.766 215.6C520.449 215.6 520.183 215.649 519.966 215.749C519.755 215.843 519.585 215.989 519.456 216.188C519.333 216.382 519.245 216.625 519.192 216.918C519.146 217.205 519.125 217.542 519.131 217.929V218.649C519.119 219.095 519.163 219.487 519.263 219.827C519.362 220.161 519.535 220.422 519.781 220.609C520.027 220.797 520.361 220.891 520.783 220.891C521.064 220.891 521.299 220.826 521.486 220.697C521.674 220.562 521.823 220.378 521.935 220.144C522.046 219.903 522.125 219.628 522.172 219.317C522.219 219.007 522.242 218.673 522.242 218.315ZM531.128 223.176C530.354 223.176 529.663 223.056 529.054 222.815C528.444 222.569 527.929 222.232 527.507 221.805C527.091 221.377 526.771 220.885 526.549 220.328C526.332 219.771 526.224 219.183 526.224 218.562V218.228C526.224 217.53 526.32 216.886 526.514 216.294C526.707 215.696 526.994 215.175 527.375 214.729C527.756 214.284 528.233 213.938 528.808 213.692C529.382 213.44 530.05 213.314 530.812 213.314C531.485 213.314 532.089 213.423 532.622 213.64C533.155 213.856 533.606 214.167 533.976 214.571C534.351 214.976 534.635 215.465 534.828 216.039C535.027 216.613 535.127 217.258 535.127 217.973V219.177H527.357V217.322H532.235V217.094C532.241 216.777 532.186 216.508 532.068 216.285C531.957 216.062 531.793 215.893 531.576 215.775C531.359 215.658 531.096 215.6 530.785 215.6C530.463 215.6 530.196 215.67 529.985 215.811C529.78 215.951 529.619 216.145 529.502 216.391C529.391 216.631 529.312 216.909 529.265 217.226C529.218 217.542 529.194 217.876 529.194 218.228V218.562C529.194 218.913 529.241 219.232 529.335 219.52C529.435 219.807 529.575 220.053 529.757 220.258C529.944 220.457 530.167 220.612 530.425 220.724C530.688 220.835 530.987 220.891 531.321 220.891C531.726 220.891 532.124 220.814 532.517 220.662C532.909 220.51 533.246 220.258 533.527 219.906L534.872 221.506C534.679 221.781 534.403 222.048 534.046 222.306C533.694 222.563 533.272 222.774 532.78 222.938C532.288 223.097 531.737 223.176 531.128 223.176ZM539.24 215.521V223H536.278V213.49H539.056L539.24 215.521ZM538.889 217.92L538.194 217.938C538.194 217.211 538.282 216.563 538.458 215.995C538.634 215.421 538.883 214.935 539.205 214.536C539.527 214.138 539.911 213.836 540.356 213.631C540.808 213.42 541.309 213.314 541.859 213.314C542.299 213.314 542.7 213.379 543.063 213.508C543.433 213.637 543.749 213.845 544.013 214.132C544.282 214.419 544.487 214.8 544.628 215.274C544.774 215.743 544.848 216.323 544.848 217.015V223H541.868V217.006C541.868 216.625 541.815 216.335 541.71 216.136C541.604 215.931 541.452 215.79 541.253 215.714C541.054 215.638 540.811 215.6 540.523 215.6C540.219 215.6 539.961 215.658 539.75 215.775C539.539 215.893 539.369 216.057 539.24 216.268C539.117 216.473 539.026 216.716 538.968 216.997C538.915 217.278 538.889 217.586 538.889 217.92ZM552.055 212.893L548.935 223H545.621L550.323 210.203H552.424L552.055 212.893ZM554.639 223L551.51 212.893L551.105 210.203H553.232L557.961 223H554.639ZM554.516 218.228V220.609H547.95V218.228H554.516ZM561.89 213.49V223H558.919V213.49H561.89ZM558.743 211.038C558.743 210.616 558.896 210.271 559.2 210.001C559.505 209.731 559.9 209.597 560.387 209.597C560.873 209.597 561.269 209.731 561.573 210.001C561.878 210.271 562.03 210.616 562.03 211.038C562.03 211.46 561.878 211.806 561.573 212.075C561.269 212.345 560.873 212.479 560.387 212.479C559.9 212.479 559.505 212.345 559.2 212.075C558.896 211.806 558.743 211.46 558.743 211.038Z" fill="white"/>
<rect x="481" y="196" width="104" height="41" rx="3" stroke="#424242" stroke-width="4"/>
<rect x="605" y="196" width="114" height="41" rx="3" fill="#424242"/>
<path d="M631.062 210.203V223H627.978V210.203H631.062ZM636.037 215.529V217.902H630.184V215.529H636.037ZM636.538 210.203V212.585H630.184V210.203H636.538ZM640.81 213.49V223H637.839V213.49H640.81ZM637.663 211.038C637.663 210.616 637.815 210.271 638.12 210.001C638.425 209.731 638.82 209.597 639.307 209.597C639.793 209.597 640.188 209.731 640.493 210.001C640.798 210.271 640.95 210.616 640.95 211.038C640.95 211.46 640.798 211.806 640.493 212.075C640.188 212.345 639.793 212.479 639.307 212.479C638.82 212.479 638.425 212.345 638.12 212.075C637.815 211.806 637.663 211.46 637.663 211.038ZM645.626 215.846V223H642.664V213.49H645.433L645.626 215.846ZM648.438 213.42L648.386 216.171C648.269 216.159 648.11 216.145 647.911 216.127C647.712 216.109 647.545 216.101 647.41 216.101C647.064 216.101 646.766 216.142 646.514 216.224C646.268 216.3 646.062 216.417 645.898 216.575C645.74 216.728 645.623 216.921 645.547 217.155C645.477 217.39 645.444 217.662 645.45 217.973L644.914 217.621C644.914 216.982 644.976 216.402 645.099 215.881C645.228 215.354 645.409 214.899 645.644 214.519C645.878 214.132 646.162 213.836 646.496 213.631C646.83 213.42 647.205 213.314 647.621 213.314C647.768 213.314 647.911 213.323 648.052 213.341C648.198 213.358 648.327 213.385 648.438 213.42ZM653.888 223.176C653.114 223.176 652.423 223.056 651.813 222.815C651.204 222.569 650.688 222.232 650.267 221.805C649.851 221.377 649.531 220.885 649.309 220.328C649.092 219.771 648.983 219.183 648.983 218.562V218.228C648.983 217.53 649.08 216.886 649.273 216.294C649.467 215.696 649.754 215.175 650.135 214.729C650.516 214.284 650.993 213.938 651.567 213.692C652.142 213.44 652.81 213.314 653.571 213.314C654.245 213.314 654.849 213.423 655.382 213.64C655.915 213.856 656.366 214.167 656.735 214.571C657.11 214.976 657.395 215.465 657.588 216.039C657.787 216.613 657.887 217.258 657.887 217.973V219.177H650.117V217.322H654.995V217.094C655.001 216.777 654.945 216.508 654.828 216.285C654.717 216.062 654.553 215.893 654.336 215.775C654.119 215.658 653.855 215.6 653.545 215.6C653.223 215.6 652.956 215.67 652.745 215.811C652.54 215.951 652.379 216.145 652.262 216.391C652.15 216.631 652.071 216.909 652.024 217.226C651.978 217.542 651.954 217.876 651.954 218.228V218.562C651.954 218.913 652.001 219.232 652.095 219.52C652.194 219.807 652.335 220.053 652.517 220.258C652.704 220.457 652.927 220.612 653.185 220.724C653.448 220.835 653.747 220.891 654.081 220.891C654.485 220.891 654.884 220.814 655.276 220.662C655.669 220.51 656.006 220.258 656.287 219.906L657.632 221.506C657.438 221.781 657.163 222.048 656.806 222.306C656.454 222.563 656.032 222.774 655.54 222.938C655.048 223.097 654.497 223.176 653.888 223.176ZM659.117 209.5H662.079V220.662L661.771 223H659.117V209.5ZM667.915 218.14V218.324C667.915 219.045 667.842 219.701 667.695 220.293C667.549 220.885 667.323 221.397 667.019 221.831C666.714 222.259 666.33 222.59 665.867 222.824C665.404 223.059 664.856 223.176 664.224 223.176C663.649 223.176 663.157 223.053 662.747 222.807C662.337 222.555 661.994 222.209 661.719 221.77C661.443 221.324 661.221 220.812 661.051 220.231C660.881 219.646 660.746 219.019 660.646 218.351V218.131C660.746 217.469 660.881 216.848 661.051 216.268C661.221 215.682 661.443 215.169 661.719 214.729C661.994 214.284 662.334 213.938 662.738 213.692C663.148 213.44 663.638 213.314 664.206 213.314C664.845 213.314 665.396 213.435 665.858 213.675C666.327 213.915 666.714 214.252 667.019 214.686C667.323 215.119 667.549 215.629 667.695 216.215C667.842 216.801 667.915 217.442 667.915 218.14ZM664.953 218.324V218.14C664.953 217.794 664.933 217.469 664.892 217.164C664.851 216.859 664.777 216.59 664.672 216.355C664.566 216.121 664.417 215.937 664.224 215.802C664.03 215.667 663.778 215.6 663.468 215.6C663.151 215.6 662.885 215.652 662.668 215.758C662.457 215.863 662.287 216.016 662.158 216.215C662.035 216.408 661.947 216.648 661.895 216.936C661.842 217.217 661.818 217.536 661.824 217.894V218.588C661.812 219.074 661.856 219.49 661.956 219.836C662.056 220.182 662.229 220.445 662.475 220.627C662.721 220.809 663.058 220.899 663.485 220.899C663.802 220.899 664.057 220.838 664.25 220.715C664.449 220.592 664.599 220.416 664.698 220.188C664.798 219.959 664.865 219.687 664.9 219.37C664.936 219.054 664.953 218.705 664.953 218.324ZM674.173 220.609V216.689C674.173 216.42 674.135 216.188 674.059 215.995C673.982 215.802 673.862 215.652 673.698 215.547C673.534 215.436 673.314 215.38 673.039 215.38C672.816 215.38 672.626 215.418 672.468 215.494C672.31 215.57 672.189 215.685 672.107 215.837C672.025 215.989 671.984 216.183 671.984 216.417H669.022C669.022 215.978 669.119 215.57 669.312 215.195C669.512 214.814 669.793 214.483 670.156 214.202C670.525 213.921 670.965 213.704 671.475 213.552C671.99 213.394 672.564 213.314 673.197 213.314C673.953 213.314 674.627 213.44 675.219 213.692C675.816 213.944 676.288 214.322 676.634 214.826C676.979 215.324 677.152 215.951 677.152 216.707V220.601C677.152 221.222 677.188 221.693 677.258 222.016C677.328 222.332 677.428 222.61 677.557 222.851V223H674.586C674.445 222.707 674.34 222.35 674.27 221.928C674.205 221.5 674.173 221.061 674.173 220.609ZM674.533 217.19L674.551 218.772H673.241C672.966 218.772 672.731 218.811 672.538 218.887C672.351 218.963 672.198 219.068 672.081 219.203C671.97 219.332 671.888 219.479 671.835 219.643C671.788 219.807 671.765 219.979 671.765 220.161C671.765 220.337 671.806 220.495 671.888 220.636C671.976 220.771 672.093 220.876 672.239 220.952C672.386 221.028 672.55 221.066 672.731 221.066C673.06 221.066 673.338 221.005 673.566 220.882C673.801 220.753 673.979 220.598 674.103 220.416C674.226 220.234 674.287 220.064 674.287 219.906L674.938 221.119C674.82 221.354 674.686 221.591 674.533 221.831C674.387 222.071 674.202 222.294 673.979 222.499C673.763 222.698 673.496 222.862 673.18 222.991C672.863 223.114 672.479 223.176 672.028 223.176C671.442 223.176 670.903 223.056 670.411 222.815C669.925 222.575 669.535 222.241 669.242 221.813C668.949 221.38 668.803 220.882 668.803 220.319C668.803 219.827 668.891 219.388 669.066 219.001C669.248 218.614 669.521 218.286 669.884 218.017C670.247 217.747 670.71 217.542 671.272 217.401C671.835 217.261 672.497 217.19 673.259 217.19H674.533ZM683.779 220.328C683.779 220.164 683.724 220.023 683.612 219.906C683.507 219.783 683.319 219.672 683.05 219.572C682.78 219.467 682.402 219.361 681.916 219.256C681.453 219.156 681.017 219.024 680.606 218.86C680.202 218.696 679.848 218.497 679.543 218.263C679.238 218.028 678.998 217.75 678.822 217.428C678.652 217.105 678.567 216.736 678.567 216.32C678.567 215.916 678.652 215.535 678.822 215.178C678.998 214.814 679.253 214.495 679.587 214.22C679.927 213.938 680.34 213.719 680.826 213.561C681.312 213.396 681.866 213.314 682.487 213.314C683.343 213.314 684.081 213.446 684.702 213.71C685.323 213.968 685.801 214.331 686.135 214.8C686.475 215.263 686.645 215.799 686.645 216.408H683.683C683.683 216.168 683.642 215.963 683.56 215.793C683.483 215.623 683.357 215.494 683.182 215.406C683.006 215.312 682.771 215.266 682.479 215.266C682.273 215.266 682.086 215.304 681.916 215.38C681.752 215.456 681.62 215.562 681.521 215.696C681.421 215.831 681.371 215.989 681.371 216.171C681.371 216.3 681.4 216.417 681.459 216.522C681.523 216.622 681.62 216.716 681.749 216.804C681.878 216.886 682.042 216.962 682.241 217.032C682.44 217.097 682.681 217.155 682.962 217.208C683.601 217.325 684.198 217.492 684.755 217.709C685.312 217.926 685.763 218.233 686.108 218.632C686.46 219.03 686.636 219.566 686.636 220.24C686.636 220.662 686.539 221.052 686.346 221.409C686.152 221.761 685.874 222.071 685.511 222.341C685.147 222.604 684.711 222.81 684.201 222.956C683.691 223.103 683.117 223.176 682.479 223.176C681.57 223.176 680.803 223.015 680.176 222.692C679.549 222.364 679.074 221.954 678.752 221.462C678.436 220.964 678.277 220.46 678.277 219.95H681.037C681.049 220.243 681.119 220.483 681.248 220.671C681.383 220.858 681.562 220.996 681.784 221.084C682.007 221.172 682.265 221.216 682.558 221.216C682.827 221.216 683.05 221.178 683.226 221.102C683.407 221.025 683.545 220.923 683.639 220.794C683.732 220.659 683.779 220.504 683.779 220.328ZM692.63 223.176C691.856 223.176 691.165 223.056 690.556 222.815C689.946 222.569 689.431 222.232 689.009 221.805C688.593 221.377 688.273 220.885 688.051 220.328C687.834 219.771 687.726 219.183 687.726 218.562V218.228C687.726 217.53 687.822 216.886 688.016 216.294C688.209 215.696 688.496 215.175 688.877 214.729C689.258 214.284 689.735 213.938 690.31 213.692C690.884 213.44 691.552 213.314 692.313 213.314C692.987 213.314 693.591 213.423 694.124 213.64C694.657 213.856 695.108 214.167 695.478 214.571C695.853 214.976 696.137 215.465 696.33 216.039C696.529 216.613 696.629 217.258 696.629 217.973V219.177H688.859V217.322H693.737V217.094C693.743 216.777 693.688 216.508 693.57 216.285C693.459 216.062 693.295 215.893 693.078 215.775C692.861 215.658 692.598 215.6 692.287 215.6C691.965 215.6 691.698 215.67 691.487 215.811C691.282 215.951 691.121 216.145 691.004 216.391C690.893 216.631 690.813 216.909 690.767 217.226C690.72 217.542 690.696 217.876 690.696 218.228V218.562C690.696 218.913 690.743 219.232 690.837 219.52C690.937 219.807 691.077 220.053 691.259 220.258C691.446 220.457 691.669 220.612 691.927 220.724C692.19 220.835 692.489 220.891 692.823 220.891C693.228 220.891 693.626 220.814 694.019 220.662C694.411 220.51 694.748 220.258 695.029 219.906L696.374 221.506C696.181 221.781 695.905 222.048 695.548 222.306C695.196 222.563 694.774 222.774 694.282 222.938C693.79 223.097 693.239 223.176 692.63 223.176Z" fill="white"/>
<rect x="605" y="196" width="114" height="41" rx="3" stroke="#424242" stroke-width="4"/>
<path d="M1066 0H1348C1356.28 0 1363 6.71573 1363 15V282C1363 290.284 1356.28 297 1348 297H1066V0Z" fill="white"/>
<path d="M1137.68 213.997C1172.78 178.945 1207.84 143.91 1242.88 108.892C1242.94 108.824 1242.99 108.735 1243 108.64C1243.01 108.546 1242.99 108.45 1242.94 108.369C1242.49 107.65 1241.93 106.96 1241.27 106.298C1226.64 91.6633 1212.02 77.0155 1197.42 62.3547C1196.21 61.1461 1192.94 57.4253 1191.21 57.3992C1181.21 57.2555 1171.23 57.2751 1161.23 57.3698C1157.87 57.3992 1154.95 57.5887 1151.93 58.0885C1133.83 61.0905 1122.04 77.3879 1122.03 95.1717C1122.03 139.158 1122.03 183.75 1122.04 228.945C1122.04 228.96 1122.05 228.974 1122.05 228.986C1122.06 228.999 1122.07 229.009 1122.09 229.015C1122.1 229.022 1122.11 229.025 1122.13 229.024C1122.14 229.023 1122.16 229.018 1122.17 229.01C1123.07 228.366 1123.93 227.661 1124.73 226.897C1129.14 222.673 1133.49 218.178 1137.68 213.997Z" stroke="#11426A" stroke-width="2"/>
<path d="M1211.83 58.9705C1232.29 79.7236 1269.48 116.536 1298.29 145.335C1299.39 146.439 1301.41 149.369 1302.96 148.915C1303.07 148.882 1303.12 148.81 1303.12 148.699C1303.13 118.953 1303.13 89.2078 1303.12 59.4638C1303.12 58.7015 1302.95 58.1103 1302.6 57.69C1302.57 57.6456 1302.52 57.6088 1302.47 57.5819C1302.42 57.555 1302.36 57.5384 1302.31 57.5332C1300.96 57.4156 1300.12 57.3568 1299.78 57.3568C1270.38 57.3666 1240.99 57.3666 1211.6 57.36C1211.5 57.36 1211.46 57.4068 1211.46 57.5005C1211.48 58.2475 1211.6 58.7375 1211.83 58.9705Z" stroke="#486D8C" stroke-width="2"/>
<path d="M1252.26 117.32C1213.8 155.795 1175.32 194.263 1136.83 232.705C1135.07 234.451 1133.49 236.221 1132.07 238.013C1131.86 238.281 1131.93 238.415 1132.27 238.415C1177.1 238.417 1221.91 238.416 1266.71 238.412C1270.81 238.412 1273.65 238.092 1277.22 236.925C1282.26 235.279 1286.7 232.947 1290.64 229.438C1296.81 223.947 1301.97 215.542 1302.5 207.078C1302.63 204.992 1302.69 203.133 1302.7 201.502C1302.75 190.256 1302.73 179.046 1302.64 167.871C1302.64 167.751 1302.61 167.632 1302.56 167.523C1302.51 167.414 1302.43 167.318 1302.34 167.241C1301.52 166.561 1300.7 165.81 1299.87 164.987C1284.98 150.276 1270.25 135.419 1255.66 120.416C1254.64 119.365 1253.58 118.331 1252.5 117.316C1252.42 117.24 1252.34 117.241 1252.26 117.32Z" stroke="#185384" stroke-width="2"/>
<path d="M1137.68 213.997C1133.49 218.178 1129.14 222.673 1124.73 226.897C1123.93 227.661 1123.07 228.366 1122.17 229.01C1122.16 229.019 1122.14 229.023 1122.13 229.024C1122.11 229.025 1122.1 229.022 1122.09 229.015C1122.07 229.009 1122.06 228.999 1122.05 228.986C1122.05 228.974 1122.04 228.96 1122.04 228.945C1122.03 183.75 1122.03 139.158 1122.03 95.1717C1122.04 77.3879 1133.83 61.0905 1151.93 58.0885C1154.95 57.5887 1157.87 57.3992 1161.23 57.3698C1171.23 57.2751 1181.21 57.2555 1191.21 57.3992C1192.94 57.4253 1196.21 61.1461 1197.42 62.3547C1212.02 77.0155 1226.64 91.6633 1241.27 106.298C1241.93 106.96 1242.49 107.65 1242.94 108.369C1242.99 108.45 1243.01 108.546 1243 108.64C1242.99 108.735 1242.94 108.824 1242.88 108.892C1207.84 143.91 1172.78 178.945 1137.68 213.997Z" fill="#1B68A7"/>
<path d="M1298.29 145.335C1269.48 116.536 1232.29 79.7236 1211.83 58.9705C1211.6 58.7375 1211.48 58.2475 1211.46 57.5005C1211.46 57.4068 1211.5 57.36 1211.6 57.36C1240.99 57.3666 1270.38 57.3666 1299.78 57.3568C1300.12 57.3568 1300.96 57.4156 1302.31 57.5332C1302.36 57.5384 1302.42 57.555 1302.47 57.5819C1302.52 57.6088 1302.57 57.6456 1302.6 57.69C1302.95 58.1103 1303.12 58.7015 1303.12 59.4638C1303.13 89.2078 1303.13 118.953 1303.12 148.699C1303.12 148.81 1303.07 148.882 1302.96 148.915C1301.41 149.369 1299.39 146.439 1298.29 145.335Z" fill="#89BFEC"/>
<path d="M1136.83 232.705C1175.32 194.263 1213.8 155.794 1252.26 117.32C1252.34 117.241 1252.42 117.24 1252.5 117.316C1253.58 118.331 1254.64 119.365 1255.66 120.416C1270.25 135.419 1284.98 150.276 1299.87 164.987C1300.7 165.81 1301.52 166.561 1302.34 167.241C1302.43 167.318 1302.51 167.414 1302.56 167.523C1302.61 167.632 1302.64 167.751 1302.64 167.871C1302.73 179.045 1302.75 190.256 1302.7 201.502C1302.69 203.133 1302.63 204.992 1302.5 207.078C1301.97 215.542 1296.81 223.947 1290.64 229.438C1286.7 232.947 1282.26 235.279 1277.22 236.925C1273.65 238.092 1270.81 238.412 1266.71 238.412C1221.91 238.416 1177.1 238.417 1132.27 238.415C1131.93 238.415 1131.86 238.281 1132.07 238.013C1133.49 236.221 1135.07 234.451 1136.83 232.705Z" fill="#288BDC"/>
</svg>
