<svg width="1363" height="163" viewBox="0 0 1363 163" fill="none" xmlns="http://www.w3.org/2000/svg">
<path d="M0 15C0 6.71573 6.71573 0 15 0H37V163H15C6.71573 163 0 156.284 0 148V15Z" fill="#4C68AF"/>
<rect width="1097" height="163" transform="translate(37)" fill="#F0F0F0"/>
<path d="M101.906 53.9219L94.3945 51.2383V48.0859L104.602 52.375V54.6367L101.906 53.9219ZM94.3945 56.1719L101.918 53.4297L104.602 52.7852V55.0352L94.3945 59.3242V56.1719ZM116.637 43.9375V61H113.133V43.9375H116.637ZM123.023 51.0273V61H119.648V48.3203H122.812L123.023 51.0273ZM122.531 54.2148H121.617C121.617 53.2773 121.738 52.4336 121.98 51.6836C122.223 50.9258 122.562 50.2812 123 49.75C123.438 49.2109 123.957 48.8008 124.559 48.5195C125.168 48.2305 125.848 48.0859 126.598 48.0859C127.191 48.0859 127.734 48.1719 128.227 48.3438C128.719 48.5156 129.141 48.7891 129.492 49.1641C129.852 49.5391 130.125 50.0352 130.312 50.6523C130.508 51.2695 130.605 52.0234 130.605 52.9141V61H127.207V52.9023C127.207 52.3398 127.129 51.9023 126.973 51.5898C126.816 51.2773 126.586 51.0586 126.281 50.9336C125.984 50.8008 125.617 50.7344 125.18 50.7344C124.727 50.7344 124.332 50.8242 123.996 51.0039C123.668 51.1836 123.395 51.4336 123.176 51.7539C122.965 52.0664 122.805 52.4336 122.695 52.8555C122.586 53.2773 122.531 53.7305 122.531 54.2148ZM137.484 58.5391L140.297 48.3203H143.824L139.547 61H137.414L137.484 58.5391ZM135.551 48.3203L138.375 58.5508L138.434 61H136.289L132.012 48.3203H135.551ZM151.008 61.2344C150.023 61.2344 149.141 61.0781 148.359 60.7656C147.578 60.4453 146.914 60.0039 146.367 59.4414C145.828 58.8789 145.414 58.2266 145.125 57.4844C144.836 56.7344 144.691 55.9375 144.691 55.0938V54.625C144.691 53.6641 144.828 52.7852 145.102 51.9883C145.375 51.1914 145.766 50.5 146.273 49.9141C146.789 49.3281 147.414 48.8789 148.148 48.5664C148.883 48.2461 149.711 48.0859 150.633 48.0859C151.531 48.0859 152.328 48.2344 153.023 48.5312C153.719 48.8281 154.301 49.25 154.77 49.7969C155.246 50.3438 155.605 51 155.848 51.7656C156.09 52.5234 156.211 53.3672 156.211 54.2969V55.7031H146.133V53.4531H152.895V53.1953C152.895 52.7266 152.809 52.3086 152.637 51.9414C152.473 51.5664 152.223 51.2695 151.887 51.0508C151.551 50.832 151.121 50.7227 150.598 50.7227C150.152 50.7227 149.77 50.8203 149.449 51.0156C149.129 51.2109 148.867 51.4844 148.664 51.8359C148.469 52.1875 148.32 52.6016 148.219 53.0781C148.125 53.5469 148.078 54.0625 148.078 54.625V55.0938C148.078 55.6016 148.148 56.0703 148.289 56.5C148.438 56.9297 148.645 57.3008 148.91 57.6133C149.184 57.9258 149.512 58.168 149.895 58.3398C150.285 58.5117 150.727 58.5977 151.219 58.5977C151.828 58.5977 152.395 58.4805 152.918 58.2461C153.449 58.0039 153.906 57.6406 154.289 57.1562L155.93 58.9375C155.664 59.3203 155.301 59.6875 154.84 60.0391C154.387 60.3906 153.84 60.6797 153.199 60.9062C152.559 61.125 151.828 61.2344 151.008 61.2344ZM164.988 57.4961C164.988 57.2539 164.918 57.0352 164.777 56.8398C164.637 56.6445 164.375 56.4648 163.992 56.3008C163.617 56.1289 163.074 55.9727 162.363 55.832C161.723 55.6914 161.125 55.5156 160.57 55.3047C160.023 55.0859 159.547 54.8242 159.141 54.5195C158.742 54.2148 158.43 53.8555 158.203 53.4414C157.977 53.0195 157.863 52.5391 157.863 52C157.863 51.4688 157.977 50.9688 158.203 50.5C158.438 50.0312 158.77 49.6172 159.199 49.2578C159.637 48.8906 160.168 48.6055 160.793 48.4023C161.426 48.1914 162.137 48.0859 162.926 48.0859C164.027 48.0859 164.973 48.2617 165.762 48.6133C166.559 48.9648 167.168 49.4492 167.59 50.0664C168.02 50.6758 168.234 51.3711 168.234 52.1523H164.859C164.859 51.8242 164.789 51.5312 164.648 51.2734C164.516 51.0078 164.305 50.8008 164.016 50.6523C163.734 50.4961 163.367 50.418 162.914 50.418C162.539 50.418 162.215 50.4844 161.941 50.6172C161.668 50.7422 161.457 50.9141 161.309 51.1328C161.168 51.3438 161.098 51.5781 161.098 51.8359C161.098 52.0312 161.137 52.207 161.215 52.3633C161.301 52.5117 161.438 52.6484 161.625 52.7734C161.812 52.8984 162.055 53.0156 162.352 53.125C162.656 53.2266 163.031 53.3203 163.477 53.4062C164.391 53.5938 165.207 53.8398 165.926 54.1445C166.645 54.4414 167.215 54.8477 167.637 55.3633C168.059 55.8711 168.27 56.5391 168.27 57.3672C168.27 57.9297 168.145 58.4453 167.895 58.9141C167.645 59.3828 167.285 59.793 166.816 60.1445C166.348 60.4883 165.785 60.7578 165.129 60.9531C164.48 61.1406 163.75 61.2344 162.938 61.2344C161.758 61.2344 160.758 61.0234 159.938 60.6016C159.125 60.1797 158.508 59.6445 158.086 58.9961C157.672 58.3398 157.465 57.668 157.465 56.9805H160.664C160.68 57.4414 160.797 57.8125 161.016 58.0938C161.242 58.375 161.527 58.5781 161.871 58.7031C162.223 58.8281 162.602 58.8906 163.008 58.8906C163.445 58.8906 163.809 58.832 164.098 58.7148C164.387 58.5898 164.605 58.4258 164.754 58.2227C164.91 58.0117 164.988 57.7695 164.988 57.4961ZM176.672 48.3203V50.7109H169.289V48.3203H176.672ZM171.117 45.1914H174.492V57.1797C174.492 57.5469 174.539 57.8281 174.633 58.0234C174.734 58.2188 174.883 58.3555 175.078 58.4336C175.273 58.5039 175.52 58.5391 175.816 58.5391C176.027 58.5391 176.215 58.5312 176.379 58.5156C176.551 58.4922 176.695 58.4688 176.812 58.4453L176.824 60.9297C176.535 61.0234 176.223 61.0977 175.887 61.1523C175.551 61.207 175.18 61.2344 174.773 61.2344C174.031 61.2344 173.383 61.1133 172.828 60.8711C172.281 60.6211 171.859 60.2227 171.562 59.6758C171.266 59.1289 171.117 58.4102 171.117 57.5195V45.1914ZM177.75 54.7891V54.543C177.75 53.6133 177.883 52.7578 178.148 51.9766C178.414 51.1875 178.801 50.5039 179.309 49.9258C179.816 49.3477 180.441 48.8984 181.184 48.5781C181.926 48.25 182.777 48.0859 183.738 48.0859C184.699 48.0859 185.555 48.25 186.305 48.5781C187.055 48.8984 187.684 49.3477 188.191 49.9258C188.707 50.5039 189.098 51.1875 189.363 51.9766C189.629 52.7578 189.762 53.6133 189.762 54.543V54.7891C189.762 55.7109 189.629 56.5664 189.363 57.3555C189.098 58.1367 188.707 58.8203 188.191 59.4062C187.684 59.9844 187.059 60.4336 186.316 60.7539C185.574 61.0742 184.723 61.2344 183.762 61.2344C182.801 61.2344 181.945 61.0742 181.195 60.7539C180.453 60.4336 179.824 59.9844 179.309 59.4062C178.801 58.8203 178.414 58.1367 178.148 57.3555C177.883 56.5664 177.75 55.7109 177.75 54.7891ZM181.125 54.543V54.7891C181.125 55.3203 181.172 55.8164 181.266 56.2773C181.359 56.7383 181.508 57.1445 181.711 57.4961C181.922 57.8398 182.195 58.1094 182.531 58.3047C182.867 58.5 183.277 58.5977 183.762 58.5977C184.23 58.5977 184.633 58.5 184.969 58.3047C185.305 58.1094 185.574 57.8398 185.777 57.4961C185.98 57.1445 186.129 56.7383 186.223 56.2773C186.324 55.8164 186.375 55.3203 186.375 54.7891V54.543C186.375 54.0273 186.324 53.543 186.223 53.0898C186.129 52.6289 185.977 52.2227 185.766 51.8711C185.562 51.5117 185.293 51.2305 184.957 51.0273C184.621 50.8242 184.215 50.7227 183.738 50.7227C183.262 50.7227 182.855 50.8242 182.52 51.0273C182.191 51.2305 181.922 51.5117 181.711 51.8711C181.508 52.2227 181.359 52.6289 181.266 53.0898C181.172 53.543 181.125 54.0273 181.125 54.543ZM195.211 51.0859V61H191.836V48.3203H195.012L195.211 51.0859ZM199.031 48.2383L198.973 51.3672C198.809 51.3438 198.609 51.3242 198.375 51.3086C198.148 51.2852 197.941 51.2734 197.754 51.2734C197.277 51.2734 196.863 51.3359 196.512 51.4609C196.168 51.5781 195.879 51.7539 195.645 51.9883C195.418 52.2227 195.246 52.5078 195.129 52.8438C195.02 53.1797 194.957 53.5625 194.941 53.9922L194.262 53.7812C194.262 52.9609 194.344 52.207 194.508 51.5195C194.672 50.8242 194.91 50.2188 195.223 49.7031C195.543 49.1875 195.934 48.7891 196.395 48.5078C196.855 48.2266 197.383 48.0859 197.977 48.0859C198.164 48.0859 198.355 48.1016 198.551 48.1328C198.746 48.1562 198.906 48.1914 199.031 48.2383ZM210.727 55.3398H214.23C214.16 56.4883 213.844 57.5078 213.281 58.3984C212.727 59.2891 211.949 59.9844 210.949 60.4844C209.957 60.9844 208.762 61.2344 207.363 61.2344C206.27 61.2344 205.289 61.0469 204.422 60.6719C203.555 60.2891 202.812 59.7422 202.195 59.0312C201.586 58.3203 201.121 57.4609 200.801 56.4531C200.48 55.4453 200.32 54.3164 200.32 53.0664V51.8828C200.32 50.6328 200.484 49.5039 200.812 48.4961C201.148 47.4805 201.625 46.6172 202.242 45.9062C202.867 45.1953 203.613 44.6484 204.48 44.2656C205.348 43.8828 206.316 43.6914 207.387 43.6914C208.809 43.6914 210.008 43.9492 210.984 44.4648C211.969 44.9805 212.73 45.6914 213.27 46.5977C213.816 47.5039 214.145 48.5352 214.254 49.6914H210.738C210.699 49.0039 210.562 48.4219 210.328 47.9453C210.094 47.4609 209.738 47.0977 209.262 46.8555C208.793 46.6055 208.168 46.4805 207.387 46.4805C206.801 46.4805 206.289 46.5898 205.852 46.8086C205.414 47.0273 205.047 47.3594 204.75 47.8047C204.453 48.25 204.23 48.8125 204.082 49.4922C203.941 50.1641 203.871 50.9531 203.871 51.8594V53.0664C203.871 53.9492 203.938 54.7266 204.07 55.3984C204.203 56.0625 204.406 56.625 204.68 57.0859C204.961 57.5391 205.32 57.8828 205.758 58.1172C206.203 58.3438 206.738 58.457 207.363 58.457C208.098 58.457 208.703 58.3398 209.18 58.1055C209.656 57.8711 210.02 57.5234 210.27 57.0625C210.527 56.6016 210.68 56.0273 210.727 55.3398ZM215.789 54.7891V54.543C215.789 53.6133 215.922 52.7578 216.188 51.9766C216.453 51.1875 216.84 50.5039 217.348 49.9258C217.855 49.3477 218.48 48.8984 219.223 48.5781C219.965 48.25 220.816 48.0859 221.777 48.0859C222.738 48.0859 223.594 48.25 224.344 48.5781C225.094 48.8984 225.723 49.3477 226.23 49.9258C226.746 50.5039 227.137 51.1875 227.402 51.9766C227.668 52.7578 227.801 53.6133 227.801 54.543V54.7891C227.801 55.7109 227.668 56.5664 227.402 57.3555C227.137 58.1367 226.746 58.8203 226.23 59.4062C225.723 59.9844 225.098 60.4336 224.355 60.7539C223.613 61.0742 222.762 61.2344 221.801 61.2344C220.84 61.2344 219.984 61.0742 219.234 60.7539C218.492 60.4336 217.863 59.9844 217.348 59.4062C216.84 58.8203 216.453 58.1367 216.188 57.3555C215.922 56.5664 215.789 55.7109 215.789 54.7891ZM219.164 54.543V54.7891C219.164 55.3203 219.211 55.8164 219.305 56.2773C219.398 56.7383 219.547 57.1445 219.75 57.4961C219.961 57.8398 220.234 58.1094 220.57 58.3047C220.906 58.5 221.316 58.5977 221.801 58.5977C222.27 58.5977 222.672 58.5 223.008 58.3047C223.344 58.1094 223.613 57.8398 223.816 57.4961C224.02 57.1445 224.168 56.7383 224.262 56.2773C224.363 55.8164 224.414 55.3203 224.414 54.7891V54.543C224.414 54.0273 224.363 53.543 224.262 53.0898C224.168 52.6289 224.016 52.2227 223.805 51.8711C223.602 51.5117 223.332 51.2305 222.996 51.0273C222.66 50.8242 222.254 50.7227 221.777 50.7227C221.301 50.7227 220.895 50.8242 220.559 51.0273C220.23 51.2305 219.961 51.5117 219.75 51.8711C219.547 52.2227 219.398 52.6289 219.305 53.0898C219.211 53.543 219.164 54.0273 219.164 54.543ZM233.18 51.0273V61H229.805V48.3203H232.969L233.18 51.0273ZM232.688 54.2148H231.773C231.773 53.2773 231.895 52.4336 232.137 51.6836C232.379 50.9258 232.719 50.2812 233.156 49.75C233.594 49.2109 234.113 48.8008 234.715 48.5195C235.324 48.2305 236.004 48.0859 236.754 48.0859C237.348 48.0859 237.891 48.1719 238.383 48.3438C238.875 48.5156 239.297 48.7891 239.648 49.1641C240.008 49.5391 240.281 50.0352 240.469 50.6523C240.664 51.2695 240.762 52.0234 240.762 52.9141V61H237.363V52.9023C237.363 52.3398 237.285 51.9023 237.129 51.5898C236.973 51.2773 236.742 51.0586 236.438 50.9336C236.141 50.8008 235.773 50.7344 235.336 50.7344C234.883 50.7344 234.488 50.8242 234.152 51.0039C233.824 51.1836 233.551 51.4336 233.332 51.7539C233.121 52.0664 232.961 52.4336 232.852 52.8555C232.742 53.2773 232.688 53.7305 232.688 54.2148ZM246.633 51.0273V61H243.258V48.3203H246.422L246.633 51.0273ZM246.141 54.2148H245.227C245.227 53.2773 245.348 52.4336 245.59 51.6836C245.832 50.9258 246.172 50.2812 246.609 49.75C247.047 49.2109 247.566 48.8008 248.168 48.5195C248.777 48.2305 249.457 48.0859 250.207 48.0859C250.801 48.0859 251.344 48.1719 251.836 48.3438C252.328 48.5156 252.75 48.7891 253.102 49.1641C253.461 49.5391 253.734 50.0352 253.922 50.6523C254.117 51.2695 254.215 52.0234 254.215 52.9141V61H250.816V52.9023C250.816 52.3398 250.738 51.9023 250.582 51.5898C250.426 51.2773 250.195 51.0586 249.891 50.9336C249.594 50.8008 249.227 50.7344 248.789 50.7344C248.336 50.7344 247.941 50.8242 247.605 51.0039C247.277 51.1836 247.004 51.4336 246.785 51.7539C246.574 52.0664 246.414 52.4336 246.305 52.8555C246.195 53.2773 246.141 53.7305 246.141 54.2148ZM262.617 61.2344C261.633 61.2344 260.75 61.0781 259.969 60.7656C259.188 60.4453 258.523 60.0039 257.977 59.4414C257.438 58.8789 257.023 58.2266 256.734 57.4844C256.445 56.7344 256.301 55.9375 256.301 55.0938V54.625C256.301 53.6641 256.438 52.7852 256.711 51.9883C256.984 51.1914 257.375 50.5 257.883 49.9141C258.398 49.3281 259.023 48.8789 259.758 48.5664C260.492 48.2461 261.32 48.0859 262.242 48.0859C263.141 48.0859 263.938 48.2344 264.633 48.5312C265.328 48.8281 265.91 49.25 266.379 49.7969C266.855 50.3438 267.215 51 267.457 51.7656C267.699 52.5234 267.82 53.3672 267.82 54.2969V55.7031H257.742V53.4531H264.504V53.1953C264.504 52.7266 264.418 52.3086 264.246 51.9414C264.082 51.5664 263.832 51.2695 263.496 51.0508C263.16 50.832 262.73 50.7227 262.207 50.7227C261.762 50.7227 261.379 50.8203 261.059 51.0156C260.738 51.2109 260.477 51.4844 260.273 51.8359C260.078 52.1875 259.93 52.6016 259.828 53.0781C259.734 53.5469 259.688 54.0625 259.688 54.625V55.0938C259.688 55.6016 259.758 56.0703 259.898 56.5C260.047 56.9297 260.254 57.3008 260.52 57.6133C260.793 57.9258 261.121 58.168 261.504 58.3398C261.895 58.5117 262.336 58.5977 262.828 58.5977C263.438 58.5977 264.004 58.4805 264.527 58.2461C265.059 58.0039 265.516 57.6406 265.898 57.1562L267.539 58.9375C267.273 59.3203 266.91 59.6875 266.449 60.0391C265.996 60.3906 265.449 60.6797 264.809 60.9062C264.168 61.125 263.438 61.2344 262.617 61.2344ZM274.98 58.5977C275.395 58.5977 275.762 58.5195 276.082 58.3633C276.402 58.1992 276.652 57.9727 276.832 57.6836C277.02 57.3867 277.117 57.0391 277.125 56.6406H280.301C280.293 57.5312 280.055 58.3242 279.586 59.0195C279.117 59.707 278.488 60.25 277.699 60.6484C276.91 61.0391 276.027 61.2344 275.051 61.2344C274.066 61.2344 273.207 61.0703 272.473 60.7422C271.746 60.4141 271.141 59.9609 270.656 59.3828C270.172 58.7969 269.809 58.1172 269.566 57.3438C269.324 56.5625 269.203 55.7266 269.203 54.8359V54.4961C269.203 53.5977 269.324 52.7617 269.566 51.9883C269.809 51.207 270.172 50.5273 270.656 49.9492C271.141 49.3633 271.746 48.9062 272.473 48.5781C273.199 48.25 274.051 48.0859 275.027 48.0859C276.066 48.0859 276.977 48.2852 277.758 48.6836C278.547 49.082 279.164 49.6523 279.609 50.3945C280.062 51.1289 280.293 52 280.301 53.0078H277.125C277.117 52.5859 277.027 52.2031 276.855 51.8594C276.691 51.5156 276.449 51.2422 276.129 51.0391C275.816 50.8281 275.43 50.7227 274.969 50.7227C274.477 50.7227 274.074 50.8281 273.762 51.0391C273.449 51.2422 273.207 51.5234 273.035 51.8828C272.863 52.2344 272.742 52.6367 272.672 53.0898C272.609 53.5352 272.578 54.0039 272.578 54.4961V54.8359C272.578 55.3281 272.609 55.8008 272.672 56.2539C272.734 56.707 272.852 57.1094 273.023 57.4609C273.203 57.8125 273.449 58.0898 273.762 58.293C274.074 58.4961 274.48 58.5977 274.98 58.5977ZM288.469 48.3203V50.7109H281.086V48.3203H288.469ZM282.914 45.1914H286.289V57.1797C286.289 57.5469 286.336 57.8281 286.43 58.0234C286.531 58.2188 286.68 58.3555 286.875 58.4336C287.07 58.5039 287.316 58.5391 287.613 58.5391C287.824 58.5391 288.012 58.5312 288.176 58.5156C288.348 58.4922 288.492 58.4688 288.609 58.4453L288.621 60.9297C288.332 61.0234 288.02 61.0977 287.684 61.1523C287.348 61.207 286.977 61.2344 286.57 61.2344C285.828 61.2344 285.18 61.1133 284.625 60.8711C284.078 60.6211 283.656 60.2227 283.359 59.6758C283.062 59.1289 282.914 58.4102 282.914 57.5195V45.1914Z" fill="#888888"/>
<path d="M106.688 119H99.1172L99.1641 112.672H106.688C108.25 112.672 109.57 112.297 110.648 111.547C111.742 110.797 112.57 109.68 113.133 108.195C113.711 106.695 114 104.852 114 102.664V101.188C114 99.5469 113.836 98.1094 113.508 96.875C113.195 95.625 112.727 94.5859 112.102 93.7578C111.477 92.9141 110.695 92.2812 109.758 91.8594C108.836 91.4375 107.773 91.2266 106.57 91.2266H98.9766V84.875H106.57C108.883 84.875 111 85.2734 112.922 86.0703C114.859 86.8516 116.531 87.9766 117.938 89.4453C119.359 90.8984 120.453 92.625 121.219 94.625C122 96.6094 122.391 98.8125 122.391 101.234V102.664C122.391 105.07 122 107.273 121.219 109.273C120.453 111.273 119.367 113 117.961 114.453C116.555 115.906 114.891 117.031 112.969 117.828C111.062 118.609 108.969 119 106.688 119ZM103.828 84.875V119H95.6016V84.875H103.828ZM138.586 119.469C136.523 119.469 134.68 119.148 133.055 118.508C131.43 117.852 130.055 116.953 128.93 115.812C127.82 114.672 126.969 113.359 126.375 111.875C125.797 110.391 125.508 108.82 125.508 107.164V106.273C125.508 104.414 125.766 102.695 126.281 101.117C126.797 99.5234 127.562 98.1328 128.578 96.9453C129.594 95.7578 130.867 94.8359 132.398 94.1797C133.93 93.5078 135.711 93.1719 137.742 93.1719C139.539 93.1719 141.148 93.4609 142.57 94.0391C143.992 94.6172 145.195 95.4453 146.18 96.5234C147.18 97.6016 147.938 98.9062 148.453 100.438C148.984 101.969 149.25 103.688 149.25 105.594V108.805H128.531V103.859H141.539V103.25C141.555 102.406 141.406 101.688 141.094 101.094C140.797 100.5 140.359 100.047 139.781 99.7344C139.203 99.4219 138.5 99.2656 137.672 99.2656C136.812 99.2656 136.102 99.4531 135.539 99.8281C134.992 100.203 134.562 100.719 134.25 101.375C133.953 102.016 133.742 102.758 133.617 103.602C133.492 104.445 133.43 105.336 133.43 106.273V107.164C133.43 108.102 133.555 108.953 133.805 109.719C134.07 110.484 134.445 111.141 134.93 111.688C135.43 112.219 136.023 112.633 136.711 112.93C137.414 113.227 138.211 113.375 139.102 113.375C140.18 113.375 141.242 113.172 142.289 112.766C143.336 112.359 144.234 111.688 144.984 110.75L148.57 115.016C148.055 115.75 147.32 116.461 146.367 117.148C145.43 117.836 144.305 118.398 142.992 118.836C141.68 119.258 140.211 119.469 138.586 119.469ZM160.43 99.0078V119H152.531V93.6406H159.938L160.43 99.0078ZM159.469 105.453L157.664 105.5C157.664 103.719 157.875 102.078 158.297 100.578C158.719 99.0781 159.344 97.7734 160.172 96.6641C161 95.5547 162.016 94.6953 163.219 94.0859C164.438 93.4766 165.844 93.1719 167.438 93.1719C168.547 93.1719 169.555 93.3438 170.461 93.6875C171.367 94.0156 172.148 94.5391 172.805 95.2578C173.461 95.9609 173.961 96.8828 174.305 98.0234C174.664 99.1484 174.844 100.5 174.844 102.078V119H166.945V103.086C166.945 102.008 166.82 101.195 166.57 100.648C166.336 100.102 165.992 99.7344 165.539 99.5469C165.086 99.3594 164.531 99.2656 163.875 99.2656C163.188 99.2656 162.57 99.4219 162.023 99.7344C161.477 100.047 161.008 100.484 160.617 101.047C160.242 101.594 159.953 102.242 159.75 102.992C159.562 103.742 159.469 104.562 159.469 105.453ZM173.953 105.453L171.75 105.5C171.75 103.719 171.945 102.078 172.336 100.578C172.742 99.0781 173.344 97.7734 174.141 96.6641C174.953 95.5547 175.961 94.6953 177.164 94.0859C178.367 93.4766 179.766 93.1719 181.359 93.1719C182.516 93.1719 183.578 93.3438 184.547 93.6875C185.516 94.0312 186.352 94.5859 187.055 95.3516C187.758 96.1172 188.305 97.1328 188.695 98.3984C189.086 99.6484 189.281 101.195 189.281 103.039V119H181.359V103.039C181.359 101.992 181.234 101.203 180.984 100.672C180.75 100.125 180.406 99.7578 179.953 99.5703C179.5 99.3672 178.961 99.2656 178.336 99.2656C177.586 99.2656 176.938 99.4219 176.391 99.7344C175.844 100.047 175.383 100.484 175.008 101.047C174.648 101.594 174.383 102.242 174.211 102.992C174.039 103.742 173.953 104.562 173.953 105.453ZM192.82 106.578V106.086C192.82 104.227 193.086 102.516 193.617 100.953C194.148 99.375 194.93 98.0078 195.961 96.8516C196.992 95.6953 198.266 94.7969 199.781 94.1562C201.297 93.5 203.047 93.1719 205.031 93.1719C207.031 93.1719 208.789 93.5 210.305 94.1562C211.836 94.7969 213.117 95.6953 214.148 96.8516C215.18 98.0078 215.961 99.375 216.492 100.953C217.023 102.516 217.289 104.227 217.289 106.086V106.578C217.289 108.422 217.023 110.133 216.492 111.711C215.961 113.273 215.18 114.641 214.148 115.812C213.117 116.969 211.844 117.867 210.328 118.508C208.812 119.148 207.062 119.469 205.078 119.469C203.094 119.469 201.336 119.148 199.805 118.508C198.273 117.867 196.992 116.969 195.961 115.812C194.93 114.641 194.148 113.273 193.617 111.711C193.086 110.133 192.82 108.422 192.82 106.578ZM200.719 106.086V106.578C200.719 107.531 200.789 108.422 200.93 109.25C201.07 110.078 201.305 110.805 201.633 111.43C201.961 112.039 202.406 112.516 202.969 112.859C203.531 113.203 204.234 113.375 205.078 113.375C205.906 113.375 206.594 113.203 207.141 112.859C207.703 112.516 208.148 112.039 208.477 111.43C208.805 110.805 209.039 110.078 209.18 109.25C209.32 108.422 209.391 107.531 209.391 106.578V106.086C209.391 105.164 209.32 104.297 209.18 103.484C209.039 102.656 208.805 101.93 208.477 101.305C208.148 100.664 207.703 100.164 207.141 99.8047C206.578 99.4453 205.875 99.2656 205.031 99.2656C204.203 99.2656 203.508 99.4453 202.945 99.8047C202.398 100.164 201.961 100.664 201.633 101.305C201.305 101.93 201.07 102.656 200.93 103.484C200.789 104.297 200.719 105.164 200.719 106.086Z" fill="black"/>
<path d="M1134 0H1348C1356.28 0 1363 6.71573 1363 15V148C1363 156.284 1356.28 163 1348 163H1134V0Z" fill="#4C68AF"/>
<path d="M1281 46.5H1216L1213.5 49V114L1216 116.5H1281L1283.5 114V49L1281 46.5ZM1278.5 111.5H1233.5V101.5H1245C1246.5 104.5 1250 106.5 1253.5 106.5C1259 106.5 1263.5 102 1263.5 96.5C1263.5 91 1259 86.5 1253.5 86.5C1248 86.5 1243.5 91 1243.5 96.5H1228.5V111.5H1218.5V51.5H1228.5V63C1225.5 64.5 1223.5 68 1223.5 71.5C1223.5 77 1228 81.5 1233.5 81.5C1239 81.5 1243.5 77 1243.5 71.5H1253.5C1253.5 77 1258 81.5 1263.5 81.5C1269 81.5 1273.5 77 1273.5 71.5C1273.5 66 1269 61.5 1263.5 61.5C1260 61.5 1256.5 63.5 1255 66.5H1242C1240.5 63.5 1237 61.5 1233.5 61.5V51.5H1278.5V111.5ZM1248.5 96.5C1248.5 93.5 1250.5 91.5 1253.5 91.5C1256.5 91.5 1258.5 93.5 1258.5 96.5C1258.5 99.5 1256.5 101.5 1253.5 101.5C1250.5 101.5 1248.5 99.5 1248.5 96.5ZM1233.5 66.5C1236.5 66.5 1238.5 68.5 1238.5 71.5C1238.5 74.5 1236.5 76.5 1233.5 76.5C1230.5 76.5 1228.5 74.5 1228.5 71.5C1228.5 68.5 1230.5 66.5 1233.5 66.5ZM1263.5 66.5C1266.5 66.5 1268.5 68.5 1268.5 71.5C1268.5 74.5 1266.5 76.5 1263.5 76.5C1260.5 76.5 1258.5 74.5 1258.5 71.5C1258.5 68.5 1260.5 66.5 1263.5 66.5Z" fill="white"/>
</svg>
