<svg width="1363" height="163" viewBox="0 0 1363 163" fill="none" xmlns="http://www.w3.org/2000/svg">
<path d="M0 15C0 6.71573 6.71573 0 15 0H37V163H15C6.71573 163 0 156.284 0 148V15Z" fill="#4C68AF"/>
<rect width="1097" height="163" transform="translate(37)" fill="#F0F0F0"/>
<path d="M101.906 53.9219L94.3945 51.2383V48.0859L104.602 52.375V54.6367L101.906 53.9219ZM94.3945 56.1719L101.918 53.4297L104.602 52.7852V55.0352L94.3945 59.3242V56.1719ZM116.637 43.9375V61H113.133V43.9375H116.637ZM123.023 51.0273V61H119.648V48.3203H122.812L123.023 51.0273ZM122.531 54.2148H121.617C121.617 53.2773 121.738 52.4336 121.98 51.6836C122.223 50.9258 122.562 50.2812 123 49.75C123.438 49.2109 123.957 48.8008 124.559 48.5195C125.168 48.2305 125.848 48.0859 126.598 48.0859C127.191 48.0859 127.734 48.1719 128.227 48.3438C128.719 48.5156 129.141 48.7891 129.492 49.1641C129.852 49.5391 130.125 50.0352 130.312 50.6523C130.508 51.2695 130.605 52.0234 130.605 52.9141V61H127.207V52.9023C127.207 52.3398 127.129 51.9023 126.973 51.5898C126.816 51.2773 126.586 51.0586 126.281 50.9336C125.984 50.8008 125.617 50.7344 125.18 50.7344C124.727 50.7344 124.332 50.8242 123.996 51.0039C123.668 51.1836 123.395 51.4336 123.176 51.7539C122.965 52.0664 122.805 52.4336 122.695 52.8555C122.586 53.2773 122.531 53.7305 122.531 54.2148ZM137.484 58.5391L140.297 48.3203H143.824L139.547 61H137.414L137.484 58.5391ZM135.551 48.3203L138.375 58.5508L138.434 61H136.289L132.012 48.3203H135.551ZM151.008 61.2344C150.023 61.2344 149.141 61.0781 148.359 60.7656C147.578 60.4453 146.914 60.0039 146.367 59.4414C145.828 58.8789 145.414 58.2266 145.125 57.4844C144.836 56.7344 144.691 55.9375 144.691 55.0938V54.625C144.691 53.6641 144.828 52.7852 145.102 51.9883C145.375 51.1914 145.766 50.5 146.273 49.9141C146.789 49.3281 147.414 48.8789 148.148 48.5664C148.883 48.2461 149.711 48.0859 150.633 48.0859C151.531 48.0859 152.328 48.2344 153.023 48.5312C153.719 48.8281 154.301 49.25 154.77 49.7969C155.246 50.3438 155.605 51 155.848 51.7656C156.09 52.5234 156.211 53.3672 156.211 54.2969V55.7031H146.133V53.4531H152.895V53.1953C152.895 52.7266 152.809 52.3086 152.637 51.9414C152.473 51.5664 152.223 51.2695 151.887 51.0508C151.551 50.832 151.121 50.7227 150.598 50.7227C150.152 50.7227 149.77 50.8203 149.449 51.0156C149.129 51.2109 148.867 51.4844 148.664 51.8359C148.469 52.1875 148.32 52.6016 148.219 53.0781C148.125 53.5469 148.078 54.0625 148.078 54.625V55.0938C148.078 55.6016 148.148 56.0703 148.289 56.5C148.438 56.9297 148.645 57.3008 148.91 57.6133C149.184 57.9258 149.512 58.168 149.895 58.3398C150.285 58.5117 150.727 58.5977 151.219 58.5977C151.828 58.5977 152.395 58.4805 152.918 58.2461C153.449 58.0039 153.906 57.6406 154.289 57.1562L155.93 58.9375C155.664 59.3203 155.301 59.6875 154.84 60.0391C154.387 60.3906 153.84 60.6797 153.199 60.9062C152.559 61.125 151.828 61.2344 151.008 61.2344ZM164.988 57.4961C164.988 57.2539 164.918 57.0352 164.777 56.8398C164.637 56.6445 164.375 56.4648 163.992 56.3008C163.617 56.1289 163.074 55.9727 162.363 55.832C161.723 55.6914 161.125 55.5156 160.57 55.3047C160.023 55.0859 159.547 54.8242 159.141 54.5195C158.742 54.2148 158.43 53.8555 158.203 53.4414C157.977 53.0195 157.863 52.5391 157.863 52C157.863 51.4688 157.977 50.9688 158.203 50.5C158.438 50.0312 158.77 49.6172 159.199 49.2578C159.637 48.8906 160.168 48.6055 160.793 48.4023C161.426 48.1914 162.137 48.0859 162.926 48.0859C164.027 48.0859 164.973 48.2617 165.762 48.6133C166.559 48.9648 167.168 49.4492 167.59 50.0664C168.02 50.6758 168.234 51.3711 168.234 52.1523H164.859C164.859 51.8242 164.789 51.5312 164.648 51.2734C164.516 51.0078 164.305 50.8008 164.016 50.6523C163.734 50.4961 163.367 50.418 162.914 50.418C162.539 50.418 162.215 50.4844 161.941 50.6172C161.668 50.7422 161.457 50.9141 161.309 51.1328C161.168 51.3438 161.098 51.5781 161.098 51.8359C161.098 52.0312 161.137 52.207 161.215 52.3633C161.301 52.5117 161.438 52.6484 161.625 52.7734C161.812 52.8984 162.055 53.0156 162.352 53.125C162.656 53.2266 163.031 53.3203 163.477 53.4062C164.391 53.5938 165.207 53.8398 165.926 54.1445C166.645 54.4414 167.215 54.8477 167.637 55.3633C168.059 55.8711 168.27 56.5391 168.27 57.3672C168.27 57.9297 168.145 58.4453 167.895 58.9141C167.645 59.3828 167.285 59.793 166.816 60.1445C166.348 60.4883 165.785 60.7578 165.129 60.9531C164.48 61.1406 163.75 61.2344 162.938 61.2344C161.758 61.2344 160.758 61.0234 159.938 60.6016C159.125 60.1797 158.508 59.6445 158.086 58.9961C157.672 58.3398 157.465 57.668 157.465 56.9805H160.664C160.68 57.4414 160.797 57.8125 161.016 58.0938C161.242 58.375 161.527 58.5781 161.871 58.7031C162.223 58.8281 162.602 58.8906 163.008 58.8906C163.445 58.8906 163.809 58.832 164.098 58.7148C164.387 58.5898 164.605 58.4258 164.754 58.2227C164.91 58.0117 164.988 57.7695 164.988 57.4961ZM176.672 48.3203V50.7109H169.289V48.3203H176.672ZM171.117 45.1914H174.492V57.1797C174.492 57.5469 174.539 57.8281 174.633 58.0234C174.734 58.2188 174.883 58.3555 175.078 58.4336C175.273 58.5039 175.52 58.5391 175.816 58.5391C176.027 58.5391 176.215 58.5312 176.379 58.5156C176.551 58.4922 176.695 58.4688 176.812 58.4453L176.824 60.9297C176.535 61.0234 176.223 61.0977 175.887 61.1523C175.551 61.207 175.18 61.2344 174.773 61.2344C174.031 61.2344 173.383 61.1133 172.828 60.8711C172.281 60.6211 171.859 60.2227 171.562 59.6758C171.266 59.1289 171.117 58.4102 171.117 57.5195V45.1914ZM177.75 54.7891V54.543C177.75 53.6133 177.883 52.7578 178.148 51.9766C178.414 51.1875 178.801 50.5039 179.309 49.9258C179.816 49.3477 180.441 48.8984 181.184 48.5781C181.926 48.25 182.777 48.0859 183.738 48.0859C184.699 48.0859 185.555 48.25 186.305 48.5781C187.055 48.8984 187.684 49.3477 188.191 49.9258C188.707 50.5039 189.098 51.1875 189.363 51.9766C189.629 52.7578 189.762 53.6133 189.762 54.543V54.7891C189.762 55.7109 189.629 56.5664 189.363 57.3555C189.098 58.1367 188.707 58.8203 188.191 59.4062C187.684 59.9844 187.059 60.4336 186.316 60.7539C185.574 61.0742 184.723 61.2344 183.762 61.2344C182.801 61.2344 181.945 61.0742 181.195 60.7539C180.453 60.4336 179.824 59.9844 179.309 59.4062C178.801 58.8203 178.414 58.1367 178.148 57.3555C177.883 56.5664 177.75 55.7109 177.75 54.7891ZM181.125 54.543V54.7891C181.125 55.3203 181.172 55.8164 181.266 56.2773C181.359 56.7383 181.508 57.1445 181.711 57.4961C181.922 57.8398 182.195 58.1094 182.531 58.3047C182.867 58.5 183.277 58.5977 183.762 58.5977C184.23 58.5977 184.633 58.5 184.969 58.3047C185.305 58.1094 185.574 57.8398 185.777 57.4961C185.98 57.1445 186.129 56.7383 186.223 56.2773C186.324 55.8164 186.375 55.3203 186.375 54.7891V54.543C186.375 54.0273 186.324 53.543 186.223 53.0898C186.129 52.6289 185.977 52.2227 185.766 51.8711C185.562 51.5117 185.293 51.2305 184.957 51.0273C184.621 50.8242 184.215 50.7227 183.738 50.7227C183.262 50.7227 182.855 50.8242 182.52 51.0273C182.191 51.2305 181.922 51.5117 181.711 51.8711C181.508 52.2227 181.359 52.6289 181.266 53.0898C181.172 53.543 181.125 54.0273 181.125 54.543ZM195.211 51.0859V61H191.836V48.3203H195.012L195.211 51.0859ZM199.031 48.2383L198.973 51.3672C198.809 51.3438 198.609 51.3242 198.375 51.3086C198.148 51.2852 197.941 51.2734 197.754 51.2734C197.277 51.2734 196.863 51.3359 196.512 51.4609C196.168 51.5781 195.879 51.7539 195.645 51.9883C195.418 52.2227 195.246 52.5078 195.129 52.8438C195.02 53.1797 194.957 53.5625 194.941 53.9922L194.262 53.7812C194.262 52.9609 194.344 52.207 194.508 51.5195C194.672 50.8242 194.91 50.2188 195.223 49.7031C195.543 49.1875 195.934 48.7891 196.395 48.5078C196.855 48.2266 197.383 48.0859 197.977 48.0859C198.164 48.0859 198.355 48.1016 198.551 48.1328C198.746 48.1562 198.906 48.1914 199.031 48.2383ZM210.727 55.3398H214.23C214.16 56.4883 213.844 57.5078 213.281 58.3984C212.727 59.2891 211.949 59.9844 210.949 60.4844C209.957 60.9844 208.762 61.2344 207.363 61.2344C206.27 61.2344 205.289 61.0469 204.422 60.6719C203.555 60.2891 202.812 59.7422 202.195 59.0312C201.586 58.3203 201.121 57.4609 200.801 56.4531C200.48 55.4453 200.32 54.3164 200.32 53.0664V51.8828C200.32 50.6328 200.484 49.5039 200.812 48.4961C201.148 47.4805 201.625 46.6172 202.242 45.9062C202.867 45.1953 203.613 44.6484 204.48 44.2656C205.348 43.8828 206.316 43.6914 207.387 43.6914C208.809 43.6914 210.008 43.9492 210.984 44.4648C211.969 44.9805 212.73 45.6914 213.27 46.5977C213.816 47.5039 214.145 48.5352 214.254 49.6914H210.738C210.699 49.0039 210.562 48.4219 210.328 47.9453C210.094 47.4609 209.738 47.0977 209.262 46.8555C208.793 46.6055 208.168 46.4805 207.387 46.4805C206.801 46.4805 206.289 46.5898 205.852 46.8086C205.414 47.0273 205.047 47.3594 204.75 47.8047C204.453 48.25 204.23 48.8125 204.082 49.4922C203.941 50.1641 203.871 50.9531 203.871 51.8594V53.0664C203.871 53.9492 203.938 54.7266 204.07 55.3984C204.203 56.0625 204.406 56.625 204.68 57.0859C204.961 57.5391 205.32 57.8828 205.758 58.1172C206.203 58.3438 206.738 58.457 207.363 58.457C208.098 58.457 208.703 58.3398 209.18 58.1055C209.656 57.8711 210.02 57.5234 210.27 57.0625C210.527 56.6016 210.68 56.0273 210.727 55.3398ZM215.789 54.7891V54.543C215.789 53.6133 215.922 52.7578 216.188 51.9766C216.453 51.1875 216.84 50.5039 217.348 49.9258C217.855 49.3477 218.48 48.8984 219.223 48.5781C219.965 48.25 220.816 48.0859 221.777 48.0859C222.738 48.0859 223.594 48.25 224.344 48.5781C225.094 48.8984 225.723 49.3477 226.23 49.9258C226.746 50.5039 227.137 51.1875 227.402 51.9766C227.668 52.7578 227.801 53.6133 227.801 54.543V54.7891C227.801 55.7109 227.668 56.5664 227.402 57.3555C227.137 58.1367 226.746 58.8203 226.23 59.4062C225.723 59.9844 225.098 60.4336 224.355 60.7539C223.613 61.0742 222.762 61.2344 221.801 61.2344C220.84 61.2344 219.984 61.0742 219.234 60.7539C218.492 60.4336 217.863 59.9844 217.348 59.4062C216.84 58.8203 216.453 58.1367 216.188 57.3555C215.922 56.5664 215.789 55.7109 215.789 54.7891ZM219.164 54.543V54.7891C219.164 55.3203 219.211 55.8164 219.305 56.2773C219.398 56.7383 219.547 57.1445 219.75 57.4961C219.961 57.8398 220.234 58.1094 220.57 58.3047C220.906 58.5 221.316 58.5977 221.801 58.5977C222.27 58.5977 222.672 58.5 223.008 58.3047C223.344 58.1094 223.613 57.8398 223.816 57.4961C224.02 57.1445 224.168 56.7383 224.262 56.2773C224.363 55.8164 224.414 55.3203 224.414 54.7891V54.543C224.414 54.0273 224.363 53.543 224.262 53.0898C224.168 52.6289 224.016 52.2227 223.805 51.8711C223.602 51.5117 223.332 51.2305 222.996 51.0273C222.66 50.8242 222.254 50.7227 221.777 50.7227C221.301 50.7227 220.895 50.8242 220.559 51.0273C220.23 51.2305 219.961 51.5117 219.75 51.8711C219.547 52.2227 219.398 52.6289 219.305 53.0898C219.211 53.543 219.164 54.0273 219.164 54.543ZM233.18 51.0273V61H229.805V48.3203H232.969L233.18 51.0273ZM232.688 54.2148H231.773C231.773 53.2773 231.895 52.4336 232.137 51.6836C232.379 50.9258 232.719 50.2812 233.156 49.75C233.594 49.2109 234.113 48.8008 234.715 48.5195C235.324 48.2305 236.004 48.0859 236.754 48.0859C237.348 48.0859 237.891 48.1719 238.383 48.3438C238.875 48.5156 239.297 48.7891 239.648 49.1641C240.008 49.5391 240.281 50.0352 240.469 50.6523C240.664 51.2695 240.762 52.0234 240.762 52.9141V61H237.363V52.9023C237.363 52.3398 237.285 51.9023 237.129 51.5898C236.973 51.2773 236.742 51.0586 236.438 50.9336C236.141 50.8008 235.773 50.7344 235.336 50.7344C234.883 50.7344 234.488 50.8242 234.152 51.0039C233.824 51.1836 233.551 51.4336 233.332 51.7539C233.121 52.0664 232.961 52.4336 232.852 52.8555C232.742 53.2773 232.688 53.7305 232.688 54.2148ZM246.633 51.0273V61H243.258V48.3203H246.422L246.633 51.0273ZM246.141 54.2148H245.227C245.227 53.2773 245.348 52.4336 245.59 51.6836C245.832 50.9258 246.172 50.2812 246.609 49.75C247.047 49.2109 247.566 48.8008 248.168 48.5195C248.777 48.2305 249.457 48.0859 250.207 48.0859C250.801 48.0859 251.344 48.1719 251.836 48.3438C252.328 48.5156 252.75 48.7891 253.102 49.1641C253.461 49.5391 253.734 50.0352 253.922 50.6523C254.117 51.2695 254.215 52.0234 254.215 52.9141V61H250.816V52.9023C250.816 52.3398 250.738 51.9023 250.582 51.5898C250.426 51.2773 250.195 51.0586 249.891 50.9336C249.594 50.8008 249.227 50.7344 248.789 50.7344C248.336 50.7344 247.941 50.8242 247.605 51.0039C247.277 51.1836 247.004 51.4336 246.785 51.7539C246.574 52.0664 246.414 52.4336 246.305 52.8555C246.195 53.2773 246.141 53.7305 246.141 54.2148ZM262.617 61.2344C261.633 61.2344 260.75 61.0781 259.969 60.7656C259.188 60.4453 258.523 60.0039 257.977 59.4414C257.438 58.8789 257.023 58.2266 256.734 57.4844C256.445 56.7344 256.301 55.9375 256.301 55.0938V54.625C256.301 53.6641 256.438 52.7852 256.711 51.9883C256.984 51.1914 257.375 50.5 257.883 49.9141C258.398 49.3281 259.023 48.8789 259.758 48.5664C260.492 48.2461 261.32 48.0859 262.242 48.0859C263.141 48.0859 263.938 48.2344 264.633 48.5312C265.328 48.8281 265.91 49.25 266.379 49.7969C266.855 50.3438 267.215 51 267.457 51.7656C267.699 52.5234 267.82 53.3672 267.82 54.2969V55.7031H257.742V53.4531H264.504V53.1953C264.504 52.7266 264.418 52.3086 264.246 51.9414C264.082 51.5664 263.832 51.2695 263.496 51.0508C263.16 50.832 262.73 50.7227 262.207 50.7227C261.762 50.7227 261.379 50.8203 261.059 51.0156C260.738 51.2109 260.477 51.4844 260.273 51.8359C260.078 52.1875 259.93 52.6016 259.828 53.0781C259.734 53.5469 259.688 54.0625 259.688 54.625V55.0938C259.688 55.6016 259.758 56.0703 259.898 56.5C260.047 56.9297 260.254 57.3008 260.52 57.6133C260.793 57.9258 261.121 58.168 261.504 58.3398C261.895 58.5117 262.336 58.5977 262.828 58.5977C263.438 58.5977 264.004 58.4805 264.527 58.2461C265.059 58.0039 265.516 57.6406 265.898 57.1562L267.539 58.9375C267.273 59.3203 266.91 59.6875 266.449 60.0391C265.996 60.3906 265.449 60.6797 264.809 60.9062C264.168 61.125 263.438 61.2344 262.617 61.2344ZM274.98 58.5977C275.395 58.5977 275.762 58.5195 276.082 58.3633C276.402 58.1992 276.652 57.9727 276.832 57.6836C277.02 57.3867 277.117 57.0391 277.125 56.6406H280.301C280.293 57.5312 280.055 58.3242 279.586 59.0195C279.117 59.707 278.488 60.25 277.699 60.6484C276.91 61.0391 276.027 61.2344 275.051 61.2344C274.066 61.2344 273.207 61.0703 272.473 60.7422C271.746 60.4141 271.141 59.9609 270.656 59.3828C270.172 58.7969 269.809 58.1172 269.566 57.3438C269.324 56.5625 269.203 55.7266 269.203 54.8359V54.4961C269.203 53.5977 269.324 52.7617 269.566 51.9883C269.809 51.207 270.172 50.5273 270.656 49.9492C271.141 49.3633 271.746 48.9062 272.473 48.5781C273.199 48.25 274.051 48.0859 275.027 48.0859C276.066 48.0859 276.977 48.2852 277.758 48.6836C278.547 49.082 279.164 49.6523 279.609 50.3945C280.062 51.1289 280.293 52 280.301 53.0078H277.125C277.117 52.5859 277.027 52.2031 276.855 51.8594C276.691 51.5156 276.449 51.2422 276.129 51.0391C275.816 50.8281 275.43 50.7227 274.969 50.7227C274.477 50.7227 274.074 50.8281 273.762 51.0391C273.449 51.2422 273.207 51.5234 273.035 51.8828C272.863 52.2344 272.742 52.6367 272.672 53.0898C272.609 53.5352 272.578 54.0039 272.578 54.4961V54.8359C272.578 55.3281 272.609 55.8008 272.672 56.2539C272.734 56.707 272.852 57.1094 273.023 57.4609C273.203 57.8125 273.449 58.0898 273.762 58.293C274.074 58.4961 274.48 58.5977 274.98 58.5977ZM288.469 48.3203V50.7109H281.086V48.3203H288.469ZM282.914 45.1914H286.289V57.1797C286.289 57.5469 286.336 57.8281 286.43 58.0234C286.531 58.2188 286.68 58.3555 286.875 58.4336C287.07 58.5039 287.316 58.5391 287.613 58.5391C287.824 58.5391 288.012 58.5312 288.176 58.5156C288.348 58.4922 288.492 58.4688 288.609 58.4453L288.621 60.9297C288.332 61.0234 288.02 61.0977 287.684 61.1523C287.348 61.207 286.977 61.2344 286.57 61.2344C285.828 61.2344 285.18 61.1133 284.625 60.8711C284.078 60.6211 283.656 60.2227 283.359 59.6758C283.062 59.1289 282.914 58.4102 282.914 57.5195V45.1914Z" fill="#888888"/>
<path d="M114.117 84.875H122.344V107.164C122.344 109.82 121.789 112.07 120.68 113.914C119.57 115.742 118.016 117.125 116.016 118.062C114.016 119 111.664 119.469 108.961 119.469C106.289 119.469 103.938 119 101.906 118.062C99.8906 117.125 98.3125 115.742 97.1719 113.914C96.0469 112.07 95.4844 109.82 95.4844 107.164V84.875H103.734V107.164C103.734 108.57 103.938 109.719 104.344 110.609C104.75 111.484 105.344 112.125 106.125 112.531C106.906 112.938 107.852 113.141 108.961 113.141C110.086 113.141 111.031 112.938 111.797 112.531C112.562 112.125 113.141 111.484 113.531 110.609C113.922 109.719 114.117 108.57 114.117 107.164V84.875ZM140.438 111.875C140.438 111.438 140.289 111.062 139.992 110.75C139.711 110.422 139.211 110.125 138.492 109.859C137.773 109.578 136.766 109.297 135.469 109.016C134.234 108.75 133.07 108.398 131.977 107.961C130.898 107.523 129.953 106.992 129.141 106.367C128.328 105.742 127.688 105 127.219 104.141C126.766 103.281 126.539 102.297 126.539 101.188C126.539 100.109 126.766 99.0938 127.219 98.1406C127.688 97.1719 128.367 96.3203 129.258 95.5859C130.164 94.8359 131.266 94.25 132.562 93.8281C133.859 93.3906 135.336 93.1719 136.992 93.1719C139.273 93.1719 141.242 93.5234 142.898 94.2266C144.555 94.9141 145.828 95.8828 146.719 97.1328C147.625 98.3672 148.078 99.7969 148.078 101.422H140.18C140.18 100.781 140.07 100.234 139.852 99.7812C139.648 99.3281 139.312 98.9844 138.844 98.75C138.375 98.5 137.75 98.375 136.969 98.375C136.422 98.375 135.922 98.4766 135.469 98.6797C135.031 98.8828 134.68 99.1641 134.414 99.5234C134.148 99.8828 134.016 100.305 134.016 100.789C134.016 101.133 134.094 101.445 134.25 101.727C134.422 101.992 134.68 102.242 135.023 102.477C135.367 102.695 135.805 102.898 136.336 103.086C136.867 103.258 137.508 103.414 138.258 103.555C139.961 103.867 141.555 104.312 143.039 104.891C144.523 105.469 145.727 106.289 146.648 107.352C147.586 108.414 148.055 109.844 148.055 111.641C148.055 112.766 147.797 113.805 147.281 114.758C146.766 115.695 146.023 116.523 145.055 117.242C144.086 117.945 142.922 118.492 141.562 118.883C140.203 119.273 138.672 119.469 136.969 119.469C134.547 119.469 132.5 119.039 130.828 118.18C129.156 117.305 127.891 116.211 127.031 114.898C126.188 113.57 125.766 112.227 125.766 110.867H133.125C133.156 111.648 133.344 112.289 133.688 112.789C134.047 113.289 134.523 113.656 135.117 113.891C135.711 114.125 136.398 114.242 137.18 114.242C137.898 114.242 138.492 114.141 138.961 113.938C139.445 113.734 139.812 113.461 140.062 113.117C140.312 112.758 140.438 112.344 140.438 111.875ZM164.039 119.469C161.977 119.469 160.133 119.148 158.508 118.508C156.883 117.852 155.508 116.953 154.383 115.812C153.273 114.672 152.422 113.359 151.828 111.875C151.25 110.391 150.961 108.82 150.961 107.164V106.273C150.961 104.414 151.219 102.695 151.734 101.117C152.25 99.5234 153.016 98.1328 154.031 96.9453C155.047 95.7578 156.32 94.8359 157.852 94.1797C159.383 93.5078 161.164 93.1719 163.195 93.1719C164.992 93.1719 166.602 93.4609 168.023 94.0391C169.445 94.6172 170.648 95.4453 171.633 96.5234C172.633 97.6016 173.391 98.9062 173.906 100.438C174.438 101.969 174.703 103.688 174.703 105.594V108.805H153.984V103.859H166.992V103.25C167.008 102.406 166.859 101.688 166.547 101.094C166.25 100.5 165.812 100.047 165.234 99.7344C164.656 99.4219 163.953 99.2656 163.125 99.2656C162.266 99.2656 161.555 99.4531 160.992 99.8281C160.445 100.203 160.016 100.719 159.703 101.375C159.406 102.016 159.195 102.758 159.07 103.602C158.945 104.445 158.883 105.336 158.883 106.273V107.164C158.883 108.102 159.008 108.953 159.258 109.719C159.523 110.484 159.898 111.141 160.383 111.688C160.883 112.219 161.477 112.633 162.164 112.93C162.867 113.227 163.664 113.375 164.555 113.375C165.633 113.375 166.695 113.172 167.742 112.766C168.789 112.359 169.688 111.688 170.438 110.75L174.023 115.016C173.508 115.75 172.773 116.461 171.82 117.148C170.883 117.836 169.758 118.398 168.445 118.836C167.133 119.258 165.664 119.469 164.039 119.469ZM185.883 99.9219V119H177.984V93.6406H185.367L185.883 99.9219ZM193.383 93.4531L193.242 100.789C192.93 100.758 192.508 100.719 191.977 100.672C191.445 100.625 191 100.602 190.641 100.602C189.719 100.602 188.922 100.711 188.25 100.93C187.594 101.133 187.047 101.445 186.609 101.867C186.188 102.273 185.875 102.789 185.672 103.414C185.484 104.039 185.398 104.766 185.414 105.594L183.984 104.656C183.984 102.953 184.148 101.406 184.477 100.016C184.82 98.6094 185.305 97.3984 185.93 96.3828C186.555 95.3516 187.312 94.5625 188.203 94.0156C189.094 93.4531 190.094 93.1719 191.203 93.1719C191.594 93.1719 191.977 93.1953 192.352 93.2422C192.742 93.2891 193.086 93.3594 193.383 93.4531ZM223.547 84.875V119H215.32V84.875H223.547ZM233.812 84.875V91.2266H205.289V84.875H233.812ZM242.789 116.023L249.352 93.6406H257.836L247.641 122.773C247.422 123.414 247.133 124.102 246.773 124.836C246.414 125.586 245.922 126.297 245.297 126.969C244.672 127.641 243.867 128.188 242.883 128.609C241.914 129.031 240.711 129.242 239.273 129.242C238.508 129.242 237.945 129.203 237.586 129.125C237.242 129.062 236.711 128.945 235.992 128.773V123.125C236.195 123.125 236.367 123.125 236.508 123.125C236.664 123.125 236.836 123.125 237.023 123.125C237.867 123.125 238.539 123.039 239.039 122.867C239.555 122.695 239.945 122.445 240.211 122.117C240.492 121.789 240.711 121.391 240.867 120.922L242.789 116.023ZM241.125 93.6406L246.117 111.383L246.984 119.75H241.688L232.664 93.6406H241.125ZM267.867 98.5156V128.75H259.969V93.6406H267.328L267.867 98.5156ZM283.43 106.016V106.508C283.43 108.352 283.219 110.062 282.797 111.641C282.375 113.219 281.75 114.594 280.922 115.766C280.094 116.938 279.062 117.852 277.828 118.508C276.609 119.148 275.195 119.469 273.586 119.469C272.07 119.469 270.766 119.133 269.672 118.461C268.578 117.789 267.664 116.859 266.93 115.672C266.195 114.484 265.602 113.125 265.148 111.594C264.695 110.062 264.336 108.445 264.07 106.742V106.109C264.336 104.281 264.695 102.586 265.148 101.023C265.602 99.4453 266.195 98.0703 266.93 96.8984C267.664 95.7266 268.57 94.8125 269.648 94.1562C270.742 93.5 272.047 93.1719 273.562 93.1719C275.172 93.1719 276.586 93.4766 277.805 94.0859C279.039 94.6953 280.07 95.5703 280.898 96.7109C281.742 97.8359 282.375 99.1875 282.797 100.766C283.219 102.344 283.43 104.094 283.43 106.016ZM275.531 106.508V106.016C275.531 105.031 275.461 104.133 275.32 103.32C275.18 102.492 274.953 101.773 274.641 101.164C274.344 100.555 273.945 100.086 273.445 99.7578C272.945 99.4297 272.328 99.2656 271.594 99.2656C270.75 99.2656 270.039 99.3984 269.461 99.6641C268.898 99.9141 268.445 100.305 268.102 100.836C267.773 101.352 267.539 102 267.398 102.781C267.273 103.547 267.219 104.445 267.234 105.477V107.398C267.203 108.586 267.32 109.633 267.586 110.539C267.852 111.43 268.312 112.125 268.969 112.625C269.625 113.125 270.516 113.375 271.641 113.375C272.391 113.375 273.016 113.203 273.516 112.859C274.016 112.5 274.414 112.008 274.711 111.383C275.008 110.742 275.219 110.008 275.344 109.18C275.469 108.352 275.531 107.461 275.531 106.508ZM299.227 119.469C297.164 119.469 295.32 119.148 293.695 118.508C292.07 117.852 290.695 116.953 289.57 115.812C288.461 114.672 287.609 113.359 287.016 111.875C286.438 110.391 286.148 108.82 286.148 107.164V106.273C286.148 104.414 286.406 102.695 286.922 101.117C287.438 99.5234 288.203 98.1328 289.219 96.9453C290.234 95.7578 291.508 94.8359 293.039 94.1797C294.57 93.5078 296.352 93.1719 298.383 93.1719C300.18 93.1719 301.789 93.4609 303.211 94.0391C304.633 94.6172 305.836 95.4453 306.82 96.5234C307.82 97.6016 308.578 98.9062 309.094 100.438C309.625 101.969 309.891 103.688 309.891 105.594V108.805H289.172V103.859H302.18V103.25C302.195 102.406 302.047 101.688 301.734 101.094C301.438 100.5 301 100.047 300.422 99.7344C299.844 99.4219 299.141 99.2656 298.312 99.2656C297.453 99.2656 296.742 99.4531 296.18 99.8281C295.633 100.203 295.203 100.719 294.891 101.375C294.594 102.016 294.383 102.758 294.258 103.602C294.133 104.445 294.07 105.336 294.07 106.273V107.164C294.07 108.102 294.195 108.953 294.445 109.719C294.711 110.484 295.086 111.141 295.57 111.688C296.07 112.219 296.664 112.633 297.352 112.93C298.055 113.227 298.852 113.375 299.742 113.375C300.82 113.375 301.883 113.172 302.93 112.766C303.977 112.359 304.875 111.688 305.625 110.75L309.211 115.016C308.695 115.75 307.961 116.461 307.008 117.148C306.07 117.836 304.945 118.398 303.633 118.836C302.32 119.258 300.852 119.469 299.227 119.469ZM326.391 111.875C326.391 111.438 326.242 111.062 325.945 110.75C325.664 110.422 325.164 110.125 324.445 109.859C323.727 109.578 322.719 109.297 321.422 109.016C320.188 108.75 319.023 108.398 317.93 107.961C316.852 107.523 315.906 106.992 315.094 106.367C314.281 105.742 313.641 105 313.172 104.141C312.719 103.281 312.492 102.297 312.492 101.188C312.492 100.109 312.719 99.0938 313.172 98.1406C313.641 97.1719 314.32 96.3203 315.211 95.5859C316.117 94.8359 317.219 94.25 318.516 93.8281C319.812 93.3906 321.289 93.1719 322.945 93.1719C325.227 93.1719 327.195 93.5234 328.852 94.2266C330.508 94.9141 331.781 95.8828 332.672 97.1328C333.578 98.3672 334.031 99.7969 334.031 101.422H326.133C326.133 100.781 326.023 100.234 325.805 99.7812C325.602 99.3281 325.266 98.9844 324.797 98.75C324.328 98.5 323.703 98.375 322.922 98.375C322.375 98.375 321.875 98.4766 321.422 98.6797C320.984 98.8828 320.633 99.1641 320.367 99.5234C320.102 99.8828 319.969 100.305 319.969 100.789C319.969 101.133 320.047 101.445 320.203 101.727C320.375 101.992 320.633 102.242 320.977 102.477C321.32 102.695 321.758 102.898 322.289 103.086C322.82 103.258 323.461 103.414 324.211 103.555C325.914 103.867 327.508 104.312 328.992 104.891C330.477 105.469 331.68 106.289 332.602 107.352C333.539 108.414 334.008 109.844 334.008 111.641C334.008 112.766 333.75 113.805 333.234 114.758C332.719 115.695 331.977 116.523 331.008 117.242C330.039 117.945 328.875 118.492 327.516 118.883C326.156 119.273 324.625 119.469 322.922 119.469C320.5 119.469 318.453 119.039 316.781 118.18C315.109 117.305 313.844 116.211 312.984 114.898C312.141 113.57 311.719 112.227 311.719 110.867H319.078C319.109 111.648 319.297 112.289 319.641 112.789C320 113.289 320.477 113.656 321.07 113.891C321.664 114.125 322.352 114.242 323.133 114.242C323.852 114.242 324.445 114.141 324.914 113.938C325.398 113.734 325.766 113.461 326.016 113.117C326.266 112.758 326.391 112.344 326.391 111.875Z" fill="black"/>
<path d="M1134 0H1348C1356.28 0 1363 6.71573 1363 15V148C1363 156.284 1356.28 163 1348 163H1134V0Z" fill="#4C68AF"/>
<path d="M1202.65 74.9375C1209.88 74.9375 1215.75 69.0518 1215.75 61.8125C1215.75 54.5732 1209.88 48.6875 1202.65 48.6875C1195.42 48.6875 1189.55 54.5732 1189.55 61.8125C1189.55 69.0518 1195.42 74.9375 1202.65 74.9375ZM1294.35 74.9375C1301.58 74.9375 1307.45 69.0518 1307.45 61.8125C1307.45 54.5732 1301.58 48.6875 1294.35 48.6875C1287.12 48.6875 1281.25 54.5732 1281.25 61.8125C1281.25 69.0518 1287.12 74.9375 1294.35 74.9375ZM1300.9 81.5H1287.8C1284.2 81.5 1280.94 82.9561 1278.57 85.3145C1286.82 89.8467 1292.67 98.0293 1293.94 107.75H1307.45C1311.07 107.75 1314 104.817 1314 101.188V94.625C1314 87.3857 1308.13 81.5 1300.9 81.5ZM1248.5 81.5C1261.17 81.5 1271.43 71.2256 1271.43 58.5312C1271.43 45.8369 1261.17 35.5625 1248.5 35.5625C1235.83 35.5625 1225.58 45.8369 1225.58 58.5312C1225.58 71.2256 1235.83 81.5 1248.5 81.5ZM1264.22 88.0625H1262.52C1258.26 90.1133 1253.54 91.3438 1248.5 91.3438C1243.46 91.3438 1238.76 90.1133 1234.48 88.0625H1232.78C1219.76 88.0625 1209.2 98.6445 1209.2 111.688V117.594C1209.2 123.028 1213.6 127.438 1219.03 127.438H1277.98C1283.4 127.438 1287.8 123.028 1287.8 117.594V111.688C1287.8 98.6445 1277.24 88.0625 1264.22 88.0625ZM1218.43 85.3145C1216.06 82.9561 1212.8 81.5 1209.2 81.5H1196.1C1188.87 81.5 1183 87.3857 1183 94.625V101.188C1183 104.817 1185.93 107.75 1189.55 107.75H1203.04C1204.33 98.0293 1210.18 89.8467 1218.43 85.3145Z" fill="#F8F8F8"/>
</svg>
