<svg width="1363" height="163" viewBox="0 0 1363 163" fill="none" xmlns="http://www.w3.org/2000/svg">
<path d="M0 15C0 6.71573 6.71573 0 15 0H37V163H15C6.71573 163 0 156.284 0 148V15Z" fill="#4C68AF"/>
<rect width="1097" height="163" transform="translate(37)" fill="#F0F0F0"/>
<path d="M101.906 53.9219L94.3945 51.2383V48.0859L104.602 52.375V54.6367L101.906 53.9219ZM94.3945 56.1719L101.918 53.4297L104.602 52.7852V55.0352L94.3945 59.3242V56.1719ZM116.637 43.9375V61H113.133V43.9375H116.637ZM123.023 51.0273V61H119.648V48.3203H122.812L123.023 51.0273ZM122.531 54.2148H121.617C121.617 53.2773 121.738 52.4336 121.98 51.6836C122.223 50.9258 122.562 50.2812 123 49.75C123.438 49.2109 123.957 48.8008 124.559 48.5195C125.168 48.2305 125.848 48.0859 126.598 48.0859C127.191 48.0859 127.734 48.1719 128.227 48.3438C128.719 48.5156 129.141 48.7891 129.492 49.1641C129.852 49.5391 130.125 50.0352 130.312 50.6523C130.508 51.2695 130.605 52.0234 130.605 52.9141V61H127.207V52.9023C127.207 52.3398 127.129 51.9023 126.973 51.5898C126.816 51.2773 126.586 51.0586 126.281 50.9336C125.984 50.8008 125.617 50.7344 125.18 50.7344C124.727 50.7344 124.332 50.8242 123.996 51.0039C123.668 51.1836 123.395 51.4336 123.176 51.7539C122.965 52.0664 122.805 52.4336 122.695 52.8555C122.586 53.2773 122.531 53.7305 122.531 54.2148ZM137.484 58.5391L140.297 48.3203H143.824L139.547 61H137.414L137.484 58.5391ZM135.551 48.3203L138.375 58.5508L138.434 61H136.289L132.012 48.3203H135.551ZM151.008 61.2344C150.023 61.2344 149.141 61.0781 148.359 60.7656C147.578 60.4453 146.914 60.0039 146.367 59.4414C145.828 58.8789 145.414 58.2266 145.125 57.4844C144.836 56.7344 144.691 55.9375 144.691 55.0938V54.625C144.691 53.6641 144.828 52.7852 145.102 51.9883C145.375 51.1914 145.766 50.5 146.273 49.9141C146.789 49.3281 147.414 48.8789 148.148 48.5664C148.883 48.2461 149.711 48.0859 150.633 48.0859C151.531 48.0859 152.328 48.2344 153.023 48.5312C153.719 48.8281 154.301 49.25 154.77 49.7969C155.246 50.3438 155.605 51 155.848 51.7656C156.09 52.5234 156.211 53.3672 156.211 54.2969V55.7031H146.133V53.4531H152.895V53.1953C152.895 52.7266 152.809 52.3086 152.637 51.9414C152.473 51.5664 152.223 51.2695 151.887 51.0508C151.551 50.832 151.121 50.7227 150.598 50.7227C150.152 50.7227 149.77 50.8203 149.449 51.0156C149.129 51.2109 148.867 51.4844 148.664 51.8359C148.469 52.1875 148.32 52.6016 148.219 53.0781C148.125 53.5469 148.078 54.0625 148.078 54.625V55.0938C148.078 55.6016 148.148 56.0703 148.289 56.5C148.438 56.9297 148.645 57.3008 148.91 57.6133C149.184 57.9258 149.512 58.168 149.895 58.3398C150.285 58.5117 150.727 58.5977 151.219 58.5977C151.828 58.5977 152.395 58.4805 152.918 58.2461C153.449 58.0039 153.906 57.6406 154.289 57.1562L155.93 58.9375C155.664 59.3203 155.301 59.6875 154.84 60.0391C154.387 60.3906 153.84 60.6797 153.199 60.9062C152.559 61.125 151.828 61.2344 151.008 61.2344ZM164.988 57.4961C164.988 57.2539 164.918 57.0352 164.777 56.8398C164.637 56.6445 164.375 56.4648 163.992 56.3008C163.617 56.1289 163.074 55.9727 162.363 55.832C161.723 55.6914 161.125 55.5156 160.57 55.3047C160.023 55.0859 159.547 54.8242 159.141 54.5195C158.742 54.2148 158.43 53.8555 158.203 53.4414C157.977 53.0195 157.863 52.5391 157.863 52C157.863 51.4688 157.977 50.9688 158.203 50.5C158.438 50.0312 158.77 49.6172 159.199 49.2578C159.637 48.8906 160.168 48.6055 160.793 48.4023C161.426 48.1914 162.137 48.0859 162.926 48.0859C164.027 48.0859 164.973 48.2617 165.762 48.6133C166.559 48.9648 167.168 49.4492 167.59 50.0664C168.02 50.6758 168.234 51.3711 168.234 52.1523H164.859C164.859 51.8242 164.789 51.5312 164.648 51.2734C164.516 51.0078 164.305 50.8008 164.016 50.6523C163.734 50.4961 163.367 50.418 162.914 50.418C162.539 50.418 162.215 50.4844 161.941 50.6172C161.668 50.7422 161.457 50.9141 161.309 51.1328C161.168 51.3438 161.098 51.5781 161.098 51.8359C161.098 52.0312 161.137 52.207 161.215 52.3633C161.301 52.5117 161.438 52.6484 161.625 52.7734C161.812 52.8984 162.055 53.0156 162.352 53.125C162.656 53.2266 163.031 53.3203 163.477 53.4062C164.391 53.5938 165.207 53.8398 165.926 54.1445C166.645 54.4414 167.215 54.8477 167.637 55.3633C168.059 55.8711 168.27 56.5391 168.27 57.3672C168.27 57.9297 168.145 58.4453 167.895 58.9141C167.645 59.3828 167.285 59.793 166.816 60.1445C166.348 60.4883 165.785 60.7578 165.129 60.9531C164.48 61.1406 163.75 61.2344 162.938 61.2344C161.758 61.2344 160.758 61.0234 159.938 60.6016C159.125 60.1797 158.508 59.6445 158.086 58.9961C157.672 58.3398 157.465 57.668 157.465 56.9805H160.664C160.68 57.4414 160.797 57.8125 161.016 58.0938C161.242 58.375 161.527 58.5781 161.871 58.7031C162.223 58.8281 162.602 58.8906 163.008 58.8906C163.445 58.8906 163.809 58.832 164.098 58.7148C164.387 58.5898 164.605 58.4258 164.754 58.2227C164.91 58.0117 164.988 57.7695 164.988 57.4961ZM176.672 48.3203V50.7109H169.289V48.3203H176.672ZM171.117 45.1914H174.492V57.1797C174.492 57.5469 174.539 57.8281 174.633 58.0234C174.734 58.2188 174.883 58.3555 175.078 58.4336C175.273 58.5039 175.52 58.5391 175.816 58.5391C176.027 58.5391 176.215 58.5312 176.379 58.5156C176.551 58.4922 176.695 58.4688 176.812 58.4453L176.824 60.9297C176.535 61.0234 176.223 61.0977 175.887 61.1523C175.551 61.207 175.18 61.2344 174.773 61.2344C174.031 61.2344 173.383 61.1133 172.828 60.8711C172.281 60.6211 171.859 60.2227 171.562 59.6758C171.266 59.1289 171.117 58.4102 171.117 57.5195V45.1914ZM177.75 54.7891V54.543C177.75 53.6133 177.883 52.7578 178.148 51.9766C178.414 51.1875 178.801 50.5039 179.309 49.9258C179.816 49.3477 180.441 48.8984 181.184 48.5781C181.926 48.25 182.777 48.0859 183.738 48.0859C184.699 48.0859 185.555 48.25 186.305 48.5781C187.055 48.8984 187.684 49.3477 188.191 49.9258C188.707 50.5039 189.098 51.1875 189.363 51.9766C189.629 52.7578 189.762 53.6133 189.762 54.543V54.7891C189.762 55.7109 189.629 56.5664 189.363 57.3555C189.098 58.1367 188.707 58.8203 188.191 59.4062C187.684 59.9844 187.059 60.4336 186.316 60.7539C185.574 61.0742 184.723 61.2344 183.762 61.2344C182.801 61.2344 181.945 61.0742 181.195 60.7539C180.453 60.4336 179.824 59.9844 179.309 59.4062C178.801 58.8203 178.414 58.1367 178.148 57.3555C177.883 56.5664 177.75 55.7109 177.75 54.7891ZM181.125 54.543V54.7891C181.125 55.3203 181.172 55.8164 181.266 56.2773C181.359 56.7383 181.508 57.1445 181.711 57.4961C181.922 57.8398 182.195 58.1094 182.531 58.3047C182.867 58.5 183.277 58.5977 183.762 58.5977C184.23 58.5977 184.633 58.5 184.969 58.3047C185.305 58.1094 185.574 57.8398 185.777 57.4961C185.98 57.1445 186.129 56.7383 186.223 56.2773C186.324 55.8164 186.375 55.3203 186.375 54.7891V54.543C186.375 54.0273 186.324 53.543 186.223 53.0898C186.129 52.6289 185.977 52.2227 185.766 51.8711C185.562 51.5117 185.293 51.2305 184.957 51.0273C184.621 50.8242 184.215 50.7227 183.738 50.7227C183.262 50.7227 182.855 50.8242 182.52 51.0273C182.191 51.2305 181.922 51.5117 181.711 51.8711C181.508 52.2227 181.359 52.6289 181.266 53.0898C181.172 53.543 181.125 54.0273 181.125 54.543ZM195.211 51.0859V61H191.836V48.3203H195.012L195.211 51.0859ZM199.031 48.2383L198.973 51.3672C198.809 51.3438 198.609 51.3242 198.375 51.3086C198.148 51.2852 197.941 51.2734 197.754 51.2734C197.277 51.2734 196.863 51.3359 196.512 51.4609C196.168 51.5781 195.879 51.7539 195.645 51.9883C195.418 52.2227 195.246 52.5078 195.129 52.8438C195.02 53.1797 194.957 53.5625 194.941 53.9922L194.262 53.7812C194.262 52.9609 194.344 52.207 194.508 51.5195C194.672 50.8242 194.91 50.2188 195.223 49.7031C195.543 49.1875 195.934 48.7891 196.395 48.5078C196.855 48.2266 197.383 48.0859 197.977 48.0859C198.164 48.0859 198.355 48.1016 198.551 48.1328C198.746 48.1562 198.906 48.1914 199.031 48.2383ZM210.727 55.3398H214.23C214.16 56.4883 213.844 57.5078 213.281 58.3984C212.727 59.2891 211.949 59.9844 210.949 60.4844C209.957 60.9844 208.762 61.2344 207.363 61.2344C206.27 61.2344 205.289 61.0469 204.422 60.6719C203.555 60.2891 202.812 59.7422 202.195 59.0312C201.586 58.3203 201.121 57.4609 200.801 56.4531C200.48 55.4453 200.32 54.3164 200.32 53.0664V51.8828C200.32 50.6328 200.484 49.5039 200.812 48.4961C201.148 47.4805 201.625 46.6172 202.242 45.9062C202.867 45.1953 203.613 44.6484 204.48 44.2656C205.348 43.8828 206.316 43.6914 207.387 43.6914C208.809 43.6914 210.008 43.9492 210.984 44.4648C211.969 44.9805 212.73 45.6914 213.27 46.5977C213.816 47.5039 214.145 48.5352 214.254 49.6914H210.738C210.699 49.0039 210.562 48.4219 210.328 47.9453C210.094 47.4609 209.738 47.0977 209.262 46.8555C208.793 46.6055 208.168 46.4805 207.387 46.4805C206.801 46.4805 206.289 46.5898 205.852 46.8086C205.414 47.0273 205.047 47.3594 204.75 47.8047C204.453 48.25 204.23 48.8125 204.082 49.4922C203.941 50.1641 203.871 50.9531 203.871 51.8594V53.0664C203.871 53.9492 203.938 54.7266 204.07 55.3984C204.203 56.0625 204.406 56.625 204.68 57.0859C204.961 57.5391 205.32 57.8828 205.758 58.1172C206.203 58.3438 206.738 58.457 207.363 58.457C208.098 58.457 208.703 58.3398 209.18 58.1055C209.656 57.8711 210.02 57.5234 210.27 57.0625C210.527 56.6016 210.68 56.0273 210.727 55.3398ZM215.789 54.7891V54.543C215.789 53.6133 215.922 52.7578 216.188 51.9766C216.453 51.1875 216.84 50.5039 217.348 49.9258C217.855 49.3477 218.48 48.8984 219.223 48.5781C219.965 48.25 220.816 48.0859 221.777 48.0859C222.738 48.0859 223.594 48.25 224.344 48.5781C225.094 48.8984 225.723 49.3477 226.23 49.9258C226.746 50.5039 227.137 51.1875 227.402 51.9766C227.668 52.7578 227.801 53.6133 227.801 54.543V54.7891C227.801 55.7109 227.668 56.5664 227.402 57.3555C227.137 58.1367 226.746 58.8203 226.23 59.4062C225.723 59.9844 225.098 60.4336 224.355 60.7539C223.613 61.0742 222.762 61.2344 221.801 61.2344C220.84 61.2344 219.984 61.0742 219.234 60.7539C218.492 60.4336 217.863 59.9844 217.348 59.4062C216.84 58.8203 216.453 58.1367 216.188 57.3555C215.922 56.5664 215.789 55.7109 215.789 54.7891ZM219.164 54.543V54.7891C219.164 55.3203 219.211 55.8164 219.305 56.2773C219.398 56.7383 219.547 57.1445 219.75 57.4961C219.961 57.8398 220.234 58.1094 220.57 58.3047C220.906 58.5 221.316 58.5977 221.801 58.5977C222.27 58.5977 222.672 58.5 223.008 58.3047C223.344 58.1094 223.613 57.8398 223.816 57.4961C224.02 57.1445 224.168 56.7383 224.262 56.2773C224.363 55.8164 224.414 55.3203 224.414 54.7891V54.543C224.414 54.0273 224.363 53.543 224.262 53.0898C224.168 52.6289 224.016 52.2227 223.805 51.8711C223.602 51.5117 223.332 51.2305 222.996 51.0273C222.66 50.8242 222.254 50.7227 221.777 50.7227C221.301 50.7227 220.895 50.8242 220.559 51.0273C220.23 51.2305 219.961 51.5117 219.75 51.8711C219.547 52.2227 219.398 52.6289 219.305 53.0898C219.211 53.543 219.164 54.0273 219.164 54.543ZM233.18 51.0273V61H229.805V48.3203H232.969L233.18 51.0273ZM232.688 54.2148H231.773C231.773 53.2773 231.895 52.4336 232.137 51.6836C232.379 50.9258 232.719 50.2812 233.156 49.75C233.594 49.2109 234.113 48.8008 234.715 48.5195C235.324 48.2305 236.004 48.0859 236.754 48.0859C237.348 48.0859 237.891 48.1719 238.383 48.3438C238.875 48.5156 239.297 48.7891 239.648 49.1641C240.008 49.5391 240.281 50.0352 240.469 50.6523C240.664 51.2695 240.762 52.0234 240.762 52.9141V61H237.363V52.9023C237.363 52.3398 237.285 51.9023 237.129 51.5898C236.973 51.2773 236.742 51.0586 236.438 50.9336C236.141 50.8008 235.773 50.7344 235.336 50.7344C234.883 50.7344 234.488 50.8242 234.152 51.0039C233.824 51.1836 233.551 51.4336 233.332 51.7539C233.121 52.0664 232.961 52.4336 232.852 52.8555C232.742 53.2773 232.688 53.7305 232.688 54.2148ZM246.633 51.0273V61H243.258V48.3203H246.422L246.633 51.0273ZM246.141 54.2148H245.227C245.227 53.2773 245.348 52.4336 245.59 51.6836C245.832 50.9258 246.172 50.2812 246.609 49.75C247.047 49.2109 247.566 48.8008 248.168 48.5195C248.777 48.2305 249.457 48.0859 250.207 48.0859C250.801 48.0859 251.344 48.1719 251.836 48.3438C252.328 48.5156 252.75 48.7891 253.102 49.1641C253.461 49.5391 253.734 50.0352 253.922 50.6523C254.117 51.2695 254.215 52.0234 254.215 52.9141V61H250.816V52.9023C250.816 52.3398 250.738 51.9023 250.582 51.5898C250.426 51.2773 250.195 51.0586 249.891 50.9336C249.594 50.8008 249.227 50.7344 248.789 50.7344C248.336 50.7344 247.941 50.8242 247.605 51.0039C247.277 51.1836 247.004 51.4336 246.785 51.7539C246.574 52.0664 246.414 52.4336 246.305 52.8555C246.195 53.2773 246.141 53.7305 246.141 54.2148ZM262.617 61.2344C261.633 61.2344 260.75 61.0781 259.969 60.7656C259.188 60.4453 258.523 60.0039 257.977 59.4414C257.438 58.8789 257.023 58.2266 256.734 57.4844C256.445 56.7344 256.301 55.9375 256.301 55.0938V54.625C256.301 53.6641 256.438 52.7852 256.711 51.9883C256.984 51.1914 257.375 50.5 257.883 49.9141C258.398 49.3281 259.023 48.8789 259.758 48.5664C260.492 48.2461 261.32 48.0859 262.242 48.0859C263.141 48.0859 263.938 48.2344 264.633 48.5312C265.328 48.8281 265.91 49.25 266.379 49.7969C266.855 50.3438 267.215 51 267.457 51.7656C267.699 52.5234 267.82 53.3672 267.82 54.2969V55.7031H257.742V53.4531H264.504V53.1953C264.504 52.7266 264.418 52.3086 264.246 51.9414C264.082 51.5664 263.832 51.2695 263.496 51.0508C263.16 50.832 262.73 50.7227 262.207 50.7227C261.762 50.7227 261.379 50.8203 261.059 51.0156C260.738 51.2109 260.477 51.4844 260.273 51.8359C260.078 52.1875 259.93 52.6016 259.828 53.0781C259.734 53.5469 259.688 54.0625 259.688 54.625V55.0938C259.688 55.6016 259.758 56.0703 259.898 56.5C260.047 56.9297 260.254 57.3008 260.52 57.6133C260.793 57.9258 261.121 58.168 261.504 58.3398C261.895 58.5117 262.336 58.5977 262.828 58.5977C263.438 58.5977 264.004 58.4805 264.527 58.2461C265.059 58.0039 265.516 57.6406 265.898 57.1562L267.539 58.9375C267.273 59.3203 266.91 59.6875 266.449 60.0391C265.996 60.3906 265.449 60.6797 264.809 60.9062C264.168 61.125 263.438 61.2344 262.617 61.2344ZM274.98 58.5977C275.395 58.5977 275.762 58.5195 276.082 58.3633C276.402 58.1992 276.652 57.9727 276.832 57.6836C277.02 57.3867 277.117 57.0391 277.125 56.6406H280.301C280.293 57.5312 280.055 58.3242 279.586 59.0195C279.117 59.707 278.488 60.25 277.699 60.6484C276.91 61.0391 276.027 61.2344 275.051 61.2344C274.066 61.2344 273.207 61.0703 272.473 60.7422C271.746 60.4141 271.141 59.9609 270.656 59.3828C270.172 58.7969 269.809 58.1172 269.566 57.3438C269.324 56.5625 269.203 55.7266 269.203 54.8359V54.4961C269.203 53.5977 269.324 52.7617 269.566 51.9883C269.809 51.207 270.172 50.5273 270.656 49.9492C271.141 49.3633 271.746 48.9062 272.473 48.5781C273.199 48.25 274.051 48.0859 275.027 48.0859C276.066 48.0859 276.977 48.2852 277.758 48.6836C278.547 49.082 279.164 49.6523 279.609 50.3945C280.062 51.1289 280.293 52 280.301 53.0078H277.125C277.117 52.5859 277.027 52.2031 276.855 51.8594C276.691 51.5156 276.449 51.2422 276.129 51.0391C275.816 50.8281 275.43 50.7227 274.969 50.7227C274.477 50.7227 274.074 50.8281 273.762 51.0391C273.449 51.2422 273.207 51.5234 273.035 51.8828C272.863 52.2344 272.742 52.6367 272.672 53.0898C272.609 53.5352 272.578 54.0039 272.578 54.4961V54.8359C272.578 55.3281 272.609 55.8008 272.672 56.2539C272.734 56.707 272.852 57.1094 273.023 57.4609C273.203 57.8125 273.449 58.0898 273.762 58.293C274.074 58.4961 274.48 58.5977 274.98 58.5977ZM288.469 48.3203V50.7109H281.086V48.3203H288.469ZM282.914 45.1914H286.289V57.1797C286.289 57.5469 286.336 57.8281 286.43 58.0234C286.531 58.2188 286.68 58.3555 286.875 58.4336C287.07 58.5039 287.316 58.5391 287.613 58.5391C287.824 58.5391 288.012 58.5312 288.176 58.5156C288.348 58.4922 288.492 58.4688 288.609 58.4453L288.621 60.9297C288.332 61.0234 288.02 61.0977 287.684 61.1523C287.348 61.207 286.977 61.2344 286.57 61.2344C285.828 61.2344 285.18 61.1133 284.625 60.8711C284.078 60.6211 283.656 60.2227 283.359 59.6758C283.062 59.1289 282.914 58.4102 282.914 57.5195V45.1914Z" fill="#888888"/>
<path d="M112.125 84.875V119H103.898V84.875H112.125ZM122.391 84.875V91.2266H93.8672V84.875H122.391ZM135.68 119.469C133.617 119.469 131.773 119.148 130.148 118.508C128.523 117.852 127.148 116.953 126.023 115.812C124.914 114.672 124.062 113.359 123.469 111.875C122.891 110.391 122.602 108.82 122.602 107.164V106.273C122.602 104.414 122.859 102.695 123.375 101.117C123.891 99.5234 124.656 98.1328 125.672 96.9453C126.688 95.7578 127.961 94.8359 129.492 94.1797C131.023 93.5078 132.805 93.1719 134.836 93.1719C136.633 93.1719 138.242 93.4609 139.664 94.0391C141.086 94.6172 142.289 95.4453 143.273 96.5234C144.273 97.6016 145.031 98.9062 145.547 100.438C146.078 101.969 146.344 103.688 146.344 105.594V108.805H125.625V103.859H138.633V103.25C138.648 102.406 138.5 101.688 138.188 101.094C137.891 100.5 137.453 100.047 136.875 99.7344C136.297 99.4219 135.594 99.2656 134.766 99.2656C133.906 99.2656 133.195 99.4531 132.633 99.8281C132.086 100.203 131.656 100.719 131.344 101.375C131.047 102.016 130.836 102.758 130.711 103.602C130.586 104.445 130.523 105.336 130.523 106.273V107.164C130.523 108.102 130.648 108.953 130.898 109.719C131.164 110.484 131.539 111.141 132.023 111.688C132.523 112.219 133.117 112.633 133.805 112.93C134.508 113.227 135.305 113.375 136.195 113.375C137.273 113.375 138.336 113.172 139.383 112.766C140.43 112.359 141.328 111.688 142.078 110.75L145.664 115.016C145.148 115.75 144.414 116.461 143.461 117.148C142.523 117.836 141.398 118.398 140.086 118.836C138.773 119.258 137.305 119.469 135.68 119.469ZM160.266 113.375C161 113.375 161.625 113.242 162.141 112.977C162.672 112.695 163.07 112.305 163.336 111.805C163.617 111.289 163.75 110.672 163.734 109.953H171.164C171.18 111.859 170.711 113.531 169.758 114.969C168.82 116.391 167.539 117.5 165.914 118.297C164.305 119.078 162.484 119.469 160.453 119.469C158.469 119.469 156.734 119.148 155.25 118.508C153.766 117.852 152.523 116.945 151.523 115.789C150.539 114.617 149.797 113.25 149.297 111.688C148.812 110.125 148.57 108.43 148.57 106.602V106.062C148.57 104.234 148.812 102.539 149.297 100.977C149.797 99.3984 150.539 98.0312 151.523 96.875C152.523 95.7031 153.758 94.7969 155.227 94.1562C156.711 93.5 158.438 93.1719 160.406 93.1719C162.516 93.1719 164.375 93.5703 165.984 94.3672C167.609 95.1641 168.883 96.3203 169.805 97.8359C170.727 99.3516 171.18 101.188 171.164 103.344H163.734C163.75 102.578 163.633 101.891 163.383 101.281C163.133 100.672 162.742 100.188 162.211 99.8281C161.695 99.4531 161.031 99.2656 160.219 99.2656C159.406 99.2656 158.75 99.4453 158.25 99.8047C157.75 100.164 157.367 100.664 157.102 101.305C156.852 101.93 156.68 102.648 156.586 103.461C156.508 104.273 156.469 105.141 156.469 106.062V106.602C156.469 107.539 156.508 108.422 156.586 109.25C156.68 110.062 156.859 110.781 157.125 111.406C157.391 112.016 157.773 112.5 158.273 112.859C158.773 113.203 159.438 113.375 160.266 113.375ZM182.273 83V119H174.375V83H182.273ZM181.336 105.453L179.484 105.5C179.484 103.719 179.703 102.078 180.141 100.578C180.578 99.0781 181.203 97.7734 182.016 96.6641C182.828 95.5547 183.805 94.6953 184.945 94.0859C186.086 93.4766 187.352 93.1719 188.742 93.1719C189.992 93.1719 191.133 93.3516 192.164 93.7109C193.211 94.0703 194.109 94.6484 194.859 95.4453C195.625 96.2422 196.211 97.2812 196.617 98.5625C197.039 99.8438 197.25 101.406 197.25 103.25V119H189.305V103.203C189.305 102.172 189.156 101.375 188.859 100.812C188.578 100.234 188.172 99.8359 187.641 99.6172C187.109 99.3828 186.461 99.2656 185.695 99.2656C184.773 99.2656 184.023 99.4219 183.445 99.7344C182.867 100.047 182.422 100.484 182.109 101.047C181.812 101.594 181.609 102.242 181.5 102.992C181.391 103.742 181.336 104.562 181.336 105.453ZM231.539 109.93C231.539 109.398 231.461 108.922 231.305 108.5C231.148 108.062 230.859 107.656 230.438 107.281C230.016 106.906 229.406 106.531 228.609 106.156C227.828 105.766 226.797 105.359 225.516 104.938C224.016 104.438 222.57 103.875 221.18 103.25C219.789 102.609 218.547 101.867 217.453 101.023C216.359 100.164 215.492 99.1641 214.852 98.0234C214.211 96.8672 213.891 95.5234 213.891 93.9922C213.891 92.5234 214.219 91.2031 214.875 90.0312C215.531 88.8438 216.445 87.8359 217.617 87.0078C218.805 86.1641 220.195 85.5234 221.789 85.0859C223.383 84.6328 225.125 84.4062 227.016 84.4062C229.516 84.4062 231.719 84.8438 233.625 85.7188C235.547 86.5781 237.047 87.8047 238.125 89.3984C239.219 90.9766 239.766 92.8438 239.766 95H231.586C231.586 94.1406 231.406 93.3828 231.047 92.7266C230.703 92.0703 230.18 91.5547 229.477 91.1797C228.773 90.8047 227.891 90.6172 226.828 90.6172C225.797 90.6172 224.93 90.7734 224.227 91.0859C223.523 91.3984 222.992 91.8203 222.633 92.3516C222.273 92.8672 222.094 93.4375 222.094 94.0625C222.094 94.5781 222.234 95.0469 222.516 95.4688C222.812 95.875 223.227 96.2578 223.758 96.6172C224.305 96.9766 224.961 97.3203 225.727 97.6484C226.508 97.9766 227.383 98.2969 228.352 98.6094C230.164 99.1875 231.773 99.8359 233.18 100.555C234.602 101.258 235.797 102.062 236.766 102.969C237.75 103.859 238.492 104.875 238.992 106.016C239.508 107.156 239.766 108.445 239.766 109.883C239.766 111.414 239.469 112.773 238.875 113.961C238.281 115.148 237.43 116.156 236.32 116.984C235.211 117.797 233.883 118.414 232.336 118.836C230.789 119.258 229.062 119.469 227.156 119.469C225.406 119.469 223.68 119.25 221.977 118.812C220.289 118.359 218.758 117.672 217.383 116.75C216.008 115.812 214.906 114.617 214.078 113.164C213.266 111.695 212.859 109.953 212.859 107.938H221.109C221.109 108.938 221.242 109.781 221.508 110.469C221.773 111.156 222.164 111.711 222.68 112.133C223.195 112.539 223.828 112.836 224.578 113.023C225.328 113.195 226.188 113.281 227.156 113.281C228.203 113.281 229.047 113.133 229.688 112.836C230.328 112.523 230.797 112.117 231.094 111.617C231.391 111.102 231.539 110.539 231.539 109.93ZM256.992 93.6406V99.125H241.711V93.6406H256.992ZM244.922 87.3359H252.82V110.727C252.82 111.398 252.898 111.922 253.055 112.297C253.211 112.656 253.477 112.914 253.852 113.07C254.242 113.211 254.758 113.281 255.398 113.281C255.852 113.281 256.227 113.273 256.523 113.258C256.82 113.227 257.102 113.188 257.367 113.141V118.789C256.695 119.008 255.992 119.172 255.258 119.281C254.523 119.406 253.742 119.469 252.914 119.469C251.227 119.469 249.781 119.203 248.578 118.672C247.391 118.141 246.484 117.305 245.859 116.164C245.234 115.023 244.922 113.539 244.922 111.711V87.3359ZM273.305 112.625V102.172C273.305 101.453 273.203 100.836 273 100.32C272.797 99.8047 272.477 99.4062 272.039 99.125C271.602 98.8281 271.016 98.6797 270.281 98.6797C269.688 98.6797 269.18 98.7812 268.758 98.9844C268.336 99.1875 268.016 99.4922 267.797 99.8984C267.578 100.305 267.469 100.82 267.469 101.445H259.57C259.57 100.273 259.828 99.1875 260.344 98.1875C260.875 97.1719 261.625 96.2891 262.594 95.5391C263.578 94.7891 264.75 94.2109 266.109 93.8047C267.484 93.3828 269.016 93.1719 270.703 93.1719C272.719 93.1719 274.516 93.5078 276.094 94.1797C277.688 94.8516 278.945 95.8594 279.867 97.2031C280.789 98.5312 281.25 100.203 281.25 102.219V112.602C281.25 114.258 281.344 115.516 281.531 116.375C281.719 117.219 281.984 117.961 282.328 118.602V119H274.406C274.031 118.219 273.75 117.266 273.562 116.141C273.391 115 273.305 113.828 273.305 112.625ZM274.266 103.508L274.312 107.727H270.82C270.086 107.727 269.461 107.828 268.945 108.031C268.445 108.234 268.039 108.516 267.727 108.875C267.43 109.219 267.211 109.609 267.07 110.047C266.945 110.484 266.883 110.945 266.883 111.43C266.883 111.898 266.992 112.32 267.211 112.695C267.445 113.055 267.758 113.336 268.148 113.539C268.539 113.742 268.977 113.844 269.461 113.844C270.336 113.844 271.078 113.68 271.688 113.352C272.312 113.008 272.789 112.594 273.117 112.109C273.445 111.625 273.609 111.172 273.609 110.75L275.344 113.984C275.031 114.609 274.672 115.242 274.266 115.883C273.875 116.523 273.383 117.117 272.789 117.664C272.211 118.195 271.5 118.633 270.656 118.977C269.812 119.305 268.789 119.469 267.586 119.469C266.023 119.469 264.586 119.148 263.273 118.508C261.977 117.867 260.938 116.977 260.156 115.836C259.375 114.68 258.984 113.352 258.984 111.852C258.984 110.539 259.219 109.367 259.688 108.336C260.172 107.305 260.898 106.43 261.867 105.711C262.836 104.992 264.07 104.445 265.57 104.07C267.07 103.695 268.836 103.508 270.867 103.508H274.266ZM296.344 113.375C297.078 113.375 297.703 113.242 298.219 112.977C298.75 112.695 299.148 112.305 299.414 111.805C299.695 111.289 299.828 110.672 299.812 109.953H307.242C307.258 111.859 306.789 113.531 305.836 114.969C304.898 116.391 303.617 117.5 301.992 118.297C300.383 119.078 298.562 119.469 296.531 119.469C294.547 119.469 292.812 119.148 291.328 118.508C289.844 117.852 288.602 116.945 287.602 115.789C286.617 114.617 285.875 113.25 285.375 111.688C284.891 110.125 284.648 108.43 284.648 106.602V106.062C284.648 104.234 284.891 102.539 285.375 100.977C285.875 99.3984 286.617 98.0312 287.602 96.875C288.602 95.7031 289.836 94.7969 291.305 94.1562C292.789 93.5 294.516 93.1719 296.484 93.1719C298.594 93.1719 300.453 93.5703 302.062 94.3672C303.688 95.1641 304.961 96.3203 305.883 97.8359C306.805 99.3516 307.258 101.188 307.242 103.344H299.812C299.828 102.578 299.711 101.891 299.461 101.281C299.211 100.672 298.82 100.188 298.289 99.8281C297.773 99.4531 297.109 99.2656 296.297 99.2656C295.484 99.2656 294.828 99.4453 294.328 99.8047C293.828 100.164 293.445 100.664 293.18 101.305C292.93 101.93 292.758 102.648 292.664 103.461C292.586 104.273 292.547 105.141 292.547 106.062V106.602C292.547 107.539 292.586 108.422 292.664 109.25C292.758 110.062 292.938 110.781 293.203 111.406C293.469 112.016 293.852 112.5 294.352 112.859C294.852 113.203 295.516 113.375 296.344 113.375ZM318.586 82.9766V119H310.688V82.9766H318.586ZM334.805 93.6406L323.789 106.555L318.023 112.32L314.578 107.305L319.383 101.047L325.336 93.6406H334.805ZM326.344 119L319.57 107.445L325.406 103.297L335.391 119H326.344Z" fill="black"/>
<path d="M1134 0H1348C1356.28 0 1363 6.71573 1363 15V148C1363 156.284 1356.28 163 1348 163H1134V0Z" fill="#4C68AF"/>
<path fill-rule="evenodd" clip-rule="evenodd" d="M1218.75 53C1218.62 53 1218.49 53.0527 1218.4 53.1464C1218.3 53.2402 1218.25 53.3674 1218.25 53.5V109.5C1218.25 109.633 1218.3 109.76 1218.4 109.854C1218.49 109.947 1218.62 110 1218.75 110H1278.25C1278.38 110 1278.51 109.947 1278.6 109.854C1278.7 109.76 1278.75 109.633 1278.75 109.5V64C1278.75 63.8674 1278.7 63.7402 1278.6 63.6464C1278.51 63.5527 1278.38 63.5 1278.25 63.5H1248.5C1247.61 63.5 1246.77 63.1045 1246.2 62.4206L1238.34 53H1218.75ZM1214.15 48.9038C1215.37 47.6848 1217.03 47 1218.75 47H1239.75C1240.64 47 1241.48 47.3955 1242.05 48.0794L1249.91 57.5H1278.25C1279.97 57.5 1281.63 58.1848 1282.85 59.4038C1284.07 60.6228 1284.75 62.2761 1284.75 64V109.5C1284.75 111.224 1284.07 112.877 1282.85 114.096C1281.63 115.315 1279.97 116 1278.25 116H1218.75C1217.03 116 1215.37 115.315 1214.15 114.096C1212.93 112.877 1212.25 111.224 1212.25 109.5V53.5C1212.25 51.7761 1212.93 50.1228 1214.15 48.9038Z" fill="white"/>
<path fill-rule="evenodd" clip-rule="evenodd" d="M1243.97 75.5251C1245.34 76.892 1245.34 79.108 1243.97 80.4749L1237.7 86.75L1243.97 93.0251C1245.34 94.392 1245.34 96.608 1243.97 97.9749C1242.61 99.3417 1240.39 99.3417 1239.03 97.9749L1230.28 89.2249C1228.91 87.858 1228.91 85.642 1230.28 84.2751L1239.03 75.5251C1240.39 74.1583 1242.61 74.1583 1243.97 75.5251Z" fill="white"/>
<path fill-rule="evenodd" clip-rule="evenodd" d="M1252.28 97.9749C1250.91 96.608 1250.91 94.392 1252.28 93.0251L1258.55 86.75L1252.28 80.4749C1250.91 79.108 1250.91 76.892 1252.28 75.5251C1253.64 74.1583 1255.86 74.1583 1257.22 75.5251L1265.97 84.2751C1267.34 85.642 1267.34 87.858 1265.97 89.2249L1257.22 97.9749C1255.86 99.3417 1253.64 99.3417 1252.28 97.9749Z" fill="white"/>
</svg>
