<svg width="1363" height="163" viewBox="0 0 1363 163" fill="none" xmlns="http://www.w3.org/2000/svg">
<path d="M0 15C0 6.71573 6.71573 0 15 0H37V163H15C6.71573 163 0 156.284 0 148V15Z" fill="#4C68AF"/>
<rect width="1097" height="163" transform="translate(37)" fill="#F0F0F0"/>
<path d="M101.906 53.9219L94.3945 51.2383V48.0859L104.602 52.375V54.6367L101.906 53.9219ZM94.3945 56.1719L101.918 53.4297L104.602 52.7852V55.0352L94.3945 59.3242V56.1719ZM116.637 43.9375V61H113.133V43.9375H116.637ZM123.023 51.0273V61H119.648V48.3203H122.812L123.023 51.0273ZM122.531 54.2148H121.617C121.617 53.2773 121.738 52.4336 121.98 51.6836C122.223 50.9258 122.562 50.2812 123 49.75C123.438 49.2109 123.957 48.8008 124.559 48.5195C125.168 48.2305 125.848 48.0859 126.598 48.0859C127.191 48.0859 127.734 48.1719 128.227 48.3438C128.719 48.5156 129.141 48.7891 129.492 49.1641C129.852 49.5391 130.125 50.0352 130.312 50.6523C130.508 51.2695 130.605 52.0234 130.605 52.9141V61H127.207V52.9023C127.207 52.3398 127.129 51.9023 126.973 51.5898C126.816 51.2773 126.586 51.0586 126.281 50.9336C125.984 50.8008 125.617 50.7344 125.18 50.7344C124.727 50.7344 124.332 50.8242 123.996 51.0039C123.668 51.1836 123.395 51.4336 123.176 51.7539C122.965 52.0664 122.805 52.4336 122.695 52.8555C122.586 53.2773 122.531 53.7305 122.531 54.2148ZM137.484 58.5391L140.297 48.3203H143.824L139.547 61H137.414L137.484 58.5391ZM135.551 48.3203L138.375 58.5508L138.434 61H136.289L132.012 48.3203H135.551ZM151.008 61.2344C150.023 61.2344 149.141 61.0781 148.359 60.7656C147.578 60.4453 146.914 60.0039 146.367 59.4414C145.828 58.8789 145.414 58.2266 145.125 57.4844C144.836 56.7344 144.691 55.9375 144.691 55.0938V54.625C144.691 53.6641 144.828 52.7852 145.102 51.9883C145.375 51.1914 145.766 50.5 146.273 49.9141C146.789 49.3281 147.414 48.8789 148.148 48.5664C148.883 48.2461 149.711 48.0859 150.633 48.0859C151.531 48.0859 152.328 48.2344 153.023 48.5312C153.719 48.8281 154.301 49.25 154.77 49.7969C155.246 50.3438 155.605 51 155.848 51.7656C156.09 52.5234 156.211 53.3672 156.211 54.2969V55.7031H146.133V53.4531H152.895V53.1953C152.895 52.7266 152.809 52.3086 152.637 51.9414C152.473 51.5664 152.223 51.2695 151.887 51.0508C151.551 50.832 151.121 50.7227 150.598 50.7227C150.152 50.7227 149.77 50.8203 149.449 51.0156C149.129 51.2109 148.867 51.4844 148.664 51.8359C148.469 52.1875 148.32 52.6016 148.219 53.0781C148.125 53.5469 148.078 54.0625 148.078 54.625V55.0938C148.078 55.6016 148.148 56.0703 148.289 56.5C148.438 56.9297 148.645 57.3008 148.91 57.6133C149.184 57.9258 149.512 58.168 149.895 58.3398C150.285 58.5117 150.727 58.5977 151.219 58.5977C151.828 58.5977 152.395 58.4805 152.918 58.2461C153.449 58.0039 153.906 57.6406 154.289 57.1562L155.93 58.9375C155.664 59.3203 155.301 59.6875 154.84 60.0391C154.387 60.3906 153.84 60.6797 153.199 60.9062C152.559 61.125 151.828 61.2344 151.008 61.2344ZM164.988 57.4961C164.988 57.2539 164.918 57.0352 164.777 56.8398C164.637 56.6445 164.375 56.4648 163.992 56.3008C163.617 56.1289 163.074 55.9727 162.363 55.832C161.723 55.6914 161.125 55.5156 160.57 55.3047C160.023 55.0859 159.547 54.8242 159.141 54.5195C158.742 54.2148 158.43 53.8555 158.203 53.4414C157.977 53.0195 157.863 52.5391 157.863 52C157.863 51.4688 157.977 50.9688 158.203 50.5C158.438 50.0312 158.77 49.6172 159.199 49.2578C159.637 48.8906 160.168 48.6055 160.793 48.4023C161.426 48.1914 162.137 48.0859 162.926 48.0859C164.027 48.0859 164.973 48.2617 165.762 48.6133C166.559 48.9648 167.168 49.4492 167.59 50.0664C168.02 50.6758 168.234 51.3711 168.234 52.1523H164.859C164.859 51.8242 164.789 51.5312 164.648 51.2734C164.516 51.0078 164.305 50.8008 164.016 50.6523C163.734 50.4961 163.367 50.418 162.914 50.418C162.539 50.418 162.215 50.4844 161.941 50.6172C161.668 50.7422 161.457 50.9141 161.309 51.1328C161.168 51.3438 161.098 51.5781 161.098 51.8359C161.098 52.0312 161.137 52.207 161.215 52.3633C161.301 52.5117 161.438 52.6484 161.625 52.7734C161.812 52.8984 162.055 53.0156 162.352 53.125C162.656 53.2266 163.031 53.3203 163.477 53.4062C164.391 53.5938 165.207 53.8398 165.926 54.1445C166.645 54.4414 167.215 54.8477 167.637 55.3633C168.059 55.8711 168.27 56.5391 168.27 57.3672C168.27 57.9297 168.145 58.4453 167.895 58.9141C167.645 59.3828 167.285 59.793 166.816 60.1445C166.348 60.4883 165.785 60.7578 165.129 60.9531C164.48 61.1406 163.75 61.2344 162.938 61.2344C161.758 61.2344 160.758 61.0234 159.938 60.6016C159.125 60.1797 158.508 59.6445 158.086 58.9961C157.672 58.3398 157.465 57.668 157.465 56.9805H160.664C160.68 57.4414 160.797 57.8125 161.016 58.0938C161.242 58.375 161.527 58.5781 161.871 58.7031C162.223 58.8281 162.602 58.8906 163.008 58.8906C163.445 58.8906 163.809 58.832 164.098 58.7148C164.387 58.5898 164.605 58.4258 164.754 58.2227C164.91 58.0117 164.988 57.7695 164.988 57.4961ZM176.672 48.3203V50.7109H169.289V48.3203H176.672ZM171.117 45.1914H174.492V57.1797C174.492 57.5469 174.539 57.8281 174.633 58.0234C174.734 58.2188 174.883 58.3555 175.078 58.4336C175.273 58.5039 175.52 58.5391 175.816 58.5391C176.027 58.5391 176.215 58.5312 176.379 58.5156C176.551 58.4922 176.695 58.4688 176.812 58.4453L176.824 60.9297C176.535 61.0234 176.223 61.0977 175.887 61.1523C175.551 61.207 175.18 61.2344 174.773 61.2344C174.031 61.2344 173.383 61.1133 172.828 60.8711C172.281 60.6211 171.859 60.2227 171.562 59.6758C171.266 59.1289 171.117 58.4102 171.117 57.5195V45.1914ZM177.75 54.7891V54.543C177.75 53.6133 177.883 52.7578 178.148 51.9766C178.414 51.1875 178.801 50.5039 179.309 49.9258C179.816 49.3477 180.441 48.8984 181.184 48.5781C181.926 48.25 182.777 48.0859 183.738 48.0859C184.699 48.0859 185.555 48.25 186.305 48.5781C187.055 48.8984 187.684 49.3477 188.191 49.9258C188.707 50.5039 189.098 51.1875 189.363 51.9766C189.629 52.7578 189.762 53.6133 189.762 54.543V54.7891C189.762 55.7109 189.629 56.5664 189.363 57.3555C189.098 58.1367 188.707 58.8203 188.191 59.4062C187.684 59.9844 187.059 60.4336 186.316 60.7539C185.574 61.0742 184.723 61.2344 183.762 61.2344C182.801 61.2344 181.945 61.0742 181.195 60.7539C180.453 60.4336 179.824 59.9844 179.309 59.4062C178.801 58.8203 178.414 58.1367 178.148 57.3555C177.883 56.5664 177.75 55.7109 177.75 54.7891ZM181.125 54.543V54.7891C181.125 55.3203 181.172 55.8164 181.266 56.2773C181.359 56.7383 181.508 57.1445 181.711 57.4961C181.922 57.8398 182.195 58.1094 182.531 58.3047C182.867 58.5 183.277 58.5977 183.762 58.5977C184.23 58.5977 184.633 58.5 184.969 58.3047C185.305 58.1094 185.574 57.8398 185.777 57.4961C185.98 57.1445 186.129 56.7383 186.223 56.2773C186.324 55.8164 186.375 55.3203 186.375 54.7891V54.543C186.375 54.0273 186.324 53.543 186.223 53.0898C186.129 52.6289 185.977 52.2227 185.766 51.8711C185.562 51.5117 185.293 51.2305 184.957 51.0273C184.621 50.8242 184.215 50.7227 183.738 50.7227C183.262 50.7227 182.855 50.8242 182.52 51.0273C182.191 51.2305 181.922 51.5117 181.711 51.8711C181.508 52.2227 181.359 52.6289 181.266 53.0898C181.172 53.543 181.125 54.0273 181.125 54.543ZM195.211 51.0859V61H191.836V48.3203H195.012L195.211 51.0859ZM199.031 48.2383L198.973 51.3672C198.809 51.3438 198.609 51.3242 198.375 51.3086C198.148 51.2852 197.941 51.2734 197.754 51.2734C197.277 51.2734 196.863 51.3359 196.512 51.4609C196.168 51.5781 195.879 51.7539 195.645 51.9883C195.418 52.2227 195.246 52.5078 195.129 52.8438C195.02 53.1797 194.957 53.5625 194.941 53.9922L194.262 53.7812C194.262 52.9609 194.344 52.207 194.508 51.5195C194.672 50.8242 194.91 50.2188 195.223 49.7031C195.543 49.1875 195.934 48.7891 196.395 48.5078C196.855 48.2266 197.383 48.0859 197.977 48.0859C198.164 48.0859 198.355 48.1016 198.551 48.1328C198.746 48.1562 198.906 48.1914 199.031 48.2383ZM210.727 55.3398H214.23C214.16 56.4883 213.844 57.5078 213.281 58.3984C212.727 59.2891 211.949 59.9844 210.949 60.4844C209.957 60.9844 208.762 61.2344 207.363 61.2344C206.27 61.2344 205.289 61.0469 204.422 60.6719C203.555 60.2891 202.812 59.7422 202.195 59.0312C201.586 58.3203 201.121 57.4609 200.801 56.4531C200.48 55.4453 200.32 54.3164 200.32 53.0664V51.8828C200.32 50.6328 200.484 49.5039 200.812 48.4961C201.148 47.4805 201.625 46.6172 202.242 45.9062C202.867 45.1953 203.613 44.6484 204.48 44.2656C205.348 43.8828 206.316 43.6914 207.387 43.6914C208.809 43.6914 210.008 43.9492 210.984 44.4648C211.969 44.9805 212.73 45.6914 213.27 46.5977C213.816 47.5039 214.145 48.5352 214.254 49.6914H210.738C210.699 49.0039 210.562 48.4219 210.328 47.9453C210.094 47.4609 209.738 47.0977 209.262 46.8555C208.793 46.6055 208.168 46.4805 207.387 46.4805C206.801 46.4805 206.289 46.5898 205.852 46.8086C205.414 47.0273 205.047 47.3594 204.75 47.8047C204.453 48.25 204.23 48.8125 204.082 49.4922C203.941 50.1641 203.871 50.9531 203.871 51.8594V53.0664C203.871 53.9492 203.938 54.7266 204.07 55.3984C204.203 56.0625 204.406 56.625 204.68 57.0859C204.961 57.5391 205.32 57.8828 205.758 58.1172C206.203 58.3438 206.738 58.457 207.363 58.457C208.098 58.457 208.703 58.3398 209.18 58.1055C209.656 57.8711 210.02 57.5234 210.27 57.0625C210.527 56.6016 210.68 56.0273 210.727 55.3398ZM215.789 54.7891V54.543C215.789 53.6133 215.922 52.7578 216.188 51.9766C216.453 51.1875 216.84 50.5039 217.348 49.9258C217.855 49.3477 218.48 48.8984 219.223 48.5781C219.965 48.25 220.816 48.0859 221.777 48.0859C222.738 48.0859 223.594 48.25 224.344 48.5781C225.094 48.8984 225.723 49.3477 226.23 49.9258C226.746 50.5039 227.137 51.1875 227.402 51.9766C227.668 52.7578 227.801 53.6133 227.801 54.543V54.7891C227.801 55.7109 227.668 56.5664 227.402 57.3555C227.137 58.1367 226.746 58.8203 226.23 59.4062C225.723 59.9844 225.098 60.4336 224.355 60.7539C223.613 61.0742 222.762 61.2344 221.801 61.2344C220.84 61.2344 219.984 61.0742 219.234 60.7539C218.492 60.4336 217.863 59.9844 217.348 59.4062C216.84 58.8203 216.453 58.1367 216.188 57.3555C215.922 56.5664 215.789 55.7109 215.789 54.7891ZM219.164 54.543V54.7891C219.164 55.3203 219.211 55.8164 219.305 56.2773C219.398 56.7383 219.547 57.1445 219.75 57.4961C219.961 57.8398 220.234 58.1094 220.57 58.3047C220.906 58.5 221.316 58.5977 221.801 58.5977C222.27 58.5977 222.672 58.5 223.008 58.3047C223.344 58.1094 223.613 57.8398 223.816 57.4961C224.02 57.1445 224.168 56.7383 224.262 56.2773C224.363 55.8164 224.414 55.3203 224.414 54.7891V54.543C224.414 54.0273 224.363 53.543 224.262 53.0898C224.168 52.6289 224.016 52.2227 223.805 51.8711C223.602 51.5117 223.332 51.2305 222.996 51.0273C222.66 50.8242 222.254 50.7227 221.777 50.7227C221.301 50.7227 220.895 50.8242 220.559 51.0273C220.23 51.2305 219.961 51.5117 219.75 51.8711C219.547 52.2227 219.398 52.6289 219.305 53.0898C219.211 53.543 219.164 54.0273 219.164 54.543ZM233.18 51.0273V61H229.805V48.3203H232.969L233.18 51.0273ZM232.688 54.2148H231.773C231.773 53.2773 231.895 52.4336 232.137 51.6836C232.379 50.9258 232.719 50.2812 233.156 49.75C233.594 49.2109 234.113 48.8008 234.715 48.5195C235.324 48.2305 236.004 48.0859 236.754 48.0859C237.348 48.0859 237.891 48.1719 238.383 48.3438C238.875 48.5156 239.297 48.7891 239.648 49.1641C240.008 49.5391 240.281 50.0352 240.469 50.6523C240.664 51.2695 240.762 52.0234 240.762 52.9141V61H237.363V52.9023C237.363 52.3398 237.285 51.9023 237.129 51.5898C236.973 51.2773 236.742 51.0586 236.438 50.9336C236.141 50.8008 235.773 50.7344 235.336 50.7344C234.883 50.7344 234.488 50.8242 234.152 51.0039C233.824 51.1836 233.551 51.4336 233.332 51.7539C233.121 52.0664 232.961 52.4336 232.852 52.8555C232.742 53.2773 232.688 53.7305 232.688 54.2148ZM246.633 51.0273V61H243.258V48.3203H246.422L246.633 51.0273ZM246.141 54.2148H245.227C245.227 53.2773 245.348 52.4336 245.59 51.6836C245.832 50.9258 246.172 50.2812 246.609 49.75C247.047 49.2109 247.566 48.8008 248.168 48.5195C248.777 48.2305 249.457 48.0859 250.207 48.0859C250.801 48.0859 251.344 48.1719 251.836 48.3438C252.328 48.5156 252.75 48.7891 253.102 49.1641C253.461 49.5391 253.734 50.0352 253.922 50.6523C254.117 51.2695 254.215 52.0234 254.215 52.9141V61H250.816V52.9023C250.816 52.3398 250.738 51.9023 250.582 51.5898C250.426 51.2773 250.195 51.0586 249.891 50.9336C249.594 50.8008 249.227 50.7344 248.789 50.7344C248.336 50.7344 247.941 50.8242 247.605 51.0039C247.277 51.1836 247.004 51.4336 246.785 51.7539C246.574 52.0664 246.414 52.4336 246.305 52.8555C246.195 53.2773 246.141 53.7305 246.141 54.2148ZM262.617 61.2344C261.633 61.2344 260.75 61.0781 259.969 60.7656C259.188 60.4453 258.523 60.0039 257.977 59.4414C257.438 58.8789 257.023 58.2266 256.734 57.4844C256.445 56.7344 256.301 55.9375 256.301 55.0938V54.625C256.301 53.6641 256.438 52.7852 256.711 51.9883C256.984 51.1914 257.375 50.5 257.883 49.9141C258.398 49.3281 259.023 48.8789 259.758 48.5664C260.492 48.2461 261.32 48.0859 262.242 48.0859C263.141 48.0859 263.938 48.2344 264.633 48.5312C265.328 48.8281 265.91 49.25 266.379 49.7969C266.855 50.3438 267.215 51 267.457 51.7656C267.699 52.5234 267.82 53.3672 267.82 54.2969V55.7031H257.742V53.4531H264.504V53.1953C264.504 52.7266 264.418 52.3086 264.246 51.9414C264.082 51.5664 263.832 51.2695 263.496 51.0508C263.16 50.832 262.73 50.7227 262.207 50.7227C261.762 50.7227 261.379 50.8203 261.059 51.0156C260.738 51.2109 260.477 51.4844 260.273 51.8359C260.078 52.1875 259.93 52.6016 259.828 53.0781C259.734 53.5469 259.688 54.0625 259.688 54.625V55.0938C259.688 55.6016 259.758 56.0703 259.898 56.5C260.047 56.9297 260.254 57.3008 260.52 57.6133C260.793 57.9258 261.121 58.168 261.504 58.3398C261.895 58.5117 262.336 58.5977 262.828 58.5977C263.438 58.5977 264.004 58.4805 264.527 58.2461C265.059 58.0039 265.516 57.6406 265.898 57.1562L267.539 58.9375C267.273 59.3203 266.91 59.6875 266.449 60.0391C265.996 60.3906 265.449 60.6797 264.809 60.9062C264.168 61.125 263.438 61.2344 262.617 61.2344ZM274.98 58.5977C275.395 58.5977 275.762 58.5195 276.082 58.3633C276.402 58.1992 276.652 57.9727 276.832 57.6836C277.02 57.3867 277.117 57.0391 277.125 56.6406H280.301C280.293 57.5312 280.055 58.3242 279.586 59.0195C279.117 59.707 278.488 60.25 277.699 60.6484C276.91 61.0391 276.027 61.2344 275.051 61.2344C274.066 61.2344 273.207 61.0703 272.473 60.7422C271.746 60.4141 271.141 59.9609 270.656 59.3828C270.172 58.7969 269.809 58.1172 269.566 57.3438C269.324 56.5625 269.203 55.7266 269.203 54.8359V54.4961C269.203 53.5977 269.324 52.7617 269.566 51.9883C269.809 51.207 270.172 50.5273 270.656 49.9492C271.141 49.3633 271.746 48.9062 272.473 48.5781C273.199 48.25 274.051 48.0859 275.027 48.0859C276.066 48.0859 276.977 48.2852 277.758 48.6836C278.547 49.082 279.164 49.6523 279.609 50.3945C280.062 51.1289 280.293 52 280.301 53.0078H277.125C277.117 52.5859 277.027 52.2031 276.855 51.8594C276.691 51.5156 276.449 51.2422 276.129 51.0391C275.816 50.8281 275.43 50.7227 274.969 50.7227C274.477 50.7227 274.074 50.8281 273.762 51.0391C273.449 51.2422 273.207 51.5234 273.035 51.8828C272.863 52.2344 272.742 52.6367 272.672 53.0898C272.609 53.5352 272.578 54.0039 272.578 54.4961V54.8359C272.578 55.3281 272.609 55.8008 272.672 56.2539C272.734 56.707 272.852 57.1094 273.023 57.4609C273.203 57.8125 273.449 58.0898 273.762 58.293C274.074 58.4961 274.48 58.5977 274.98 58.5977ZM288.469 48.3203V50.7109H281.086V48.3203H288.469ZM282.914 45.1914H286.289V57.1797C286.289 57.5469 286.336 57.8281 286.43 58.0234C286.531 58.2188 286.68 58.3555 286.875 58.4336C287.07 58.5039 287.316 58.5391 287.613 58.5391C287.824 58.5391 288.012 58.5312 288.176 58.5156C288.348 58.4922 288.492 58.4688 288.609 58.4453L288.621 60.9297C288.332 61.0234 288.02 61.0977 287.684 61.1523C287.348 61.207 286.977 61.2344 286.57 61.2344C285.828 61.2344 285.18 61.1133 284.625 60.8711C284.078 60.6211 283.656 60.2227 283.359 59.6758C283.062 59.1289 282.914 58.4102 282.914 57.5195V45.1914Z" fill="#888888"/>
<path d="M109.219 107.422H100.734V101.07H109.219C110.375 101.07 111.312 100.875 112.031 100.484C112.75 100.094 113.273 99.5547 113.602 98.8672C113.945 98.1641 114.117 97.375 114.117 96.5C114.117 95.5625 113.945 94.6953 113.602 93.8984C113.273 93.1016 112.75 92.4609 112.031 91.9766C111.312 91.4766 110.375 91.2266 109.219 91.2266H103.828V119H95.6016V84.875H109.219C111.953 84.875 114.305 85.375 116.273 86.375C118.258 87.375 119.781 88.75 120.844 90.5C121.906 92.2344 122.438 94.2188 122.438 96.4531C122.438 98.6562 121.906 100.578 120.844 102.219C119.781 103.859 118.258 105.141 116.273 106.062C114.305 106.969 111.953 107.422 109.219 107.422ZM134.461 99.9219V119H126.562V93.6406H133.945L134.461 99.9219ZM141.961 93.4531L141.82 100.789C141.508 100.758 141.086 100.719 140.555 100.672C140.023 100.625 139.578 100.602 139.219 100.602C138.297 100.602 137.5 100.711 136.828 100.93C136.172 101.133 135.625 101.445 135.188 101.867C134.766 102.273 134.453 102.789 134.25 103.414C134.062 104.039 133.977 104.766 133.992 105.594L132.562 104.656C132.562 102.953 132.727 101.406 133.055 100.016C133.398 98.6094 133.883 97.3984 134.508 96.3828C135.133 95.3516 135.891 94.5625 136.781 94.0156C137.672 93.4531 138.672 93.1719 139.781 93.1719C140.172 93.1719 140.555 93.1953 140.93 93.2422C141.32 93.2891 141.664 93.3594 141.961 93.4531ZM142.852 106.578V106.086C142.852 104.227 143.117 102.516 143.648 100.953C144.18 99.375 144.961 98.0078 145.992 96.8516C147.023 95.6953 148.297 94.7969 149.812 94.1562C151.328 93.5 153.078 93.1719 155.062 93.1719C157.062 93.1719 158.82 93.5 160.336 94.1562C161.867 94.7969 163.148 95.6953 164.18 96.8516C165.211 98.0078 165.992 99.375 166.523 100.953C167.055 102.516 167.32 104.227 167.32 106.086V106.578C167.32 108.422 167.055 110.133 166.523 111.711C165.992 113.273 165.211 114.641 164.18 115.812C163.148 116.969 161.875 117.867 160.359 118.508C158.844 119.148 157.094 119.469 155.109 119.469C153.125 119.469 151.367 119.148 149.836 118.508C148.305 117.867 147.023 116.969 145.992 115.812C144.961 114.641 144.18 113.273 143.648 111.711C143.117 110.133 142.852 108.422 142.852 106.578ZM150.75 106.086V106.578C150.75 107.531 150.82 108.422 150.961 109.25C151.102 110.078 151.336 110.805 151.664 111.43C151.992 112.039 152.438 112.516 153 112.859C153.562 113.203 154.266 113.375 155.109 113.375C155.938 113.375 156.625 113.203 157.172 112.859C157.734 112.516 158.18 112.039 158.508 111.43C158.836 110.805 159.07 110.078 159.211 109.25C159.352 108.422 159.422 107.531 159.422 106.578V106.086C159.422 105.164 159.352 104.297 159.211 103.484C159.07 102.656 158.836 101.93 158.508 101.305C158.18 100.664 157.734 100.164 157.172 99.8047C156.609 99.4453 155.906 99.2656 155.062 99.2656C154.234 99.2656 153.539 99.4453 152.977 99.8047C152.43 100.164 151.992 100.664 151.664 101.305C151.336 101.93 151.102 102.656 150.961 103.484C150.82 104.297 150.75 105.164 150.75 106.086ZM184.195 93.6406V99.125H168.914V93.6406H184.195ZM172.125 87.3359H180.023V110.727C180.023 111.398 180.102 111.922 180.258 112.297C180.414 112.656 180.68 112.914 181.055 113.07C181.445 113.211 181.961 113.281 182.602 113.281C183.055 113.281 183.43 113.273 183.727 113.258C184.023 113.227 184.305 113.188 184.57 113.141V118.789C183.898 119.008 183.195 119.172 182.461 119.281C181.727 119.406 180.945 119.469 180.117 119.469C178.43 119.469 176.984 119.203 175.781 118.672C174.594 118.141 173.688 117.305 173.062 116.164C172.438 115.023 172.125 113.539 172.125 111.711V87.3359ZM185.648 106.578V106.086C185.648 104.227 185.914 102.516 186.445 100.953C186.977 99.375 187.758 98.0078 188.789 96.8516C189.82 95.6953 191.094 94.7969 192.609 94.1562C194.125 93.5 195.875 93.1719 197.859 93.1719C199.859 93.1719 201.617 93.5 203.133 94.1562C204.664 94.7969 205.945 95.6953 206.977 96.8516C208.008 98.0078 208.789 99.375 209.32 100.953C209.852 102.516 210.117 104.227 210.117 106.086V106.578C210.117 108.422 209.852 110.133 209.32 111.711C208.789 113.273 208.008 114.641 206.977 115.812C205.945 116.969 204.672 117.867 203.156 118.508C201.641 119.148 199.891 119.469 197.906 119.469C195.922 119.469 194.164 119.148 192.633 118.508C191.102 117.867 189.82 116.969 188.789 115.812C187.758 114.641 186.977 113.273 186.445 111.711C185.914 110.133 185.648 108.422 185.648 106.578ZM193.547 106.086V106.578C193.547 107.531 193.617 108.422 193.758 109.25C193.898 110.078 194.133 110.805 194.461 111.43C194.789 112.039 195.234 112.516 195.797 112.859C196.359 113.203 197.062 113.375 197.906 113.375C198.734 113.375 199.422 113.203 199.969 112.859C200.531 112.516 200.977 112.039 201.305 111.43C201.633 110.805 201.867 110.078 202.008 109.25C202.148 108.422 202.219 107.531 202.219 106.578V106.086C202.219 105.164 202.148 104.297 202.008 103.484C201.867 102.656 201.633 101.93 201.305 101.305C200.977 100.664 200.531 100.164 199.969 99.8047C199.406 99.4453 198.703 99.2656 197.859 99.2656C197.031 99.2656 196.336 99.4453 195.773 99.8047C195.227 100.164 194.789 100.664 194.461 101.305C194.133 101.93 193.898 102.656 193.758 103.484C193.617 104.297 193.547 105.164 193.547 106.086ZM226.992 93.6406V99.125H211.711V93.6406H226.992ZM214.922 87.3359H222.82V110.727C222.82 111.398 222.898 111.922 223.055 112.297C223.211 112.656 223.477 112.914 223.852 113.07C224.242 113.211 224.758 113.281 225.398 113.281C225.852 113.281 226.227 113.273 226.523 113.258C226.82 113.227 227.102 113.188 227.367 113.141V118.789C226.695 119.008 225.992 119.172 225.258 119.281C224.523 119.406 223.742 119.469 222.914 119.469C221.227 119.469 219.781 119.203 218.578 118.672C217.391 118.141 216.484 117.305 215.859 116.164C215.234 115.023 214.922 113.539 214.922 111.711V87.3359ZM237.914 116.023L244.477 93.6406H252.961L242.766 122.773C242.547 123.414 242.258 124.102 241.898 124.836C241.539 125.586 241.047 126.297 240.422 126.969C239.797 127.641 238.992 128.188 238.008 128.609C237.039 129.031 235.836 129.242 234.398 129.242C233.633 129.242 233.07 129.203 232.711 129.125C232.367 129.062 231.836 128.945 231.117 128.773V123.125C231.32 123.125 231.492 123.125 231.633 123.125C231.789 123.125 231.961 123.125 232.148 123.125C232.992 123.125 233.664 123.039 234.164 122.867C234.68 122.695 235.07 122.445 235.336 122.117C235.617 121.789 235.836 121.391 235.992 120.922L237.914 116.023ZM236.25 93.6406L241.242 111.383L242.109 119.75H236.812L227.789 93.6406H236.25ZM262.992 98.5156V128.75H255.094V93.6406H262.453L262.992 98.5156ZM278.555 106.016V106.508C278.555 108.352 278.344 110.062 277.922 111.641C277.5 113.219 276.875 114.594 276.047 115.766C275.219 116.938 274.188 117.852 272.953 118.508C271.734 119.148 270.32 119.469 268.711 119.469C267.195 119.469 265.891 119.133 264.797 118.461C263.703 117.789 262.789 116.859 262.055 115.672C261.32 114.484 260.727 113.125 260.273 111.594C259.82 110.062 259.461 108.445 259.195 106.742V106.109C259.461 104.281 259.82 102.586 260.273 101.023C260.727 99.4453 261.32 98.0703 262.055 96.8984C262.789 95.7266 263.695 94.8125 264.773 94.1562C265.867 93.5 267.172 93.1719 268.688 93.1719C270.297 93.1719 271.711 93.4766 272.93 94.0859C274.164 94.6953 275.195 95.5703 276.023 96.7109C276.867 97.8359 277.5 99.1875 277.922 100.766C278.344 102.344 278.555 104.094 278.555 106.016ZM270.656 106.508V106.016C270.656 105.031 270.586 104.133 270.445 103.32C270.305 102.492 270.078 101.773 269.766 101.164C269.469 100.555 269.07 100.086 268.57 99.7578C268.07 99.4297 267.453 99.2656 266.719 99.2656C265.875 99.2656 265.164 99.3984 264.586 99.6641C264.023 99.9141 263.57 100.305 263.227 100.836C262.898 101.352 262.664 102 262.523 102.781C262.398 103.547 262.344 104.445 262.359 105.477V107.398C262.328 108.586 262.445 109.633 262.711 110.539C262.977 111.43 263.438 112.125 264.094 112.625C264.75 113.125 265.641 113.375 266.766 113.375C267.516 113.375 268.141 113.203 268.641 112.859C269.141 112.5 269.539 112.008 269.836 111.383C270.133 110.742 270.344 110.008 270.469 109.18C270.594 108.352 270.656 107.461 270.656 106.508ZM290.414 93.6406V119H282.492V93.6406H290.414ZM282.023 87.1016C282.023 85.9766 282.43 85.0547 283.242 84.3359C284.055 83.6172 285.109 83.2578 286.406 83.2578C287.703 83.2578 288.758 83.6172 289.57 84.3359C290.383 85.0547 290.789 85.9766 290.789 87.1016C290.789 88.2266 290.383 89.1484 289.57 89.8672C288.758 90.5859 287.703 90.9453 286.406 90.9453C285.109 90.9453 284.055 90.5859 283.242 89.8672C282.43 89.1484 282.023 88.2266 282.023 87.1016ZM303.047 99.0547V119H295.148V93.6406H302.555L303.047 99.0547ZM302.109 105.453L300.258 105.5C300.258 103.562 300.492 101.836 300.961 100.32C301.43 98.7891 302.094 97.4922 302.953 96.4297C303.812 95.3672 304.836 94.5625 306.023 94.0156C307.227 93.4531 308.562 93.1719 310.031 93.1719C311.203 93.1719 312.273 93.3438 313.242 93.6875C314.227 94.0312 315.07 94.5859 315.773 95.3516C316.492 96.1172 317.039 97.1328 317.414 98.3984C317.805 99.6484 318 101.195 318 103.039V119H310.055V103.016C310.055 102 309.914 101.227 309.633 100.695C309.352 100.148 308.945 99.7734 308.414 99.5703C307.883 99.3672 307.234 99.2656 306.469 99.2656C305.656 99.2656 304.969 99.4219 304.406 99.7344C303.844 100.047 303.391 100.484 303.047 101.047C302.719 101.594 302.477 102.242 302.32 102.992C302.18 103.742 302.109 104.562 302.109 105.453ZM338.32 93.6406H345.492V118.016C345.492 120.359 344.953 122.344 343.875 123.969C342.797 125.609 341.289 126.852 339.352 127.695C337.43 128.555 335.18 128.984 332.602 128.984C331.461 128.984 330.297 128.836 329.109 128.539C327.922 128.258 326.812 127.836 325.781 127.273C324.75 126.711 323.883 126.016 323.18 125.188L326.484 120.547C327.125 121.266 327.93 121.875 328.898 122.375C329.867 122.891 331.008 123.148 332.32 123.148C333.461 123.148 334.414 122.945 335.18 122.539C335.961 122.133 336.555 121.539 336.961 120.758C337.367 119.992 337.57 119.062 337.57 117.969V99.6406L338.32 93.6406ZM321.469 106.625V106.133C321.469 104.211 321.703 102.461 322.172 100.883C322.656 99.2891 323.344 97.9219 324.234 96.7812C325.141 95.625 326.234 94.7344 327.516 94.1094C328.797 93.4844 330.242 93.1719 331.852 93.1719C333.586 93.1719 335.008 93.5078 336.117 94.1797C337.242 94.8359 338.141 95.7578 338.812 96.9453C339.5 98.1328 340.031 99.5234 340.406 101.117C340.797 102.695 341.125 104.398 341.391 106.227V106.812C341.125 108.531 340.758 110.156 340.289 111.688C339.836 113.203 339.242 114.547 338.508 115.719C337.773 116.891 336.852 117.812 335.742 118.484C334.648 119.141 333.336 119.469 331.805 119.469C330.211 119.469 328.773 119.148 327.492 118.508C326.227 117.867 325.141 116.969 324.234 115.812C323.344 114.656 322.656 113.297 322.172 111.734C321.703 110.172 321.469 108.469 321.469 106.625ZM329.367 106.133V106.625C329.367 107.578 329.453 108.461 329.625 109.273C329.812 110.086 330.094 110.805 330.469 111.43C330.844 112.039 331.305 112.516 331.852 112.859C332.414 113.203 333.07 113.375 333.82 113.375C334.961 113.375 335.883 113.133 336.586 112.648C337.289 112.164 337.797 111.477 338.109 110.586C338.422 109.695 338.555 108.648 338.508 107.445V105.594C338.539 104.562 338.469 103.656 338.297 102.875C338.125 102.078 337.852 101.414 337.477 100.883C337.117 100.352 336.633 99.9531 336.023 99.6875C335.43 99.4062 334.711 99.2656 333.867 99.2656C333.133 99.2656 332.484 99.4375 331.922 99.7812C331.359 100.125 330.891 100.609 330.516 101.234C330.141 101.844 329.852 102.57 329.648 103.414C329.461 104.242 329.367 105.148 329.367 106.133Z" fill="black"/>
<path d="M1134 0H1348C1356.28 0 1363 6.71573 1363 15V148C1363 156.284 1356.28 163 1348 163H1134V0Z" fill="#4C68AF"/>
<path fill-rule="evenodd" clip-rule="evenodd" d="M1202.75 46.5018C1202.75 45.3973 1203.65 44.5018 1204.75 44.5018H1292.25C1293.35 44.5018 1294.25 45.3973 1294.25 46.5018V116.498C1294.25 117.603 1293.35 118.498 1292.25 118.498H1204.75C1203.65 118.498 1202.75 117.603 1202.75 116.498V46.5018ZM1206.75 48.5018V52.9963H1290.25V48.5018H1206.75ZM1290.25 56.9963H1235.19V114.498H1290.25V56.9963ZM1231.19 114.498V56.9963H1206.75V114.498H1231.19Z" fill="white"/>
<path fill-rule="evenodd" clip-rule="evenodd" d="M1209.72 62.3022C1209.72 61.1976 1210.62 60.3022 1211.72 60.3022H1225.72C1226.83 60.3022 1227.72 61.1976 1227.72 62.3022V81.6974C1227.72 82.802 1226.83 83.6974 1225.72 83.6974H1211.72C1210.62 83.6974 1209.72 82.802 1209.72 81.6974V62.3022ZM1213.72 64.3022V79.6974H1223.72V64.3022H1213.72ZM1239.33 63.1982C1239.33 62.0936 1240.22 61.1982 1241.33 61.1982H1284.25C1285.36 61.1982 1286.25 62.0936 1286.25 63.1982V109.407C1286.25 110.511 1285.36 111.407 1284.25 111.407H1241.33C1240.22 111.407 1239.33 110.511 1239.33 109.407V63.1982ZM1243.33 65.1982V107.407H1282.25V65.1982H1243.33ZM1209.56 93.4381C1209.56 92.3336 1210.46 91.4381 1211.56 91.4381H1220.48C1221.59 91.4381 1222.48 92.3336 1222.48 93.4381C1222.48 94.5427 1221.59 95.4381 1220.48 95.4381H1211.56C1210.46 95.4381 1209.56 94.5427 1209.56 93.4381ZM1209.56 100.438C1209.56 99.3335 1210.46 98.4381 1211.56 98.4381H1226.1C1227.21 98.4381 1228.1 99.3335 1228.1 100.438C1228.1 101.543 1227.21 102.438 1226.1 102.438H1211.56C1210.46 102.438 1209.56 101.543 1209.56 100.438ZM1209.56 107.438C1209.56 106.334 1210.46 105.438 1211.56 105.438H1220.48C1221.59 105.438 1222.48 106.334 1222.48 107.438C1222.48 108.543 1221.59 109.438 1220.48 109.438H1211.56C1210.46 109.438 1209.56 108.543 1209.56 107.438Z" fill="white"/>
</svg>
