<svg width="1363" height="163" viewBox="0 0 1363 163" fill="none" xmlns="http://www.w3.org/2000/svg">
<path d="M0 15C0 6.71573 6.71573 0 15 0H37V163H15C6.71573 163 0 156.284 0 148V15Z" fill="#4C68AF"/>
<rect width="1097" height="163" transform="translate(37)" fill="#F0F0F0"/>
<path d="M101.906 53.9219L94.3945 51.2383V48.0859L104.602 52.375V54.6367L101.906 53.9219ZM94.3945 56.1719L101.918 53.4297L104.602 52.7852V55.0352L94.3945 59.3242V56.1719ZM116.637 43.9375V61H113.133V43.9375H116.637ZM123.023 51.0273V61H119.648V48.3203H122.812L123.023 51.0273ZM122.531 54.2148H121.617C121.617 53.2773 121.738 52.4336 121.98 51.6836C122.223 50.9258 122.562 50.2812 123 49.75C123.438 49.2109 123.957 48.8008 124.559 48.5195C125.168 48.2305 125.848 48.0859 126.598 48.0859C127.191 48.0859 127.734 48.1719 128.227 48.3438C128.719 48.5156 129.141 48.7891 129.492 49.1641C129.852 49.5391 130.125 50.0352 130.312 50.6523C130.508 51.2695 130.605 52.0234 130.605 52.9141V61H127.207V52.9023C127.207 52.3398 127.129 51.9023 126.973 51.5898C126.816 51.2773 126.586 51.0586 126.281 50.9336C125.984 50.8008 125.617 50.7344 125.18 50.7344C124.727 50.7344 124.332 50.8242 123.996 51.0039C123.668 51.1836 123.395 51.4336 123.176 51.7539C122.965 52.0664 122.805 52.4336 122.695 52.8555C122.586 53.2773 122.531 53.7305 122.531 54.2148ZM137.484 58.5391L140.297 48.3203H143.824L139.547 61H137.414L137.484 58.5391ZM135.551 48.3203L138.375 58.5508L138.434 61H136.289L132.012 48.3203H135.551ZM151.008 61.2344C150.023 61.2344 149.141 61.0781 148.359 60.7656C147.578 60.4453 146.914 60.0039 146.367 59.4414C145.828 58.8789 145.414 58.2266 145.125 57.4844C144.836 56.7344 144.691 55.9375 144.691 55.0938V54.625C144.691 53.6641 144.828 52.7852 145.102 51.9883C145.375 51.1914 145.766 50.5 146.273 49.9141C146.789 49.3281 147.414 48.8789 148.148 48.5664C148.883 48.2461 149.711 48.0859 150.633 48.0859C151.531 48.0859 152.328 48.2344 153.023 48.5312C153.719 48.8281 154.301 49.25 154.77 49.7969C155.246 50.3438 155.605 51 155.848 51.7656C156.09 52.5234 156.211 53.3672 156.211 54.2969V55.7031H146.133V53.4531H152.895V53.1953C152.895 52.7266 152.809 52.3086 152.637 51.9414C152.473 51.5664 152.223 51.2695 151.887 51.0508C151.551 50.832 151.121 50.7227 150.598 50.7227C150.152 50.7227 149.77 50.8203 149.449 51.0156C149.129 51.2109 148.867 51.4844 148.664 51.8359C148.469 52.1875 148.32 52.6016 148.219 53.0781C148.125 53.5469 148.078 54.0625 148.078 54.625V55.0938C148.078 55.6016 148.148 56.0703 148.289 56.5C148.438 56.9297 148.645 57.3008 148.91 57.6133C149.184 57.9258 149.512 58.168 149.895 58.3398C150.285 58.5117 150.727 58.5977 151.219 58.5977C151.828 58.5977 152.395 58.4805 152.918 58.2461C153.449 58.0039 153.906 57.6406 154.289 57.1562L155.93 58.9375C155.664 59.3203 155.301 59.6875 154.84 60.0391C154.387 60.3906 153.84 60.6797 153.199 60.9062C152.559 61.125 151.828 61.2344 151.008 61.2344ZM164.988 57.4961C164.988 57.2539 164.918 57.0352 164.777 56.8398C164.637 56.6445 164.375 56.4648 163.992 56.3008C163.617 56.1289 163.074 55.9727 162.363 55.832C161.723 55.6914 161.125 55.5156 160.57 55.3047C160.023 55.0859 159.547 54.8242 159.141 54.5195C158.742 54.2148 158.43 53.8555 158.203 53.4414C157.977 53.0195 157.863 52.5391 157.863 52C157.863 51.4688 157.977 50.9688 158.203 50.5C158.438 50.0312 158.77 49.6172 159.199 49.2578C159.637 48.8906 160.168 48.6055 160.793 48.4023C161.426 48.1914 162.137 48.0859 162.926 48.0859C164.027 48.0859 164.973 48.2617 165.762 48.6133C166.559 48.9648 167.168 49.4492 167.59 50.0664C168.02 50.6758 168.234 51.3711 168.234 52.1523H164.859C164.859 51.8242 164.789 51.5312 164.648 51.2734C164.516 51.0078 164.305 50.8008 164.016 50.6523C163.734 50.4961 163.367 50.418 162.914 50.418C162.539 50.418 162.215 50.4844 161.941 50.6172C161.668 50.7422 161.457 50.9141 161.309 51.1328C161.168 51.3438 161.098 51.5781 161.098 51.8359C161.098 52.0312 161.137 52.207 161.215 52.3633C161.301 52.5117 161.438 52.6484 161.625 52.7734C161.812 52.8984 162.055 53.0156 162.352 53.125C162.656 53.2266 163.031 53.3203 163.477 53.4062C164.391 53.5938 165.207 53.8398 165.926 54.1445C166.645 54.4414 167.215 54.8477 167.637 55.3633C168.059 55.8711 168.27 56.5391 168.27 57.3672C168.27 57.9297 168.145 58.4453 167.895 58.9141C167.645 59.3828 167.285 59.793 166.816 60.1445C166.348 60.4883 165.785 60.7578 165.129 60.9531C164.48 61.1406 163.75 61.2344 162.938 61.2344C161.758 61.2344 160.758 61.0234 159.938 60.6016C159.125 60.1797 158.508 59.6445 158.086 58.9961C157.672 58.3398 157.465 57.668 157.465 56.9805H160.664C160.68 57.4414 160.797 57.8125 161.016 58.0938C161.242 58.375 161.527 58.5781 161.871 58.7031C162.223 58.8281 162.602 58.8906 163.008 58.8906C163.445 58.8906 163.809 58.832 164.098 58.7148C164.387 58.5898 164.605 58.4258 164.754 58.2227C164.91 58.0117 164.988 57.7695 164.988 57.4961ZM176.672 48.3203V50.7109H169.289V48.3203H176.672ZM171.117 45.1914H174.492V57.1797C174.492 57.5469 174.539 57.8281 174.633 58.0234C174.734 58.2188 174.883 58.3555 175.078 58.4336C175.273 58.5039 175.52 58.5391 175.816 58.5391C176.027 58.5391 176.215 58.5312 176.379 58.5156C176.551 58.4922 176.695 58.4688 176.812 58.4453L176.824 60.9297C176.535 61.0234 176.223 61.0977 175.887 61.1523C175.551 61.207 175.18 61.2344 174.773 61.2344C174.031 61.2344 173.383 61.1133 172.828 60.8711C172.281 60.6211 171.859 60.2227 171.562 59.6758C171.266 59.1289 171.117 58.4102 171.117 57.5195V45.1914ZM177.75 54.7891V54.543C177.75 53.6133 177.883 52.7578 178.148 51.9766C178.414 51.1875 178.801 50.5039 179.309 49.9258C179.816 49.3477 180.441 48.8984 181.184 48.5781C181.926 48.25 182.777 48.0859 183.738 48.0859C184.699 48.0859 185.555 48.25 186.305 48.5781C187.055 48.8984 187.684 49.3477 188.191 49.9258C188.707 50.5039 189.098 51.1875 189.363 51.9766C189.629 52.7578 189.762 53.6133 189.762 54.543V54.7891C189.762 55.7109 189.629 56.5664 189.363 57.3555C189.098 58.1367 188.707 58.8203 188.191 59.4062C187.684 59.9844 187.059 60.4336 186.316 60.7539C185.574 61.0742 184.723 61.2344 183.762 61.2344C182.801 61.2344 181.945 61.0742 181.195 60.7539C180.453 60.4336 179.824 59.9844 179.309 59.4062C178.801 58.8203 178.414 58.1367 178.148 57.3555C177.883 56.5664 177.75 55.7109 177.75 54.7891ZM181.125 54.543V54.7891C181.125 55.3203 181.172 55.8164 181.266 56.2773C181.359 56.7383 181.508 57.1445 181.711 57.4961C181.922 57.8398 182.195 58.1094 182.531 58.3047C182.867 58.5 183.277 58.5977 183.762 58.5977C184.23 58.5977 184.633 58.5 184.969 58.3047C185.305 58.1094 185.574 57.8398 185.777 57.4961C185.98 57.1445 186.129 56.7383 186.223 56.2773C186.324 55.8164 186.375 55.3203 186.375 54.7891V54.543C186.375 54.0273 186.324 53.543 186.223 53.0898C186.129 52.6289 185.977 52.2227 185.766 51.8711C185.562 51.5117 185.293 51.2305 184.957 51.0273C184.621 50.8242 184.215 50.7227 183.738 50.7227C183.262 50.7227 182.855 50.8242 182.52 51.0273C182.191 51.2305 181.922 51.5117 181.711 51.8711C181.508 52.2227 181.359 52.6289 181.266 53.0898C181.172 53.543 181.125 54.0273 181.125 54.543ZM195.211 51.0859V61H191.836V48.3203H195.012L195.211 51.0859ZM199.031 48.2383L198.973 51.3672C198.809 51.3438 198.609 51.3242 198.375 51.3086C198.148 51.2852 197.941 51.2734 197.754 51.2734C197.277 51.2734 196.863 51.3359 196.512 51.4609C196.168 51.5781 195.879 51.7539 195.645 51.9883C195.418 52.2227 195.246 52.5078 195.129 52.8438C195.02 53.1797 194.957 53.5625 194.941 53.9922L194.262 53.7812C194.262 52.9609 194.344 52.207 194.508 51.5195C194.672 50.8242 194.91 50.2188 195.223 49.7031C195.543 49.1875 195.934 48.7891 196.395 48.5078C196.855 48.2266 197.383 48.0859 197.977 48.0859C198.164 48.0859 198.355 48.1016 198.551 48.1328C198.746 48.1562 198.906 48.1914 199.031 48.2383ZM210.727 55.3398H214.23C214.16 56.4883 213.844 57.5078 213.281 58.3984C212.727 59.2891 211.949 59.9844 210.949 60.4844C209.957 60.9844 208.762 61.2344 207.363 61.2344C206.27 61.2344 205.289 61.0469 204.422 60.6719C203.555 60.2891 202.812 59.7422 202.195 59.0312C201.586 58.3203 201.121 57.4609 200.801 56.4531C200.48 55.4453 200.32 54.3164 200.32 53.0664V51.8828C200.32 50.6328 200.484 49.5039 200.812 48.4961C201.148 47.4805 201.625 46.6172 202.242 45.9062C202.867 45.1953 203.613 44.6484 204.48 44.2656C205.348 43.8828 206.316 43.6914 207.387 43.6914C208.809 43.6914 210.008 43.9492 210.984 44.4648C211.969 44.9805 212.73 45.6914 213.27 46.5977C213.816 47.5039 214.145 48.5352 214.254 49.6914H210.738C210.699 49.0039 210.562 48.4219 210.328 47.9453C210.094 47.4609 209.738 47.0977 209.262 46.8555C208.793 46.6055 208.168 46.4805 207.387 46.4805C206.801 46.4805 206.289 46.5898 205.852 46.8086C205.414 47.0273 205.047 47.3594 204.75 47.8047C204.453 48.25 204.23 48.8125 204.082 49.4922C203.941 50.1641 203.871 50.9531 203.871 51.8594V53.0664C203.871 53.9492 203.938 54.7266 204.07 55.3984C204.203 56.0625 204.406 56.625 204.68 57.0859C204.961 57.5391 205.32 57.8828 205.758 58.1172C206.203 58.3438 206.738 58.457 207.363 58.457C208.098 58.457 208.703 58.3398 209.18 58.1055C209.656 57.8711 210.02 57.5234 210.27 57.0625C210.527 56.6016 210.68 56.0273 210.727 55.3398ZM215.789 54.7891V54.543C215.789 53.6133 215.922 52.7578 216.188 51.9766C216.453 51.1875 216.84 50.5039 217.348 49.9258C217.855 49.3477 218.48 48.8984 219.223 48.5781C219.965 48.25 220.816 48.0859 221.777 48.0859C222.738 48.0859 223.594 48.25 224.344 48.5781C225.094 48.8984 225.723 49.3477 226.23 49.9258C226.746 50.5039 227.137 51.1875 227.402 51.9766C227.668 52.7578 227.801 53.6133 227.801 54.543V54.7891C227.801 55.7109 227.668 56.5664 227.402 57.3555C227.137 58.1367 226.746 58.8203 226.23 59.4062C225.723 59.9844 225.098 60.4336 224.355 60.7539C223.613 61.0742 222.762 61.2344 221.801 61.2344C220.84 61.2344 219.984 61.0742 219.234 60.7539C218.492 60.4336 217.863 59.9844 217.348 59.4062C216.84 58.8203 216.453 58.1367 216.188 57.3555C215.922 56.5664 215.789 55.7109 215.789 54.7891ZM219.164 54.543V54.7891C219.164 55.3203 219.211 55.8164 219.305 56.2773C219.398 56.7383 219.547 57.1445 219.75 57.4961C219.961 57.8398 220.234 58.1094 220.57 58.3047C220.906 58.5 221.316 58.5977 221.801 58.5977C222.27 58.5977 222.672 58.5 223.008 58.3047C223.344 58.1094 223.613 57.8398 223.816 57.4961C224.02 57.1445 224.168 56.7383 224.262 56.2773C224.363 55.8164 224.414 55.3203 224.414 54.7891V54.543C224.414 54.0273 224.363 53.543 224.262 53.0898C224.168 52.6289 224.016 52.2227 223.805 51.8711C223.602 51.5117 223.332 51.2305 222.996 51.0273C222.66 50.8242 222.254 50.7227 221.777 50.7227C221.301 50.7227 220.895 50.8242 220.559 51.0273C220.23 51.2305 219.961 51.5117 219.75 51.8711C219.547 52.2227 219.398 52.6289 219.305 53.0898C219.211 53.543 219.164 54.0273 219.164 54.543ZM233.18 51.0273V61H229.805V48.3203H232.969L233.18 51.0273ZM232.688 54.2148H231.773C231.773 53.2773 231.895 52.4336 232.137 51.6836C232.379 50.9258 232.719 50.2812 233.156 49.75C233.594 49.2109 234.113 48.8008 234.715 48.5195C235.324 48.2305 236.004 48.0859 236.754 48.0859C237.348 48.0859 237.891 48.1719 238.383 48.3438C238.875 48.5156 239.297 48.7891 239.648 49.1641C240.008 49.5391 240.281 50.0352 240.469 50.6523C240.664 51.2695 240.762 52.0234 240.762 52.9141V61H237.363V52.9023C237.363 52.3398 237.285 51.9023 237.129 51.5898C236.973 51.2773 236.742 51.0586 236.438 50.9336C236.141 50.8008 235.773 50.7344 235.336 50.7344C234.883 50.7344 234.488 50.8242 234.152 51.0039C233.824 51.1836 233.551 51.4336 233.332 51.7539C233.121 52.0664 232.961 52.4336 232.852 52.8555C232.742 53.2773 232.688 53.7305 232.688 54.2148ZM246.633 51.0273V61H243.258V48.3203H246.422L246.633 51.0273ZM246.141 54.2148H245.227C245.227 53.2773 245.348 52.4336 245.59 51.6836C245.832 50.9258 246.172 50.2812 246.609 49.75C247.047 49.2109 247.566 48.8008 248.168 48.5195C248.777 48.2305 249.457 48.0859 250.207 48.0859C250.801 48.0859 251.344 48.1719 251.836 48.3438C252.328 48.5156 252.75 48.7891 253.102 49.1641C253.461 49.5391 253.734 50.0352 253.922 50.6523C254.117 51.2695 254.215 52.0234 254.215 52.9141V61H250.816V52.9023C250.816 52.3398 250.738 51.9023 250.582 51.5898C250.426 51.2773 250.195 51.0586 249.891 50.9336C249.594 50.8008 249.227 50.7344 248.789 50.7344C248.336 50.7344 247.941 50.8242 247.605 51.0039C247.277 51.1836 247.004 51.4336 246.785 51.7539C246.574 52.0664 246.414 52.4336 246.305 52.8555C246.195 53.2773 246.141 53.7305 246.141 54.2148ZM262.617 61.2344C261.633 61.2344 260.75 61.0781 259.969 60.7656C259.188 60.4453 258.523 60.0039 257.977 59.4414C257.438 58.8789 257.023 58.2266 256.734 57.4844C256.445 56.7344 256.301 55.9375 256.301 55.0938V54.625C256.301 53.6641 256.438 52.7852 256.711 51.9883C256.984 51.1914 257.375 50.5 257.883 49.9141C258.398 49.3281 259.023 48.8789 259.758 48.5664C260.492 48.2461 261.32 48.0859 262.242 48.0859C263.141 48.0859 263.938 48.2344 264.633 48.5312C265.328 48.8281 265.91 49.25 266.379 49.7969C266.855 50.3438 267.215 51 267.457 51.7656C267.699 52.5234 267.82 53.3672 267.82 54.2969V55.7031H257.742V53.4531H264.504V53.1953C264.504 52.7266 264.418 52.3086 264.246 51.9414C264.082 51.5664 263.832 51.2695 263.496 51.0508C263.16 50.832 262.73 50.7227 262.207 50.7227C261.762 50.7227 261.379 50.8203 261.059 51.0156C260.738 51.2109 260.477 51.4844 260.273 51.8359C260.078 52.1875 259.93 52.6016 259.828 53.0781C259.734 53.5469 259.688 54.0625 259.688 54.625V55.0938C259.688 55.6016 259.758 56.0703 259.898 56.5C260.047 56.9297 260.254 57.3008 260.52 57.6133C260.793 57.9258 261.121 58.168 261.504 58.3398C261.895 58.5117 262.336 58.5977 262.828 58.5977C263.438 58.5977 264.004 58.4805 264.527 58.2461C265.059 58.0039 265.516 57.6406 265.898 57.1562L267.539 58.9375C267.273 59.3203 266.91 59.6875 266.449 60.0391C265.996 60.3906 265.449 60.6797 264.809 60.9062C264.168 61.125 263.438 61.2344 262.617 61.2344ZM274.98 58.5977C275.395 58.5977 275.762 58.5195 276.082 58.3633C276.402 58.1992 276.652 57.9727 276.832 57.6836C277.02 57.3867 277.117 57.0391 277.125 56.6406H280.301C280.293 57.5312 280.055 58.3242 279.586 59.0195C279.117 59.707 278.488 60.25 277.699 60.6484C276.91 61.0391 276.027 61.2344 275.051 61.2344C274.066 61.2344 273.207 61.0703 272.473 60.7422C271.746 60.4141 271.141 59.9609 270.656 59.3828C270.172 58.7969 269.809 58.1172 269.566 57.3438C269.324 56.5625 269.203 55.7266 269.203 54.8359V54.4961C269.203 53.5977 269.324 52.7617 269.566 51.9883C269.809 51.207 270.172 50.5273 270.656 49.9492C271.141 49.3633 271.746 48.9062 272.473 48.5781C273.199 48.25 274.051 48.0859 275.027 48.0859C276.066 48.0859 276.977 48.2852 277.758 48.6836C278.547 49.082 279.164 49.6523 279.609 50.3945C280.062 51.1289 280.293 52 280.301 53.0078H277.125C277.117 52.5859 277.027 52.2031 276.855 51.8594C276.691 51.5156 276.449 51.2422 276.129 51.0391C275.816 50.8281 275.43 50.7227 274.969 50.7227C274.477 50.7227 274.074 50.8281 273.762 51.0391C273.449 51.2422 273.207 51.5234 273.035 51.8828C272.863 52.2344 272.742 52.6367 272.672 53.0898C272.609 53.5352 272.578 54.0039 272.578 54.4961V54.8359C272.578 55.3281 272.609 55.8008 272.672 56.2539C272.734 56.707 272.852 57.1094 273.023 57.4609C273.203 57.8125 273.449 58.0898 273.762 58.293C274.074 58.4961 274.48 58.5977 274.98 58.5977ZM288.469 48.3203V50.7109H281.086V48.3203H288.469ZM282.914 45.1914H286.289V57.1797C286.289 57.5469 286.336 57.8281 286.43 58.0234C286.531 58.2188 286.68 58.3555 286.875 58.4336C287.07 58.5039 287.316 58.5391 287.613 58.5391C287.824 58.5391 288.012 58.5312 288.176 58.5156C288.348 58.4922 288.492 58.4688 288.609 58.4453L288.621 60.9297C288.332 61.0234 288.02 61.0977 287.684 61.1523C287.348 61.207 286.977 61.2344 286.57 61.2344C285.828 61.2344 285.18 61.1133 284.625 60.8711C284.078 60.6211 283.656 60.2227 283.359 59.6758C283.062 59.1289 282.914 58.4102 282.914 57.5195V45.1914Z" fill="#888888"/>
<path d="M112.125 84.875V119H103.898V84.875H112.125ZM122.391 84.875V91.2266H93.8672V84.875H122.391ZM134.695 112.625V102.172C134.695 101.453 134.594 100.836 134.391 100.32C134.188 99.8047 133.867 99.4062 133.43 99.125C132.992 98.8281 132.406 98.6797 131.672 98.6797C131.078 98.6797 130.57 98.7812 130.148 98.9844C129.727 99.1875 129.406 99.4922 129.188 99.8984C128.969 100.305 128.859 100.82 128.859 101.445H120.961C120.961 100.273 121.219 99.1875 121.734 98.1875C122.266 97.1719 123.016 96.2891 123.984 95.5391C124.969 94.7891 126.141 94.2109 127.5 93.8047C128.875 93.3828 130.406 93.1719 132.094 93.1719C134.109 93.1719 135.906 93.5078 137.484 94.1797C139.078 94.8516 140.336 95.8594 141.258 97.2031C142.18 98.5312 142.641 100.203 142.641 102.219V112.602C142.641 114.258 142.734 115.516 142.922 116.375C143.109 117.219 143.375 117.961 143.719 118.602V119H135.797C135.422 118.219 135.141 117.266 134.953 116.141C134.781 115 134.695 113.828 134.695 112.625ZM135.656 103.508L135.703 107.727H132.211C131.477 107.727 130.852 107.828 130.336 108.031C129.836 108.234 129.43 108.516 129.117 108.875C128.82 109.219 128.602 109.609 128.461 110.047C128.336 110.484 128.273 110.945 128.273 111.43C128.273 111.898 128.383 112.32 128.602 112.695C128.836 113.055 129.148 113.336 129.539 113.539C129.93 113.742 130.367 113.844 130.852 113.844C131.727 113.844 132.469 113.68 133.078 113.352C133.703 113.008 134.18 112.594 134.508 112.109C134.836 111.625 135 111.172 135 110.75L136.734 113.984C136.422 114.609 136.062 115.242 135.656 115.883C135.266 116.523 134.773 117.117 134.18 117.664C133.602 118.195 132.891 118.633 132.047 118.977C131.203 119.305 130.18 119.469 128.977 119.469C127.414 119.469 125.977 119.148 124.664 118.508C123.367 117.867 122.328 116.977 121.547 115.836C120.766 114.68 120.375 113.352 120.375 111.852C120.375 110.539 120.609 109.367 121.078 108.336C121.562 107.305 122.289 106.43 123.258 105.711C124.227 104.992 125.461 104.445 126.961 104.07C128.461 103.695 130.227 103.508 132.258 103.508H135.656ZM147.094 83H154.992V112.766L154.172 119H147.094V83ZM170.555 106.039V106.531C170.555 108.453 170.359 110.203 169.969 111.781C169.578 113.359 168.977 114.727 168.164 115.883C167.352 117.023 166.328 117.906 165.094 118.531C163.859 119.156 162.398 119.469 160.711 119.469C159.18 119.469 157.867 119.141 156.773 118.484C155.68 117.812 154.766 116.891 154.031 115.719C153.297 114.531 152.703 113.164 152.25 111.617C151.797 110.055 151.438 108.383 151.172 106.602V106.016C151.438 104.25 151.797 102.594 152.25 101.047C152.703 99.4844 153.297 98.1172 154.031 96.9453C154.766 95.7578 155.672 94.8359 156.75 94.1797C157.844 93.5078 159.148 93.1719 160.664 93.1719C162.367 93.1719 163.836 93.4922 165.07 94.1328C166.32 94.7734 167.352 95.6719 168.164 96.8281C168.977 97.9844 169.578 99.3438 169.969 100.906C170.359 102.469 170.555 104.18 170.555 106.039ZM162.656 106.531V106.039C162.656 105.117 162.602 104.25 162.492 103.438C162.383 102.625 162.188 101.906 161.906 101.281C161.625 100.656 161.227 100.164 160.711 99.8047C160.195 99.4453 159.523 99.2656 158.695 99.2656C157.852 99.2656 157.141 99.4062 156.562 99.6875C156 99.9688 155.547 100.375 155.203 100.906C154.875 101.422 154.641 102.062 154.5 102.828C154.359 103.578 154.297 104.43 154.312 105.383V107.234C154.281 108.531 154.398 109.641 154.664 110.562C154.93 111.484 155.391 112.188 156.047 112.672C156.703 113.156 157.602 113.398 158.742 113.398C159.586 113.398 160.266 113.234 160.781 112.906C161.312 112.578 161.711 112.109 161.977 111.5C162.242 110.891 162.422 110.164 162.516 109.32C162.609 108.477 162.656 107.547 162.656 106.531ZM182.414 83V119H174.492V83H182.414ZM199.57 119.469C197.508 119.469 195.664 119.148 194.039 118.508C192.414 117.852 191.039 116.953 189.914 115.812C188.805 114.672 187.953 113.359 187.359 111.875C186.781 110.391 186.492 108.82 186.492 107.164V106.273C186.492 104.414 186.75 102.695 187.266 101.117C187.781 99.5234 188.547 98.1328 189.562 96.9453C190.578 95.7578 191.852 94.8359 193.383 94.1797C194.914 93.5078 196.695 93.1719 198.727 93.1719C200.523 93.1719 202.133 93.4609 203.555 94.0391C204.977 94.6172 206.18 95.4453 207.164 96.5234C208.164 97.6016 208.922 98.9062 209.438 100.438C209.969 101.969 210.234 103.688 210.234 105.594V108.805H189.516V103.859H202.523V103.25C202.539 102.406 202.391 101.688 202.078 101.094C201.781 100.5 201.344 100.047 200.766 99.7344C200.188 99.4219 199.484 99.2656 198.656 99.2656C197.797 99.2656 197.086 99.4531 196.523 99.8281C195.977 100.203 195.547 100.719 195.234 101.375C194.938 102.016 194.727 102.758 194.602 103.602C194.477 104.445 194.414 105.336 194.414 106.273V107.164C194.414 108.102 194.539 108.953 194.789 109.719C195.055 110.484 195.43 111.141 195.914 111.688C196.414 112.219 197.008 112.633 197.695 112.93C198.398 113.227 199.195 113.375 200.086 113.375C201.164 113.375 202.227 113.172 203.273 112.766C204.32 112.359 205.219 111.688 205.969 110.75L209.555 115.016C209.039 115.75 208.305 116.461 207.352 117.148C206.414 117.836 205.289 118.398 203.977 118.836C202.664 119.258 201.195 119.469 199.57 119.469ZM224.414 106.578V106.086C224.414 104.227 224.68 102.516 225.211 100.953C225.742 99.375 226.523 98.0078 227.555 96.8516C228.586 95.6953 229.859 94.7969 231.375 94.1562C232.891 93.5 234.641 93.1719 236.625 93.1719C238.625 93.1719 240.383 93.5 241.898 94.1562C243.43 94.7969 244.711 95.6953 245.742 96.8516C246.773 98.0078 247.555 99.375 248.086 100.953C248.617 102.516 248.883 104.227 248.883 106.086V106.578C248.883 108.422 248.617 110.133 248.086 111.711C247.555 113.273 246.773 114.641 245.742 115.812C244.711 116.969 243.438 117.867 241.922 118.508C240.406 119.148 238.656 119.469 236.672 119.469C234.688 119.469 232.93 119.148 231.398 118.508C229.867 117.867 228.586 116.969 227.555 115.812C226.523 114.641 225.742 113.273 225.211 111.711C224.68 110.133 224.414 108.422 224.414 106.578ZM232.312 106.086V106.578C232.312 107.531 232.383 108.422 232.523 109.25C232.664 110.078 232.898 110.805 233.227 111.43C233.555 112.039 234 112.516 234.562 112.859C235.125 113.203 235.828 113.375 236.672 113.375C237.5 113.375 238.188 113.203 238.734 112.859C239.297 112.516 239.742 112.039 240.07 111.43C240.398 110.805 240.633 110.078 240.773 109.25C240.914 108.422 240.984 107.531 240.984 106.578V106.086C240.984 105.164 240.914 104.297 240.773 103.484C240.633 102.656 240.398 101.93 240.07 101.305C239.742 100.664 239.297 100.164 238.734 99.8047C238.172 99.4453 237.469 99.2656 236.625 99.2656C235.797 99.2656 235.102 99.4453 234.539 99.8047C233.992 100.164 233.555 100.664 233.227 101.305C232.898 101.93 232.664 102.656 232.523 103.484C232.383 104.297 232.312 105.164 232.312 106.086ZM262.078 119H254.133V91.5781C254.133 89.6094 254.531 87.9531 255.328 86.6094C256.125 85.2656 257.25 84.25 258.703 83.5625C260.156 82.8594 261.875 82.5078 263.859 82.5078C264.547 82.5078 265.195 82.5547 265.805 82.6484C266.414 82.7422 267.008 82.8594 267.586 83L267.609 88.8125C267.328 88.7344 267.039 88.6797 266.742 88.6484C266.445 88.6172 266.078 88.6016 265.641 88.6016C264.875 88.6016 264.227 88.7188 263.695 88.9531C263.164 89.1719 262.758 89.5078 262.477 89.9609C262.211 90.3984 262.078 90.9375 262.078 91.5781V119ZM267 93.6406V99.125H250.477V93.6406H267ZM301.57 107.445H309.773C309.664 109.82 309.023 111.914 307.852 113.727C306.68 115.539 305.055 116.953 302.977 117.969C300.914 118.969 298.477 119.469 295.664 119.469C293.383 119.469 291.344 119.086 289.547 118.32C287.766 117.555 286.25 116.453 285 115.016C283.766 113.578 282.82 111.836 282.164 109.789C281.523 107.742 281.203 105.438 281.203 102.875V101.023C281.203 98.4609 281.539 96.1562 282.211 94.1094C282.898 92.0469 283.867 90.2969 285.117 88.8594C286.383 87.4062 287.898 86.2969 289.664 85.5312C291.43 84.7656 293.391 84.3828 295.547 84.3828C298.516 84.3828 301.023 84.9141 303.07 85.9766C305.117 87.0391 306.703 88.5 307.828 90.3594C308.953 92.2031 309.617 94.3047 309.82 96.6641H301.617C301.586 95.3828 301.367 94.3125 300.961 93.4531C300.555 92.5781 299.914 91.9219 299.039 91.4844C298.164 91.0469 297 90.8281 295.547 90.8281C294.531 90.8281 293.648 91.0156 292.898 91.3906C292.148 91.7656 291.523 92.3594 291.023 93.1719C290.523 93.9844 290.148 95.0391 289.898 96.3359C289.664 97.6172 289.547 99.1641 289.547 100.977V102.875C289.547 104.688 289.656 106.234 289.875 107.516C290.094 108.797 290.445 109.844 290.93 110.656C291.414 111.469 292.039 112.07 292.805 112.461C293.586 112.836 294.539 113.023 295.664 113.023C296.914 113.023 297.969 112.828 298.828 112.438C299.688 112.031 300.352 111.422 300.82 110.609C301.289 109.781 301.539 108.727 301.57 107.445ZM312.305 106.578V106.086C312.305 104.227 312.57 102.516 313.102 100.953C313.633 99.375 314.414 98.0078 315.445 96.8516C316.477 95.6953 317.75 94.7969 319.266 94.1562C320.781 93.5 322.531 93.1719 324.516 93.1719C326.516 93.1719 328.273 93.5 329.789 94.1562C331.32 94.7969 332.602 95.6953 333.633 96.8516C334.664 98.0078 335.445 99.375 335.977 100.953C336.508 102.516 336.773 104.227 336.773 106.086V106.578C336.773 108.422 336.508 110.133 335.977 111.711C335.445 113.273 334.664 114.641 333.633 115.812C332.602 116.969 331.328 117.867 329.812 118.508C328.297 119.148 326.547 119.469 324.562 119.469C322.578 119.469 320.82 119.148 319.289 118.508C317.758 117.867 316.477 116.969 315.445 115.812C314.414 114.641 313.633 113.273 313.102 111.711C312.57 110.133 312.305 108.422 312.305 106.578ZM320.203 106.086V106.578C320.203 107.531 320.273 108.422 320.414 109.25C320.555 110.078 320.789 110.805 321.117 111.43C321.445 112.039 321.891 112.516 322.453 112.859C323.016 113.203 323.719 113.375 324.562 113.375C325.391 113.375 326.078 113.203 326.625 112.859C327.188 112.516 327.633 112.039 327.961 111.43C328.289 110.805 328.523 110.078 328.664 109.25C328.805 108.422 328.875 107.531 328.875 106.578V106.086C328.875 105.164 328.805 104.297 328.664 103.484C328.523 102.656 328.289 101.93 327.961 101.305C327.633 100.664 327.188 100.164 326.625 99.8047C326.062 99.4453 325.359 99.2656 324.516 99.2656C323.688 99.2656 322.992 99.4453 322.43 99.8047C321.883 100.164 321.445 100.664 321.117 101.305C320.789 101.93 320.555 102.656 320.414 103.484C320.273 104.297 320.203 105.164 320.203 106.086ZM348.047 99.0547V119H340.148V93.6406H347.555L348.047 99.0547ZM347.109 105.453L345.258 105.5C345.258 103.562 345.492 101.836 345.961 100.32C346.43 98.7891 347.094 97.4922 347.953 96.4297C348.812 95.3672 349.836 94.5625 351.023 94.0156C352.227 93.4531 353.562 93.1719 355.031 93.1719C356.203 93.1719 357.273 93.3438 358.242 93.6875C359.227 94.0312 360.07 94.5859 360.773 95.3516C361.492 96.1172 362.039 97.1328 362.414 98.3984C362.805 99.6484 363 101.195 363 103.039V119H355.055V103.016C355.055 102 354.914 101.227 354.633 100.695C354.352 100.148 353.945 99.7734 353.414 99.5703C352.883 99.3672 352.234 99.2656 351.469 99.2656C350.656 99.2656 349.969 99.4219 349.406 99.7344C348.844 100.047 348.391 100.484 348.047 101.047C347.719 101.594 347.477 102.242 347.32 102.992C347.18 103.742 347.109 104.562 347.109 105.453ZM380.742 93.6406V99.125H365.461V93.6406H380.742ZM368.672 87.3359H376.57V110.727C376.57 111.398 376.648 111.922 376.805 112.297C376.961 112.656 377.227 112.914 377.602 113.07C377.992 113.211 378.508 113.281 379.148 113.281C379.602 113.281 379.977 113.273 380.273 113.258C380.57 113.227 380.852 113.188 381.117 113.141V118.789C380.445 119.008 379.742 119.172 379.008 119.281C378.273 119.406 377.492 119.469 376.664 119.469C374.977 119.469 373.531 119.203 372.328 118.672C371.141 118.141 370.234 117.305 369.609 116.164C368.984 115.023 368.672 113.539 368.672 111.711V87.3359ZM396.164 119.469C394.102 119.469 392.258 119.148 390.633 118.508C389.008 117.852 387.633 116.953 386.508 115.812C385.398 114.672 384.547 113.359 383.953 111.875C383.375 110.391 383.086 108.82 383.086 107.164V106.273C383.086 104.414 383.344 102.695 383.859 101.117C384.375 99.5234 385.141 98.1328 386.156 96.9453C387.172 95.7578 388.445 94.8359 389.977 94.1797C391.508 93.5078 393.289 93.1719 395.32 93.1719C397.117 93.1719 398.727 93.4609 400.148 94.0391C401.57 94.6172 402.773 95.4453 403.758 96.5234C404.758 97.6016 405.516 98.9062 406.031 100.438C406.562 101.969 406.828 103.688 406.828 105.594V108.805H386.109V103.859H399.117V103.25C399.133 102.406 398.984 101.688 398.672 101.094C398.375 100.5 397.938 100.047 397.359 99.7344C396.781 99.4219 396.078 99.2656 395.25 99.2656C394.391 99.2656 393.68 99.4531 393.117 99.8281C392.57 100.203 392.141 100.719 391.828 101.375C391.531 102.016 391.32 102.758 391.195 103.602C391.07 104.445 391.008 105.336 391.008 106.273V107.164C391.008 108.102 391.133 108.953 391.383 109.719C391.648 110.484 392.023 111.141 392.508 111.688C393.008 112.219 393.602 112.633 394.289 112.93C394.992 113.227 395.789 113.375 396.68 113.375C397.758 113.375 398.82 113.172 399.867 112.766C400.914 112.359 401.812 111.688 402.562 110.75L406.148 115.016C405.633 115.75 404.898 116.461 403.945 117.148C403.008 117.836 401.883 118.398 400.57 118.836C399.258 119.258 397.789 119.469 396.164 119.469ZM417.797 99.0547V119H409.898V93.6406H417.305L417.797 99.0547ZM416.859 105.453L415.008 105.5C415.008 103.562 415.242 101.836 415.711 100.32C416.18 98.7891 416.844 97.4922 417.703 96.4297C418.562 95.3672 419.586 94.5625 420.773 94.0156C421.977 93.4531 423.312 93.1719 424.781 93.1719C425.953 93.1719 427.023 93.3438 427.992 93.6875C428.977 94.0312 429.82 94.5859 430.523 95.3516C431.242 96.1172 431.789 97.1328 432.164 98.3984C432.555 99.6484 432.75 101.195 432.75 103.039V119H424.805V103.016C424.805 102 424.664 101.227 424.383 100.695C424.102 100.148 423.695 99.7734 423.164 99.5703C422.633 99.3672 421.984 99.2656 421.219 99.2656C420.406 99.2656 419.719 99.4219 419.156 99.7344C418.594 100.047 418.141 100.484 417.797 101.047C417.469 101.594 417.227 102.242 417.07 102.992C416.93 103.742 416.859 104.562 416.859 105.453ZM450.492 93.6406V99.125H435.211V93.6406H450.492ZM438.422 87.3359H446.32V110.727C446.32 111.398 446.398 111.922 446.555 112.297C446.711 112.656 446.977 112.914 447.352 113.07C447.742 113.211 448.258 113.281 448.898 113.281C449.352 113.281 449.727 113.273 450.023 113.258C450.32 113.227 450.602 113.188 450.867 113.141V118.789C450.195 119.008 449.492 119.172 448.758 119.281C448.023 119.406 447.242 119.469 446.414 119.469C444.727 119.469 443.281 119.203 442.078 118.672C440.891 118.141 439.984 117.305 439.359 116.164C438.734 115.023 438.422 113.539 438.422 111.711V87.3359ZM466.922 111.875C466.922 111.438 466.773 111.062 466.477 110.75C466.195 110.422 465.695 110.125 464.977 109.859C464.258 109.578 463.25 109.297 461.953 109.016C460.719 108.75 459.555 108.398 458.461 107.961C457.383 107.523 456.438 106.992 455.625 106.367C454.812 105.742 454.172 105 453.703 104.141C453.25 103.281 453.023 102.297 453.023 101.188C453.023 100.109 453.25 99.0938 453.703 98.1406C454.172 97.1719 454.852 96.3203 455.742 95.5859C456.648 94.8359 457.75 94.25 459.047 93.8281C460.344 93.3906 461.82 93.1719 463.477 93.1719C465.758 93.1719 467.727 93.5234 469.383 94.2266C471.039 94.9141 472.312 95.8828 473.203 97.1328C474.109 98.3672 474.562 99.7969 474.562 101.422H466.664C466.664 100.781 466.555 100.234 466.336 99.7812C466.133 99.3281 465.797 98.9844 465.328 98.75C464.859 98.5 464.234 98.375 463.453 98.375C462.906 98.375 462.406 98.4766 461.953 98.6797C461.516 98.8828 461.164 99.1641 460.898 99.5234C460.633 99.8828 460.5 100.305 460.5 100.789C460.5 101.133 460.578 101.445 460.734 101.727C460.906 101.992 461.164 102.242 461.508 102.477C461.852 102.695 462.289 102.898 462.82 103.086C463.352 103.258 463.992 103.414 464.742 103.555C466.445 103.867 468.039 104.312 469.523 104.891C471.008 105.469 472.211 106.289 473.133 107.352C474.07 108.414 474.539 109.844 474.539 111.641C474.539 112.766 474.281 113.805 473.766 114.758C473.25 115.695 472.508 116.523 471.539 117.242C470.57 117.945 469.406 118.492 468.047 118.883C466.688 119.273 465.156 119.469 463.453 119.469C461.031 119.469 458.984 119.039 457.312 118.18C455.641 117.305 454.375 116.211 453.516 114.898C452.672 113.57 452.25 112.227 452.25 110.867H459.609C459.641 111.648 459.828 112.289 460.172 112.789C460.531 113.289 461.008 113.656 461.602 113.891C462.195 114.125 462.883 114.242 463.664 114.242C464.383 114.242 464.977 114.141 465.445 113.938C465.93 113.734 466.297 113.461 466.547 113.117C466.797 112.758 466.922 112.344 466.922 111.875Z" fill="black"/>
<path d="M1134 0H1348C1356.28 0 1363 6.71573 1363 15V148C1363 156.284 1356.28 163 1348 163H1134V0Z" fill="#4C68AF"/>
<path d="M1201.25 60.1667V54.8333H1290.5V60.1667H1201.25ZM1290.5 81.5V86.8333H1201.25V81.5H1290.5ZM1201.25 108.167H1290.5V113.5H1201.25V108.167Z" fill="white"/>
</svg>
