<svg width="1363" height="163" viewBox="0 0 1363 163" fill="none" xmlns="http://www.w3.org/2000/svg">
<path d="M0 15C0 6.71573 6.71573 0 15 0H37V163H15C6.71573 163 0 156.284 0 148V15Z" fill="#4C68AF"/>
<rect width="1097" height="163" transform="translate(37)" fill="#F0F0F0"/>
<path d="M101.906 53.9219L94.3945 51.2383V48.0859L104.602 52.375V54.6367L101.906 53.9219ZM94.3945 56.1719L101.918 53.4297L104.602 52.7852V55.0352L94.3945 59.3242V56.1719ZM116.637 43.9375V61H113.133V43.9375H116.637ZM123.023 51.0273V61H119.648V48.3203H122.812L123.023 51.0273ZM122.531 54.2148H121.617C121.617 53.2773 121.738 52.4336 121.98 51.6836C122.223 50.9258 122.562 50.2812 123 49.75C123.438 49.2109 123.957 48.8008 124.559 48.5195C125.168 48.2305 125.848 48.0859 126.598 48.0859C127.191 48.0859 127.734 48.1719 128.227 48.3438C128.719 48.5156 129.141 48.7891 129.492 49.1641C129.852 49.5391 130.125 50.0352 130.312 50.6523C130.508 51.2695 130.605 52.0234 130.605 52.9141V61H127.207V52.9023C127.207 52.3398 127.129 51.9023 126.973 51.5898C126.816 51.2773 126.586 51.0586 126.281 50.9336C125.984 50.8008 125.617 50.7344 125.18 50.7344C124.727 50.7344 124.332 50.8242 123.996 51.0039C123.668 51.1836 123.395 51.4336 123.176 51.7539C122.965 52.0664 122.805 52.4336 122.695 52.8555C122.586 53.2773 122.531 53.7305 122.531 54.2148ZM137.484 58.5391L140.297 48.3203H143.824L139.547 61H137.414L137.484 58.5391ZM135.551 48.3203L138.375 58.5508L138.434 61H136.289L132.012 48.3203H135.551ZM151.008 61.2344C150.023 61.2344 149.141 61.0781 148.359 60.7656C147.578 60.4453 146.914 60.0039 146.367 59.4414C145.828 58.8789 145.414 58.2266 145.125 57.4844C144.836 56.7344 144.691 55.9375 144.691 55.0938V54.625C144.691 53.6641 144.828 52.7852 145.102 51.9883C145.375 51.1914 145.766 50.5 146.273 49.9141C146.789 49.3281 147.414 48.8789 148.148 48.5664C148.883 48.2461 149.711 48.0859 150.633 48.0859C151.531 48.0859 152.328 48.2344 153.023 48.5312C153.719 48.8281 154.301 49.25 154.77 49.7969C155.246 50.3438 155.605 51 155.848 51.7656C156.09 52.5234 156.211 53.3672 156.211 54.2969V55.7031H146.133V53.4531H152.895V53.1953C152.895 52.7266 152.809 52.3086 152.637 51.9414C152.473 51.5664 152.223 51.2695 151.887 51.0508C151.551 50.832 151.121 50.7227 150.598 50.7227C150.152 50.7227 149.77 50.8203 149.449 51.0156C149.129 51.2109 148.867 51.4844 148.664 51.8359C148.469 52.1875 148.32 52.6016 148.219 53.0781C148.125 53.5469 148.078 54.0625 148.078 54.625V55.0938C148.078 55.6016 148.148 56.0703 148.289 56.5C148.438 56.9297 148.645 57.3008 148.91 57.6133C149.184 57.9258 149.512 58.168 149.895 58.3398C150.285 58.5117 150.727 58.5977 151.219 58.5977C151.828 58.5977 152.395 58.4805 152.918 58.2461C153.449 58.0039 153.906 57.6406 154.289 57.1562L155.93 58.9375C155.664 59.3203 155.301 59.6875 154.84 60.0391C154.387 60.3906 153.84 60.6797 153.199 60.9062C152.559 61.125 151.828 61.2344 151.008 61.2344ZM164.988 57.4961C164.988 57.2539 164.918 57.0352 164.777 56.8398C164.637 56.6445 164.375 56.4648 163.992 56.3008C163.617 56.1289 163.074 55.9727 162.363 55.832C161.723 55.6914 161.125 55.5156 160.57 55.3047C160.023 55.0859 159.547 54.8242 159.141 54.5195C158.742 54.2148 158.43 53.8555 158.203 53.4414C157.977 53.0195 157.863 52.5391 157.863 52C157.863 51.4688 157.977 50.9688 158.203 50.5C158.438 50.0312 158.77 49.6172 159.199 49.2578C159.637 48.8906 160.168 48.6055 160.793 48.4023C161.426 48.1914 162.137 48.0859 162.926 48.0859C164.027 48.0859 164.973 48.2617 165.762 48.6133C166.559 48.9648 167.168 49.4492 167.59 50.0664C168.02 50.6758 168.234 51.3711 168.234 52.1523H164.859C164.859 51.8242 164.789 51.5312 164.648 51.2734C164.516 51.0078 164.305 50.8008 164.016 50.6523C163.734 50.4961 163.367 50.418 162.914 50.418C162.539 50.418 162.215 50.4844 161.941 50.6172C161.668 50.7422 161.457 50.9141 161.309 51.1328C161.168 51.3438 161.098 51.5781 161.098 51.8359C161.098 52.0312 161.137 52.207 161.215 52.3633C161.301 52.5117 161.438 52.6484 161.625 52.7734C161.812 52.8984 162.055 53.0156 162.352 53.125C162.656 53.2266 163.031 53.3203 163.477 53.4062C164.391 53.5938 165.207 53.8398 165.926 54.1445C166.645 54.4414 167.215 54.8477 167.637 55.3633C168.059 55.8711 168.27 56.5391 168.27 57.3672C168.27 57.9297 168.145 58.4453 167.895 58.9141C167.645 59.3828 167.285 59.793 166.816 60.1445C166.348 60.4883 165.785 60.7578 165.129 60.9531C164.48 61.1406 163.75 61.2344 162.938 61.2344C161.758 61.2344 160.758 61.0234 159.938 60.6016C159.125 60.1797 158.508 59.6445 158.086 58.9961C157.672 58.3398 157.465 57.668 157.465 56.9805H160.664C160.68 57.4414 160.797 57.8125 161.016 58.0938C161.242 58.375 161.527 58.5781 161.871 58.7031C162.223 58.8281 162.602 58.8906 163.008 58.8906C163.445 58.8906 163.809 58.832 164.098 58.7148C164.387 58.5898 164.605 58.4258 164.754 58.2227C164.91 58.0117 164.988 57.7695 164.988 57.4961ZM176.672 48.3203V50.7109H169.289V48.3203H176.672ZM171.117 45.1914H174.492V57.1797C174.492 57.5469 174.539 57.8281 174.633 58.0234C174.734 58.2188 174.883 58.3555 175.078 58.4336C175.273 58.5039 175.52 58.5391 175.816 58.5391C176.027 58.5391 176.215 58.5312 176.379 58.5156C176.551 58.4922 176.695 58.4688 176.812 58.4453L176.824 60.9297C176.535 61.0234 176.223 61.0977 175.887 61.1523C175.551 61.207 175.18 61.2344 174.773 61.2344C174.031 61.2344 173.383 61.1133 172.828 60.8711C172.281 60.6211 171.859 60.2227 171.562 59.6758C171.266 59.1289 171.117 58.4102 171.117 57.5195V45.1914ZM177.75 54.7891V54.543C177.75 53.6133 177.883 52.7578 178.148 51.9766C178.414 51.1875 178.801 50.5039 179.309 49.9258C179.816 49.3477 180.441 48.8984 181.184 48.5781C181.926 48.25 182.777 48.0859 183.738 48.0859C184.699 48.0859 185.555 48.25 186.305 48.5781C187.055 48.8984 187.684 49.3477 188.191 49.9258C188.707 50.5039 189.098 51.1875 189.363 51.9766C189.629 52.7578 189.762 53.6133 189.762 54.543V54.7891C189.762 55.7109 189.629 56.5664 189.363 57.3555C189.098 58.1367 188.707 58.8203 188.191 59.4062C187.684 59.9844 187.059 60.4336 186.316 60.7539C185.574 61.0742 184.723 61.2344 183.762 61.2344C182.801 61.2344 181.945 61.0742 181.195 60.7539C180.453 60.4336 179.824 59.9844 179.309 59.4062C178.801 58.8203 178.414 58.1367 178.148 57.3555C177.883 56.5664 177.75 55.7109 177.75 54.7891ZM181.125 54.543V54.7891C181.125 55.3203 181.172 55.8164 181.266 56.2773C181.359 56.7383 181.508 57.1445 181.711 57.4961C181.922 57.8398 182.195 58.1094 182.531 58.3047C182.867 58.5 183.277 58.5977 183.762 58.5977C184.23 58.5977 184.633 58.5 184.969 58.3047C185.305 58.1094 185.574 57.8398 185.777 57.4961C185.98 57.1445 186.129 56.7383 186.223 56.2773C186.324 55.8164 186.375 55.3203 186.375 54.7891V54.543C186.375 54.0273 186.324 53.543 186.223 53.0898C186.129 52.6289 185.977 52.2227 185.766 51.8711C185.562 51.5117 185.293 51.2305 184.957 51.0273C184.621 50.8242 184.215 50.7227 183.738 50.7227C183.262 50.7227 182.855 50.8242 182.52 51.0273C182.191 51.2305 181.922 51.5117 181.711 51.8711C181.508 52.2227 181.359 52.6289 181.266 53.0898C181.172 53.543 181.125 54.0273 181.125 54.543ZM195.211 51.0859V61H191.836V48.3203H195.012L195.211 51.0859ZM199.031 48.2383L198.973 51.3672C198.809 51.3438 198.609 51.3242 198.375 51.3086C198.148 51.2852 197.941 51.2734 197.754 51.2734C197.277 51.2734 196.863 51.3359 196.512 51.4609C196.168 51.5781 195.879 51.7539 195.645 51.9883C195.418 52.2227 195.246 52.5078 195.129 52.8438C195.02 53.1797 194.957 53.5625 194.941 53.9922L194.262 53.7812C194.262 52.9609 194.344 52.207 194.508 51.5195C194.672 50.8242 194.91 50.2188 195.223 49.7031C195.543 49.1875 195.934 48.7891 196.395 48.5078C196.855 48.2266 197.383 48.0859 197.977 48.0859C198.164 48.0859 198.355 48.1016 198.551 48.1328C198.746 48.1562 198.906 48.1914 199.031 48.2383ZM210.727 55.3398H214.23C214.16 56.4883 213.844 57.5078 213.281 58.3984C212.727 59.2891 211.949 59.9844 210.949 60.4844C209.957 60.9844 208.762 61.2344 207.363 61.2344C206.27 61.2344 205.289 61.0469 204.422 60.6719C203.555 60.2891 202.812 59.7422 202.195 59.0312C201.586 58.3203 201.121 57.4609 200.801 56.4531C200.48 55.4453 200.32 54.3164 200.32 53.0664V51.8828C200.32 50.6328 200.484 49.5039 200.812 48.4961C201.148 47.4805 201.625 46.6172 202.242 45.9062C202.867 45.1953 203.613 44.6484 204.48 44.2656C205.348 43.8828 206.316 43.6914 207.387 43.6914C208.809 43.6914 210.008 43.9492 210.984 44.4648C211.969 44.9805 212.73 45.6914 213.27 46.5977C213.816 47.5039 214.145 48.5352 214.254 49.6914H210.738C210.699 49.0039 210.562 48.4219 210.328 47.9453C210.094 47.4609 209.738 47.0977 209.262 46.8555C208.793 46.6055 208.168 46.4805 207.387 46.4805C206.801 46.4805 206.289 46.5898 205.852 46.8086C205.414 47.0273 205.047 47.3594 204.75 47.8047C204.453 48.25 204.23 48.8125 204.082 49.4922C203.941 50.1641 203.871 50.9531 203.871 51.8594V53.0664C203.871 53.9492 203.938 54.7266 204.07 55.3984C204.203 56.0625 204.406 56.625 204.68 57.0859C204.961 57.5391 205.32 57.8828 205.758 58.1172C206.203 58.3438 206.738 58.457 207.363 58.457C208.098 58.457 208.703 58.3398 209.18 58.1055C209.656 57.8711 210.02 57.5234 210.27 57.0625C210.527 56.6016 210.68 56.0273 210.727 55.3398ZM215.789 54.7891V54.543C215.789 53.6133 215.922 52.7578 216.188 51.9766C216.453 51.1875 216.84 50.5039 217.348 49.9258C217.855 49.3477 218.48 48.8984 219.223 48.5781C219.965 48.25 220.816 48.0859 221.777 48.0859C222.738 48.0859 223.594 48.25 224.344 48.5781C225.094 48.8984 225.723 49.3477 226.23 49.9258C226.746 50.5039 227.137 51.1875 227.402 51.9766C227.668 52.7578 227.801 53.6133 227.801 54.543V54.7891C227.801 55.7109 227.668 56.5664 227.402 57.3555C227.137 58.1367 226.746 58.8203 226.23 59.4062C225.723 59.9844 225.098 60.4336 224.355 60.7539C223.613 61.0742 222.762 61.2344 221.801 61.2344C220.84 61.2344 219.984 61.0742 219.234 60.7539C218.492 60.4336 217.863 59.9844 217.348 59.4062C216.84 58.8203 216.453 58.1367 216.188 57.3555C215.922 56.5664 215.789 55.7109 215.789 54.7891ZM219.164 54.543V54.7891C219.164 55.3203 219.211 55.8164 219.305 56.2773C219.398 56.7383 219.547 57.1445 219.75 57.4961C219.961 57.8398 220.234 58.1094 220.57 58.3047C220.906 58.5 221.316 58.5977 221.801 58.5977C222.27 58.5977 222.672 58.5 223.008 58.3047C223.344 58.1094 223.613 57.8398 223.816 57.4961C224.02 57.1445 224.168 56.7383 224.262 56.2773C224.363 55.8164 224.414 55.3203 224.414 54.7891V54.543C224.414 54.0273 224.363 53.543 224.262 53.0898C224.168 52.6289 224.016 52.2227 223.805 51.8711C223.602 51.5117 223.332 51.2305 222.996 51.0273C222.66 50.8242 222.254 50.7227 221.777 50.7227C221.301 50.7227 220.895 50.8242 220.559 51.0273C220.23 51.2305 219.961 51.5117 219.75 51.8711C219.547 52.2227 219.398 52.6289 219.305 53.0898C219.211 53.543 219.164 54.0273 219.164 54.543ZM233.18 51.0273V61H229.805V48.3203H232.969L233.18 51.0273ZM232.688 54.2148H231.773C231.773 53.2773 231.895 52.4336 232.137 51.6836C232.379 50.9258 232.719 50.2812 233.156 49.75C233.594 49.2109 234.113 48.8008 234.715 48.5195C235.324 48.2305 236.004 48.0859 236.754 48.0859C237.348 48.0859 237.891 48.1719 238.383 48.3438C238.875 48.5156 239.297 48.7891 239.648 49.1641C240.008 49.5391 240.281 50.0352 240.469 50.6523C240.664 51.2695 240.762 52.0234 240.762 52.9141V61H237.363V52.9023C237.363 52.3398 237.285 51.9023 237.129 51.5898C236.973 51.2773 236.742 51.0586 236.438 50.9336C236.141 50.8008 235.773 50.7344 235.336 50.7344C234.883 50.7344 234.488 50.8242 234.152 51.0039C233.824 51.1836 233.551 51.4336 233.332 51.7539C233.121 52.0664 232.961 52.4336 232.852 52.8555C232.742 53.2773 232.688 53.7305 232.688 54.2148ZM246.633 51.0273V61H243.258V48.3203H246.422L246.633 51.0273ZM246.141 54.2148H245.227C245.227 53.2773 245.348 52.4336 245.59 51.6836C245.832 50.9258 246.172 50.2812 246.609 49.75C247.047 49.2109 247.566 48.8008 248.168 48.5195C248.777 48.2305 249.457 48.0859 250.207 48.0859C250.801 48.0859 251.344 48.1719 251.836 48.3438C252.328 48.5156 252.75 48.7891 253.102 49.1641C253.461 49.5391 253.734 50.0352 253.922 50.6523C254.117 51.2695 254.215 52.0234 254.215 52.9141V61H250.816V52.9023C250.816 52.3398 250.738 51.9023 250.582 51.5898C250.426 51.2773 250.195 51.0586 249.891 50.9336C249.594 50.8008 249.227 50.7344 248.789 50.7344C248.336 50.7344 247.941 50.8242 247.605 51.0039C247.277 51.1836 247.004 51.4336 246.785 51.7539C246.574 52.0664 246.414 52.4336 246.305 52.8555C246.195 53.2773 246.141 53.7305 246.141 54.2148ZM262.617 61.2344C261.633 61.2344 260.75 61.0781 259.969 60.7656C259.188 60.4453 258.523 60.0039 257.977 59.4414C257.438 58.8789 257.023 58.2266 256.734 57.4844C256.445 56.7344 256.301 55.9375 256.301 55.0938V54.625C256.301 53.6641 256.438 52.7852 256.711 51.9883C256.984 51.1914 257.375 50.5 257.883 49.9141C258.398 49.3281 259.023 48.8789 259.758 48.5664C260.492 48.2461 261.32 48.0859 262.242 48.0859C263.141 48.0859 263.938 48.2344 264.633 48.5312C265.328 48.8281 265.91 49.25 266.379 49.7969C266.855 50.3438 267.215 51 267.457 51.7656C267.699 52.5234 267.82 53.3672 267.82 54.2969V55.7031H257.742V53.4531H264.504V53.1953C264.504 52.7266 264.418 52.3086 264.246 51.9414C264.082 51.5664 263.832 51.2695 263.496 51.0508C263.16 50.832 262.73 50.7227 262.207 50.7227C261.762 50.7227 261.379 50.8203 261.059 51.0156C260.738 51.2109 260.477 51.4844 260.273 51.8359C260.078 52.1875 259.93 52.6016 259.828 53.0781C259.734 53.5469 259.688 54.0625 259.688 54.625V55.0938C259.688 55.6016 259.758 56.0703 259.898 56.5C260.047 56.9297 260.254 57.3008 260.52 57.6133C260.793 57.9258 261.121 58.168 261.504 58.3398C261.895 58.5117 262.336 58.5977 262.828 58.5977C263.438 58.5977 264.004 58.4805 264.527 58.2461C265.059 58.0039 265.516 57.6406 265.898 57.1562L267.539 58.9375C267.273 59.3203 266.91 59.6875 266.449 60.0391C265.996 60.3906 265.449 60.6797 264.809 60.9062C264.168 61.125 263.438 61.2344 262.617 61.2344ZM274.98 58.5977C275.395 58.5977 275.762 58.5195 276.082 58.3633C276.402 58.1992 276.652 57.9727 276.832 57.6836C277.02 57.3867 277.117 57.0391 277.125 56.6406H280.301C280.293 57.5312 280.055 58.3242 279.586 59.0195C279.117 59.707 278.488 60.25 277.699 60.6484C276.91 61.0391 276.027 61.2344 275.051 61.2344C274.066 61.2344 273.207 61.0703 272.473 60.7422C271.746 60.4141 271.141 59.9609 270.656 59.3828C270.172 58.7969 269.809 58.1172 269.566 57.3438C269.324 56.5625 269.203 55.7266 269.203 54.8359V54.4961C269.203 53.5977 269.324 52.7617 269.566 51.9883C269.809 51.207 270.172 50.5273 270.656 49.9492C271.141 49.3633 271.746 48.9062 272.473 48.5781C273.199 48.25 274.051 48.0859 275.027 48.0859C276.066 48.0859 276.977 48.2852 277.758 48.6836C278.547 49.082 279.164 49.6523 279.609 50.3945C280.062 51.1289 280.293 52 280.301 53.0078H277.125C277.117 52.5859 277.027 52.2031 276.855 51.8594C276.691 51.5156 276.449 51.2422 276.129 51.0391C275.816 50.8281 275.43 50.7227 274.969 50.7227C274.477 50.7227 274.074 50.8281 273.762 51.0391C273.449 51.2422 273.207 51.5234 273.035 51.8828C272.863 52.2344 272.742 52.6367 272.672 53.0898C272.609 53.5352 272.578 54.0039 272.578 54.4961V54.8359C272.578 55.3281 272.609 55.8008 272.672 56.2539C272.734 56.707 272.852 57.1094 273.023 57.4609C273.203 57.8125 273.449 58.0898 273.762 58.293C274.074 58.4961 274.48 58.5977 274.98 58.5977ZM288.469 48.3203V50.7109H281.086V48.3203H288.469ZM282.914 45.1914H286.289V57.1797C286.289 57.5469 286.336 57.8281 286.43 58.0234C286.531 58.2188 286.68 58.3555 286.875 58.4336C287.07 58.5039 287.316 58.5391 287.613 58.5391C287.824 58.5391 288.012 58.5312 288.176 58.5156C288.348 58.4922 288.492 58.4688 288.609 58.4453L288.621 60.9297C288.332 61.0234 288.02 61.0977 287.684 61.1523C287.348 61.207 286.977 61.2344 286.57 61.2344C285.828 61.2344 285.18 61.1133 284.625 60.8711C284.078 60.6211 283.656 60.2227 283.359 59.6758C283.062 59.1289 282.914 58.4102 282.914 57.5195V45.1914Z" fill="#888888"/>
<path d="M104.344 84.875V119H96.1406V84.875H104.344ZM117.727 99.0078V119H109.828V93.6406H117.234L117.727 99.0078ZM116.766 105.453L114.961 105.5C114.961 103.719 115.172 102.078 115.594 100.578C116.016 99.0781 116.641 97.7734 117.469 96.6641C118.297 95.5547 119.312 94.6953 120.516 94.0859C121.734 93.4766 123.141 93.1719 124.734 93.1719C125.844 93.1719 126.852 93.3438 127.758 93.6875C128.664 94.0156 129.445 94.5391 130.102 95.2578C130.758 95.9609 131.258 96.8828 131.602 98.0234C131.961 99.1484 132.141 100.5 132.141 102.078V119H124.242V103.086C124.242 102.008 124.117 101.195 123.867 100.648C123.633 100.102 123.289 99.7344 122.836 99.5469C122.383 99.3594 121.828 99.2656 121.172 99.2656C120.484 99.2656 119.867 99.4219 119.32 99.7344C118.773 100.047 118.305 100.484 117.914 101.047C117.539 101.594 117.25 102.242 117.047 102.992C116.859 103.742 116.766 104.562 116.766 105.453ZM131.25 105.453L129.047 105.5C129.047 103.719 129.242 102.078 129.633 100.578C130.039 99.0781 130.641 97.7734 131.438 96.6641C132.25 95.5547 133.258 94.6953 134.461 94.0859C135.664 93.4766 137.062 93.1719 138.656 93.1719C139.812 93.1719 140.875 93.3438 141.844 93.6875C142.812 94.0312 143.648 94.5859 144.352 95.3516C145.055 96.1172 145.602 97.1328 145.992 98.3984C146.383 99.6484 146.578 101.195 146.578 103.039V119H138.656V103.039C138.656 101.992 138.531 101.203 138.281 100.672C138.047 100.125 137.703 99.7578 137.25 99.5703C136.797 99.3672 136.258 99.2656 135.633 99.2656C134.883 99.2656 134.234 99.4219 133.688 99.7344C133.141 100.047 132.68 100.484 132.305 101.047C131.945 101.594 131.68 102.242 131.508 102.992C131.336 103.742 131.25 104.562 131.25 105.453ZM159.07 98.5156V128.75H151.172V93.6406H158.531L159.07 98.5156ZM174.633 106.016V106.508C174.633 108.352 174.422 110.062 174 111.641C173.578 113.219 172.953 114.594 172.125 115.766C171.297 116.938 170.266 117.852 169.031 118.508C167.812 119.148 166.398 119.469 164.789 119.469C163.273 119.469 161.969 119.133 160.875 118.461C159.781 117.789 158.867 116.859 158.133 115.672C157.398 114.484 156.805 113.125 156.352 111.594C155.898 110.062 155.539 108.445 155.273 106.742V106.109C155.539 104.281 155.898 102.586 156.352 101.023C156.805 99.4453 157.398 98.0703 158.133 96.8984C158.867 95.7266 159.773 94.8125 160.852 94.1562C161.945 93.5 163.25 93.1719 164.766 93.1719C166.375 93.1719 167.789 93.4766 169.008 94.0859C170.242 94.6953 171.273 95.5703 172.102 96.7109C172.945 97.8359 173.578 99.1875 174 100.766C174.422 102.344 174.633 104.094 174.633 106.016ZM166.734 106.508V106.016C166.734 105.031 166.664 104.133 166.523 103.32C166.383 102.492 166.156 101.773 165.844 101.164C165.547 100.555 165.148 100.086 164.648 99.7578C164.148 99.4297 163.531 99.2656 162.797 99.2656C161.953 99.2656 161.242 99.3984 160.664 99.6641C160.102 99.9141 159.648 100.305 159.305 100.836C158.977 101.352 158.742 102 158.602 102.781C158.477 103.547 158.422 104.445 158.438 105.477V107.398C158.406 108.586 158.523 109.633 158.789 110.539C159.055 111.43 159.516 112.125 160.172 112.625C160.828 113.125 161.719 113.375 162.844 113.375C163.594 113.375 164.219 113.203 164.719 112.859C165.219 112.5 165.617 112.008 165.914 111.383C166.211 110.742 166.422 110.008 166.547 109.18C166.672 108.352 166.734 107.461 166.734 106.508ZM186.492 83V119H178.57V83H186.492ZM203.648 119.469C201.586 119.469 199.742 119.148 198.117 118.508C196.492 117.852 195.117 116.953 193.992 115.812C192.883 114.672 192.031 113.359 191.438 111.875C190.859 110.391 190.57 108.82 190.57 107.164V106.273C190.57 104.414 190.828 102.695 191.344 101.117C191.859 99.5234 192.625 98.1328 193.641 96.9453C194.656 95.7578 195.93 94.8359 197.461 94.1797C198.992 93.5078 200.773 93.1719 202.805 93.1719C204.602 93.1719 206.211 93.4609 207.633 94.0391C209.055 94.6172 210.258 95.4453 211.242 96.5234C212.242 97.6016 213 98.9062 213.516 100.438C214.047 101.969 214.312 103.688 214.312 105.594V108.805H193.594V103.859H206.602V103.25C206.617 102.406 206.469 101.688 206.156 101.094C205.859 100.5 205.422 100.047 204.844 99.7344C204.266 99.4219 203.562 99.2656 202.734 99.2656C201.875 99.2656 201.164 99.4531 200.602 99.8281C200.055 100.203 199.625 100.719 199.312 101.375C199.016 102.016 198.805 102.758 198.68 103.602C198.555 104.445 198.492 105.336 198.492 106.273V107.164C198.492 108.102 198.617 108.953 198.867 109.719C199.133 110.484 199.508 111.141 199.992 111.688C200.492 112.219 201.086 112.633 201.773 112.93C202.477 113.227 203.273 113.375 204.164 113.375C205.242 113.375 206.305 113.172 207.352 112.766C208.398 112.359 209.297 111.688 210.047 110.75L213.633 115.016C213.117 115.75 212.383 116.461 211.43 117.148C210.492 117.836 209.367 118.398 208.055 118.836C206.742 119.258 205.273 119.469 203.648 119.469ZM225.492 99.0078V119H217.594V93.6406H225L225.492 99.0078ZM224.531 105.453L222.727 105.5C222.727 103.719 222.938 102.078 223.359 100.578C223.781 99.0781 224.406 97.7734 225.234 96.6641C226.062 95.5547 227.078 94.6953 228.281 94.0859C229.5 93.4766 230.906 93.1719 232.5 93.1719C233.609 93.1719 234.617 93.3438 235.523 93.6875C236.43 94.0156 237.211 94.5391 237.867 95.2578C238.523 95.9609 239.023 96.8828 239.367 98.0234C239.727 99.1484 239.906 100.5 239.906 102.078V119H232.008V103.086C232.008 102.008 231.883 101.195 231.633 100.648C231.398 100.102 231.055 99.7344 230.602 99.5469C230.148 99.3594 229.594 99.2656 228.938 99.2656C228.25 99.2656 227.633 99.4219 227.086 99.7344C226.539 100.047 226.07 100.484 225.68 101.047C225.305 101.594 225.016 102.242 224.812 102.992C224.625 103.742 224.531 104.562 224.531 105.453ZM239.016 105.453L236.812 105.5C236.812 103.719 237.008 102.078 237.398 100.578C237.805 99.0781 238.406 97.7734 239.203 96.6641C240.016 95.5547 241.023 94.6953 242.227 94.0859C243.43 93.4766 244.828 93.1719 246.422 93.1719C247.578 93.1719 248.641 93.3438 249.609 93.6875C250.578 94.0312 251.414 94.5859 252.117 95.3516C252.82 96.1172 253.367 97.1328 253.758 98.3984C254.148 99.6484 254.344 101.195 254.344 103.039V119H246.422V103.039C246.422 101.992 246.297 101.203 246.047 100.672C245.812 100.125 245.469 99.7578 245.016 99.5703C244.562 99.3672 244.023 99.2656 243.398 99.2656C242.648 99.2656 242 99.4219 241.453 99.7344C240.906 100.047 240.445 100.484 240.07 101.047C239.711 101.594 239.445 102.242 239.273 102.992C239.102 103.742 239.016 104.562 239.016 105.453ZM271.148 119.469C269.086 119.469 267.242 119.148 265.617 118.508C263.992 117.852 262.617 116.953 261.492 115.812C260.383 114.672 259.531 113.359 258.938 111.875C258.359 110.391 258.07 108.82 258.07 107.164V106.273C258.07 104.414 258.328 102.695 258.844 101.117C259.359 99.5234 260.125 98.1328 261.141 96.9453C262.156 95.7578 263.43 94.8359 264.961 94.1797C266.492 93.5078 268.273 93.1719 270.305 93.1719C272.102 93.1719 273.711 93.4609 275.133 94.0391C276.555 94.6172 277.758 95.4453 278.742 96.5234C279.742 97.6016 280.5 98.9062 281.016 100.438C281.547 101.969 281.812 103.688 281.812 105.594V108.805H261.094V103.859H274.102V103.25C274.117 102.406 273.969 101.688 273.656 101.094C273.359 100.5 272.922 100.047 272.344 99.7344C271.766 99.4219 271.062 99.2656 270.234 99.2656C269.375 99.2656 268.664 99.4531 268.102 99.8281C267.555 100.203 267.125 100.719 266.812 101.375C266.516 102.016 266.305 102.758 266.18 103.602C266.055 104.445 265.992 105.336 265.992 106.273V107.164C265.992 108.102 266.117 108.953 266.367 109.719C266.633 110.484 267.008 111.141 267.492 111.688C267.992 112.219 268.586 112.633 269.273 112.93C269.977 113.227 270.773 113.375 271.664 113.375C272.742 113.375 273.805 113.172 274.852 112.766C275.898 112.359 276.797 111.688 277.547 110.75L281.133 115.016C280.617 115.75 279.883 116.461 278.93 117.148C277.992 117.836 276.867 118.398 275.555 118.836C274.242 119.258 272.773 119.469 271.148 119.469ZM292.781 99.0547V119H284.883V93.6406H292.289L292.781 99.0547ZM291.844 105.453L289.992 105.5C289.992 103.562 290.227 101.836 290.695 100.32C291.164 98.7891 291.828 97.4922 292.688 96.4297C293.547 95.3672 294.57 94.5625 295.758 94.0156C296.961 93.4531 298.297 93.1719 299.766 93.1719C300.938 93.1719 302.008 93.3438 302.977 93.6875C303.961 94.0312 304.805 94.5859 305.508 95.3516C306.227 96.1172 306.773 97.1328 307.148 98.3984C307.539 99.6484 307.734 101.195 307.734 103.039V119H299.789V103.016C299.789 102 299.648 101.227 299.367 100.695C299.086 100.148 298.68 99.7734 298.148 99.5703C297.617 99.3672 296.969 99.2656 296.203 99.2656C295.391 99.2656 294.703 99.4219 294.141 99.7344C293.578 100.047 293.125 100.484 292.781 101.047C292.453 101.594 292.211 102.242 292.055 102.992C291.914 103.742 291.844 104.562 291.844 105.453ZM325.477 93.6406V99.125H310.195V93.6406H325.477ZM313.406 87.3359H321.305V110.727C321.305 111.398 321.383 111.922 321.539 112.297C321.695 112.656 321.961 112.914 322.336 113.07C322.727 113.211 323.242 113.281 323.883 113.281C324.336 113.281 324.711 113.273 325.008 113.258C325.305 113.227 325.586 113.188 325.852 113.141V118.789C325.18 119.008 324.477 119.172 323.742 119.281C323.008 119.406 322.227 119.469 321.398 119.469C319.711 119.469 318.266 119.203 317.062 118.672C315.875 118.141 314.969 117.305 314.344 116.164C313.719 115.023 313.406 113.539 313.406 111.711V87.3359ZM341.789 112.625V102.172C341.789 101.453 341.688 100.836 341.484 100.32C341.281 99.8047 340.961 99.4062 340.523 99.125C340.086 98.8281 339.5 98.6797 338.766 98.6797C338.172 98.6797 337.664 98.7812 337.242 98.9844C336.82 99.1875 336.5 99.4922 336.281 99.8984C336.062 100.305 335.953 100.82 335.953 101.445H328.055C328.055 100.273 328.312 99.1875 328.828 98.1875C329.359 97.1719 330.109 96.2891 331.078 95.5391C332.062 94.7891 333.234 94.2109 334.594 93.8047C335.969 93.3828 337.5 93.1719 339.188 93.1719C341.203 93.1719 343 93.5078 344.578 94.1797C346.172 94.8516 347.43 95.8594 348.352 97.2031C349.273 98.5312 349.734 100.203 349.734 102.219V112.602C349.734 114.258 349.828 115.516 350.016 116.375C350.203 117.219 350.469 117.961 350.812 118.602V119H342.891C342.516 118.219 342.234 117.266 342.047 116.141C341.875 115 341.789 113.828 341.789 112.625ZM342.75 103.508L342.797 107.727H339.305C338.57 107.727 337.945 107.828 337.43 108.031C336.93 108.234 336.523 108.516 336.211 108.875C335.914 109.219 335.695 109.609 335.555 110.047C335.43 110.484 335.367 110.945 335.367 111.43C335.367 111.898 335.477 112.32 335.695 112.695C335.93 113.055 336.242 113.336 336.633 113.539C337.023 113.742 337.461 113.844 337.945 113.844C338.82 113.844 339.562 113.68 340.172 113.352C340.797 113.008 341.273 112.594 341.602 112.109C341.93 111.625 342.094 111.172 342.094 110.75L343.828 113.984C343.516 114.609 343.156 115.242 342.75 115.883C342.359 116.523 341.867 117.117 341.273 117.664C340.695 118.195 339.984 118.633 339.141 118.977C338.297 119.305 337.273 119.469 336.07 119.469C334.508 119.469 333.07 119.148 331.758 118.508C330.461 117.867 329.422 116.977 328.641 115.836C327.859 114.68 327.469 113.352 327.469 111.852C327.469 110.539 327.703 109.367 328.172 108.336C328.656 107.305 329.383 106.43 330.352 105.711C331.32 104.992 332.555 104.445 334.055 104.07C335.555 103.695 337.32 103.508 339.352 103.508H342.75ZM367.477 93.6406V99.125H352.195V93.6406H367.477ZM355.406 87.3359H363.305V110.727C363.305 111.398 363.383 111.922 363.539 112.297C363.695 112.656 363.961 112.914 364.336 113.07C364.727 113.211 365.242 113.281 365.883 113.281C366.336 113.281 366.711 113.273 367.008 113.258C367.305 113.227 367.586 113.188 367.852 113.141V118.789C367.18 119.008 366.477 119.172 365.742 119.281C365.008 119.406 364.227 119.469 363.398 119.469C361.711 119.469 360.266 119.203 359.062 118.672C357.875 118.141 356.969 117.305 356.344 116.164C355.719 115.023 355.406 113.539 355.406 111.711V87.3359ZM378.961 93.6406V119H371.039V93.6406H378.961ZM370.57 87.1016C370.57 85.9766 370.977 85.0547 371.789 84.3359C372.602 83.6172 373.656 83.2578 374.953 83.2578C376.25 83.2578 377.305 83.6172 378.117 84.3359C378.93 85.0547 379.336 85.9766 379.336 87.1016C379.336 88.2266 378.93 89.1484 378.117 89.8672C377.305 90.5859 376.25 90.9453 374.953 90.9453C373.656 90.9453 372.602 90.5859 371.789 89.8672C370.977 89.1484 370.57 88.2266 370.57 87.1016ZM382.852 106.578V106.086C382.852 104.227 383.117 102.516 383.648 100.953C384.18 99.375 384.961 98.0078 385.992 96.8516C387.023 95.6953 388.297 94.7969 389.812 94.1562C391.328 93.5 393.078 93.1719 395.062 93.1719C397.062 93.1719 398.82 93.5 400.336 94.1562C401.867 94.7969 403.148 95.6953 404.18 96.8516C405.211 98.0078 405.992 99.375 406.523 100.953C407.055 102.516 407.32 104.227 407.32 106.086V106.578C407.32 108.422 407.055 110.133 406.523 111.711C405.992 113.273 405.211 114.641 404.18 115.812C403.148 116.969 401.875 117.867 400.359 118.508C398.844 119.148 397.094 119.469 395.109 119.469C393.125 119.469 391.367 119.148 389.836 118.508C388.305 117.867 387.023 116.969 385.992 115.812C384.961 114.641 384.18 113.273 383.648 111.711C383.117 110.133 382.852 108.422 382.852 106.578ZM390.75 106.086V106.578C390.75 107.531 390.82 108.422 390.961 109.25C391.102 110.078 391.336 110.805 391.664 111.43C391.992 112.039 392.438 112.516 393 112.859C393.562 113.203 394.266 113.375 395.109 113.375C395.938 113.375 396.625 113.203 397.172 112.859C397.734 112.516 398.18 112.039 398.508 111.43C398.836 110.805 399.07 110.078 399.211 109.25C399.352 108.422 399.422 107.531 399.422 106.578V106.086C399.422 105.164 399.352 104.297 399.211 103.484C399.07 102.656 398.836 101.93 398.508 101.305C398.18 100.664 397.734 100.164 397.172 99.8047C396.609 99.4453 395.906 99.2656 395.062 99.2656C394.234 99.2656 393.539 99.4453 392.977 99.8047C392.43 100.164 391.992 100.664 391.664 101.305C391.336 101.93 391.102 102.656 390.961 103.484C390.82 104.297 390.75 105.164 390.75 106.086ZM418.594 99.0547V119H410.695V93.6406H418.102L418.594 99.0547ZM417.656 105.453L415.805 105.5C415.805 103.562 416.039 101.836 416.508 100.32C416.977 98.7891 417.641 97.4922 418.5 96.4297C419.359 95.3672 420.383 94.5625 421.57 94.0156C422.773 93.4531 424.109 93.1719 425.578 93.1719C426.75 93.1719 427.82 93.3438 428.789 93.6875C429.773 94.0312 430.617 94.5859 431.32 95.3516C432.039 96.1172 432.586 97.1328 432.961 98.3984C433.352 99.6484 433.547 101.195 433.547 103.039V119H425.602V103.016C425.602 102 425.461 101.227 425.18 100.695C424.898 100.148 424.492 99.7734 423.961 99.5703C423.43 99.3672 422.781 99.2656 422.016 99.2656C421.203 99.2656 420.516 99.4219 419.953 99.7344C419.391 100.047 418.938 100.484 418.594 101.047C418.266 101.594 418.023 102.242 417.867 102.992C417.727 103.742 417.656 104.562 417.656 105.453Z" fill="black"/>
<path d="M1134 0H1348C1356.28 0 1363 6.71573 1363 15V148C1363 156.284 1356.28 163 1348 163H1134V0Z" fill="#4C68AF"/>
<path d="M1281 46.5H1216L1213.5 49V114L1216 116.5H1281L1283.5 114V49L1281 46.5ZM1278.5 111.5H1233.5V101.5H1245C1246.5 104.5 1250 106.5 1253.5 106.5C1259 106.5 1263.5 102 1263.5 96.5C1263.5 91 1259 86.5 1253.5 86.5C1248 86.5 1243.5 91 1243.5 96.5H1228.5V111.5H1218.5V51.5H1228.5V63C1225.5 64.5 1223.5 68 1223.5 71.5C1223.5 77 1228 81.5 1233.5 81.5C1239 81.5 1243.5 77 1243.5 71.5H1253.5C1253.5 77 1258 81.5 1263.5 81.5C1269 81.5 1273.5 77 1273.5 71.5C1273.5 66 1269 61.5 1263.5 61.5C1260 61.5 1256.5 63.5 1255 66.5H1242C1240.5 63.5 1237 61.5 1233.5 61.5V51.5H1278.5V111.5ZM1248.5 96.5C1248.5 93.5 1250.5 91.5 1253.5 91.5C1256.5 91.5 1258.5 93.5 1258.5 96.5C1258.5 99.5 1256.5 101.5 1253.5 101.5C1250.5 101.5 1248.5 99.5 1248.5 96.5ZM1233.5 66.5C1236.5 66.5 1238.5 68.5 1238.5 71.5C1238.5 74.5 1236.5 76.5 1233.5 76.5C1230.5 76.5 1228.5 74.5 1228.5 71.5C1228.5 68.5 1230.5 66.5 1233.5 66.5ZM1263.5 66.5C1266.5 66.5 1268.5 68.5 1268.5 71.5C1268.5 74.5 1266.5 76.5 1263.5 76.5C1260.5 76.5 1258.5 74.5 1258.5 71.5C1258.5 68.5 1260.5 66.5 1263.5 66.5Z" fill="white"/>
</svg>
